<svg width="357" height="172" viewBox="0 0 357 172" fill="none" xmlns="http://www.w3.org/2000/svg">
<path fill-rule="evenodd" clip-rule="evenodd" d="M35.8203 0C24.0729 0 13.8203 8.97597 13.8203 20.9173V115.083C13.8203 120.493 15.9249 125.294 19.3195 128.928C15.2172 131.816 11.7181 135.829 9.07944 140.579L1.52738 154.172C-2.91616 162.171 2.86743 172 12.0173 172L217.623 172C226.773 172 232.557 162.171 228.113 154.172L220.561 140.579C217.922 135.829 214.423 131.816 210.321 128.928C213.716 125.295 215.82 120.493 215.82 115.083V20.9173C215.82 8.97597 205.568 0 193.82 0H35.8203ZM193.82 124C199.746 124 203.82 119.619 203.82 115.083V20.9173C203.82 16.3814 199.746 12 193.82 12H35.8203C29.8946 12 25.8203 16.3814 25.8203 20.9173V115.083C25.8203 119.619 29.8946 124 35.8203 124H193.82ZM35.8203 136H34.4133C29.1958 136 23.5081 139.316 19.5693 146.406L12.0173 160L217.623 160L210.071 146.406C206.132 139.316 200.445 136 195.227 136L193.82 136H35.8203ZM84.9076 146.735C85.4521 145.102 86.9807 144 88.7024 144H140.936C142.658 144 144.187 145.102 144.731 146.735L146.064 150.735C146.928 153.325 145 156 142.27 156H87.369C84.6388 156 82.7109 153.325 83.5743 150.735L84.9076 146.735ZM249 22C249 9.84974 258.85 0 271 0H335C347.15 0 357 9.84974 357 22V150C357 162.15 347.15 172 335 172H271C258.85 172 249 162.15 249 150V22ZM271 12C265.477 12 261 16.4772 261 22V150C261 155.523 265.477 160 271 160H335C340.523 160 345 155.523 345 150V22C345 16.4772 340.523 12 335 12H330V13C330 17.4183 326.418 21 322 21H284C279.582 21 276 17.4183 276 13V12H271Z" fill="url(#paint0_linear_230_5917)"/>
<defs>
<linearGradient id="paint0_linear_230_5917" x1="-18.0465" y1="-15.7839" x2="260.837" y2="306.457" gradientUnits="userSpaceOnUse">
<stop stop-color="#A385FC"/>
<stop offset="0.47" stop-color="white"/>
<stop offset="1" stop-color="#9B7BFB"/>
</linearGradient>
</defs>
</svg>
