<svg width="108" height="172" viewBox="0 0 108 172" fill="none" xmlns="http://www.w3.org/2000/svg">
<path fill-rule="evenodd" clip-rule="evenodd" d="M22 0C9.84973 0 0 9.84974 0 22V150C0 162.15 9.84974 172 22 172H86C98.1503 172 108 162.15 108 150V22C108 9.84974 98.1503 0 86 0H22ZM12 22C12 16.4772 16.4772 12 22 12H27V13C27 17.4183 30.5817 21 35 21H73C77.4183 21 81 17.4183 81 13V12H86C91.5229 12 96 16.4772 96 22V150C96 155.523 91.5229 160 86 160H22C16.4772 160 12 155.523 12 150V22Z" fill="white"/>
</svg>
