<svg width="230" height="172" viewBox="0 0 230 172" fill="none" xmlns="http://www.w3.org/2000/svg">
<path fill-rule="evenodd" clip-rule="evenodd" d="M13.8203 20.9173C13.8203 8.97597 24.0729 0 35.8203 0H193.82C205.568 0 215.82 8.97597 215.82 20.9173V115.083C215.82 120.493 213.716 125.295 210.321 128.928C214.423 131.816 217.922 135.829 220.561 140.579L228.113 154.172C232.557 162.171 226.773 172 217.623 172L12.0173 172C2.86743 172 -2.91616 162.171 1.52738 154.172L9.07944 140.579C11.7181 135.829 15.2172 131.816 19.3195 128.928C15.9249 125.294 13.8203 120.493 13.8203 115.083V20.9173ZM203.82 115.083C203.82 119.619 199.746 124 193.82 124H35.8203C29.8946 124 25.8203 119.619 25.8203 115.083V20.9173C25.8203 16.3814 29.8946 12 35.8203 12H193.82C199.746 12 203.82 16.3814 203.82 20.9173V115.083ZM34.4133 136H35.8203H193.82L195.227 136C200.445 136 206.132 139.316 210.071 146.406L217.623 160L12.0173 160L19.5693 146.406C23.5081 139.316 29.1958 136 34.4133 136ZM88.7024 144C86.9807 144 85.4521 145.102 84.9076 146.735L83.5743 150.735C82.7109 153.325 84.6388 156 87.369 156H142.27C145 156 146.928 153.325 146.064 150.735L144.731 146.735C144.187 145.102 142.658 144 140.936 144H88.7024Z" fill="white"/>
</svg>
