<svg width="400" height="400" viewBox="0 0 150 181" fill="none" xmlns="http://www.w3.org/2000/svg">
<path fill-rule="evenodd" clip-rule="evenodd" d="M65.5716 1.67262C71.4849 -0.55754 78.0081 -0.557542 83.9214 1.67262L132.33 19.9298C142.454 23.748 149.156 33.4371 149.156 44.2572V90.6249C149.156 112.774 137.771 131.601 124.662 145.983C111.509 160.413 96.0579 170.998 86.6006 176.781C79.2811 181.256 70.2119 181.256 62.8924 176.781C53.4351 170.998 37.9841 160.413 24.8313 145.983C11.7223 131.601 0.337402 112.774 0.337402 90.6249V44.2571C0.337402 33.437 7.03848 23.748 17.1625 19.9298L65.5716 1.67262ZM79.6868 12.9006C76.5027 11.6998 72.9903 11.6998 69.8062 12.9006L21.3971 31.1578C15.9457 33.2137 12.3374 38.4309 12.3374 44.2571V90.6249C12.3374 108.543 21.576 124.598 33.7 137.899C45.7803 151.153 60.1717 161.052 69.152 166.543C72.6291 168.669 76.8639 168.669 80.3409 166.543C89.3213 161.052 103.713 151.153 115.793 137.899C127.917 124.598 137.156 108.543 137.156 90.6249V44.2572C137.156 38.4309 133.547 33.2137 128.096 31.1578L79.6868 12.9006Z" fill="#FFFFFF" fill-opacity="0.2"/>
<path d="M49.1085 59.4027C51.2142 60.7227 51.8511 63.4999 50.5311 65.6056C46.8164 71.5312 45.2999 78.6156 46.2637 85.5843C47.2273 92.5525 50.6049 98.9305 55.7726 103.579C60.9387 108.227 67.5563 110.844 74.4352 110.976C81.3139 111.109 88.0233 108.749 93.3581 104.305C98.6944 99.8605 102.308 93.6187 103.531 86.6934C104.755 79.7674 103.505 72.6289 100.014 66.5629C98.7739 64.4089 99.5151 61.6578 101.669 60.4181C103.823 59.1784 106.574 59.9195 107.814 62.0736C112.363 69.9773 113.984 79.2603 112.394 88.2592C110.804 97.2588 106.103 105.402 99.1182 111.221C92.1316 117.04 83.3189 120.149 74.2617 119.975C65.2045 119.8 56.5158 116.354 49.7534 110.27C42.9926 104.188 38.6006 95.8709 37.3485 86.8172C36.0965 77.764 38.0634 68.5495 42.9056 60.8253C44.2256 58.7195 47.0028 58.0826 49.1085 59.4027Z" fill="#FFFFFF" fill-opacity="0.2"/>
<path d="M54.707 52.1057C55.6125 51.226 56.1489 50.4977 56.3702 50.1144C56.5916 49.731 56.954 48.9024 57.2631 47.6784C57.4031 47.1239 57.516 46.5519 57.5988 45.9835C57.1479 46.3394 56.7089 46.7232 56.2988 47.1216C55.3933 48.0013 54.8569 48.7295 54.6356 49.1129C54.4143 49.4962 54.0518 50.3249 53.7427 51.5489C53.6027 52.1033 53.4898 52.6754 53.407 53.2438C53.8579 52.8879 54.2969 52.5041 54.707 52.1057ZM47.462 63.541C52.2456 66.3028 61.2039 59.7423 64.1645 54.6144C67.1251 49.4865 68.3275 38.4481 63.5439 35.6863C58.7602 32.9245 49.802 39.485 46.8414 44.6129C43.8808 49.7408 42.6783 60.7791 47.462 63.541Z" fill="#FFFFFF" fill-opacity="0.2"/>
<path d="M34.6555 66.2693C34.3264 65.0505 33.9505 64.2279 33.7229 63.8482C33.4954 63.4686 32.9472 62.7492 32.0274 61.8844C31.6108 61.4927 31.1656 61.1161 30.709 60.7676C30.801 61.3346 30.9233 61.9048 31.0723 62.4568C31.4014 63.6757 31.7773 64.4983 32.0049 64.8779C32.2324 65.2576 32.7806 65.977 33.7004 66.8418C34.117 67.2335 34.5621 67.6101 35.0188 67.9586C34.9267 67.3915 34.8045 66.8214 34.6555 66.2693ZM41.1312 78.1573C45.8691 75.3177 44.4866 64.3004 41.4426 59.2215C38.3987 54.1427 29.3345 47.7293 24.5966 50.5689C19.8587 53.4085 21.2412 64.4257 24.2852 69.5046C27.3291 74.5835 36.3933 80.9968 41.1312 78.1573Z" fill="#FFFFFF" fill-opacity="0.2"/>
<path d="M75.8092 68.4995L80.2382 77.0768L90.1425 78.4606L82.9758 85.1334L84.6672 94.5601L75.8092 90.1071L66.9512 94.5601L68.6425 85.1334L61.4758 78.4606L71.3802 77.0768L75.8092 68.4995Z" fill="#FFFFFF" fill-opacity="0.6"/>
<path d="M75.8091 63.9995C77.4925 63.9995 79.0351 64.9391 79.8075 66.4349L83.1677 72.9424L90.7651 74.0039C92.4843 74.2441 93.9121 75.4518 94.4341 77.1074C94.9561 78.763 94.4793 80.5712 93.2089 81.7541L87.8384 86.7544L89.0963 93.7654C89.3973 95.443 88.7247 97.1466 87.359 98.1662C85.9932 99.1857 84.1686 99.3462 82.6459 98.5807L75.8091 95.1437L68.9723 98.5807C67.4495 99.3462 65.6249 99.1857 64.2592 98.1662C62.8934 97.1466 62.2208 95.443 62.5218 93.7654L63.7797 86.7544L58.4093 81.7541C57.1388 80.5712 56.662 78.763 57.184 77.1074C57.7061 75.4518 59.1338 74.2441 60.853 74.0039L68.4504 72.9424L71.8107 66.4349C72.583 64.9391 74.1257 63.9995 75.8091 63.9995Z" fill="#FFFFFF" fill-opacity="0.4"/>
</svg>