<svg width="180" height="60" viewBox="0 0 180 60" fill="none" xmlns="http://www.w3.org/2000/svg">
  <!-- Computer icon -->
  <rect x="10" y="10" width="30" height="20" rx="2" stroke="white" stroke-width="2"/>
  <rect x="15" y="30" width="20" height="2" rx="1" fill="white"/>
  
  <!-- Mobile icon -->
  <rect x="45" y="10" width="10" height="22" rx="2" stroke="white" stroke-width="2"/>
  <rect x="48" y="28" width="4" height="1" rx="0.5" fill="white"/>
  
  <!-- UX -->
  <path d="M20 50V40H22V48H28V50H20Z" fill="white"/>
  <path d="M30 40L32 50L34 45L36 50L38 40H40L36 55H34L32 48L30 55H28L24 40H30Z" fill="white"/>
  
  <!-- CYBER -->
  <path d="M70 15C68.3333 15 67 15.6667 67 17C67 18.3333 68.3333 19 70 19H75V17H70V15Z" fill="white"/>
  <path d="M75 17V15H80C81.6667 15 83 15.6667 83 17C83 18.3333 81.6667 19 80 19H75V17Z" fill="white"/>
  <path d="M67 23C67 21.6667 68.3333 21 70 21H80C81.6667 21 83 21.6667 83 23C83 24.3333 81.6667 25 80 25H70C68.3333 25 67 24.3333 67 23Z" fill="white"/>
  
  <!-- UXCELLENCE -->
  <path d="M70 35V25H72V33H78V35H70Z" fill="white"/>
  <path d="M80 25L82 35L84 30L86 35L88 25H90L86 40H84L82 33L80 40H78L74 25H80Z" fill="white"/>
  <path d="M92 35V25H100C101.667 25 103 25.6667 103 27C103 28.3333 101.667 29 100 29H92V35ZM94 29V27H100V29H94Z" fill="white"/>
  <path d="M105 35V25H113C114.667 25 116 25.6667 116 27C116 27.6667 115.667 28 115 28.5C115.667 29 116 29.3333 116 30C116 31.3333 114.667 32 113 32H107V35H105ZM107 32V30H113V32H107ZM107 30V27H113V30H107Z" fill="white"/>
  <path d="M118 35V25H126C127.667 25 129 25.6667 129 27V33C129 34.3333 127.667 35 126 35H118ZM120 33V27H126V33H120Z" fill="white"/>
  <path d="M131 35V25H139C140.667 25 142 25.6667 142 27V33C142 34.3333 140.667 35 139 35H131ZM133 33V27H139V33H133Z" fill="white"/>
  <path d="M144 35V25H152C153.667 25 155 25.6667 155 27C155 28.3333 153.667 29 152 29H144V35ZM146 29V27H152V29H146Z" fill="white"/>
  <path d="M157 35V25H165C166.667 25 168 25.6667 168 27V33C168 34.3333 166.667 35 165 35H157ZM159 33V27H165V33H159Z" fill="white"/>
  
  <!-- AWARDS -->
  <path d="M70 45L72 55L74 50L76 55L78 45H80L76 60H74L72 53L70 60H68L64 45H70Z" fill="white"/>
  <path d="M87 45H81C79.3333 45 78 45.6667 78 47V53C78 54.3333 79.3333 55 81 55H87C88.6667 55 90 54.3333 90 53V47C90 45.6667 88.6667 45 87 45ZM81 47H87V53H81V47Z" fill="white"/>
  <path d="M97 45L99 55L101 50L103 55L105 45H107L103 60H101L99 53L97 60H95L91 45H97Z" fill="white"/>
  <path d="M109 45H117C118.667 45 120 45.6667 120 47C120 48.3333 118.667 49 117 49H109V45ZM109 55V49H117C118.667 49 120 49.6667 120 51V55H118V51H109Z" fill="white"/>
  <path d="M128 45H122C120.333 45 119 45.6667 119 47V53C119 54.3333 120.333 55 122 55H128C129.667 55 131 54.3333 131 53V47C131 45.6667 129.667 45 128 45ZM122 47H128V53H122V47Z" fill="white"/>
  <path d="M135 55L132 45H134L136 53L138 45H140L142 53L144 45H146L143 55H141L139 48L137 55H135Z" fill="white"/>

  <!-- Powered by Mindgrub -->
  <path d="M70 60L68 65H67L65 60H66L67.5 64L69 60H70Z" fill="white"/>
  <path d="M71 65V60H72V62.5H74V60H75V65H74V63.5H72V65H71Z" fill="white"/>
  <path d="M76 65V60H77V65H76Z" fill="white"/>
  <path d="M78 65V60H79V64L81 60H82V65H81V61L79 65H78Z" fill="white"/>
  <path d="M83 65V60H84V62.5L86 60H87L85 62.5L87 65H86L84 63V65H83Z" fill="white"/>
  <path d="M88 65V60H91C91.5 60 92 60.3333 92 61V64C92 64.6667 91.5 65 91 65H88ZM89 64V61H91V64H89Z" fill="white"/>
  <path d="M93 65V60H96C96.5 60 97 60.3333 97 61C97 61.6667 96.5 62 96 62H93V65ZM94 62V61H96V62H94Z" fill="white"/>
  <path d="M98 65V60H99V65H98Z" fill="white"/>
  <path d="M103 60H100C99.5 60 99 60.3333 99 61V64C99 64.6667 99.5 65 100 65H103C103.5 65 104 64.6667 104 64V61C104 60.3333 103.5 60 103 60ZM100 61H103V64H100V61Z" fill="white"/>
  
  <path d="M110 65V60H111V65H110Z" fill="white"/>
  <path d="M112 65V60H115C115.5 60 116 60.3333 116 61V62C116 62.3333 115.833 62.5 115.5 62.75C115.833 63 116 63.1667 116 63.5V64C116 64.6667 115.5 65 115 65H112ZM113 62.5V61H115V62.5H113ZM113 64V62.5H115V64H113Z" fill="white"/>
  <path d="M120 60H117C116.5 60 116 60.3333 116 61V64C116 64.6667 116.5 65 117 65H120C120.5 65 121 64.6667 121 64V61C121 60.3333 120.5 60 120 60ZM117 61H120V64H117V61Z" fill="white"/>
  
  <path d="M125 60H122C121.5 60 121 60.3333 121 61V64C121 64.6667 121.5 65 122 65H125C125.5 65 126 64.6667 126 64V61C126 60.3333 125.5 60 125 60ZM122 61H125V64H122V61Z" fill="white"/>
  <path d="M127 65V60H128V64L130 60H131V65H130V61L128 65H127Z" fill="white"/>
  <path d="M132 65V60H133V62.5H135V60H136V65H135V63.5H133V65H132Z" fill="white"/>
</svg>