<svg width="616" height="261" viewBox="0 0 616 261" fill="none" xmlns="http://www.w3.org/2000/svg">
<rect width="615.986" height="259.252" transform="translate(0 0.874146)" fill="#231F20"/>
<path fill-rule="evenodd" clip-rule="evenodd" d="M123.699 132.594L154.432 178.605L115.852 231.153H146.847L169.995 198.997L189.743 231.153H221L184.25 178.605L216.815 132.594H185.166L168.687 158.083L155.348 132.594H123.699ZM54.3282 186.289V132.696H28.6951V189.818C28.6951 205.156 32.2262 216.354 39.2884 223.412C46.3506 230.471 57.1618 234 71.7222 234C86.2825 234 97.0502 230.471 104.025 223.412C111.087 216.354 114.618 205.156 114.618 189.818V132.696H89.1161V186.289C89.1161 189.165 88.9853 192.128 88.7237 195.178C88.5494 198.141 87.8955 200.842 86.762 203.282C85.6286 205.722 83.8848 207.726 81.5308 209.295C79.2639 210.776 75.9944 211.517 71.7222 211.517C67.45 211.517 64.1368 210.776 61.7828 209.295C59.4287 207.726 57.6849 205.722 56.5515 203.282C55.5053 200.842 54.8514 198.141 54.5898 195.178C54.4154 192.128 54.3282 189.165 54.3282 186.289Z" fill="#F47114"/>
<path fill-rule="evenodd" clip-rule="evenodd" d="M45.3079 27C38.9758 27 33.4494 31.8357 33.4494 38.2691V89.0002C33.4494 91.9149 34.5838 94.5017 36.4136 96.4594C34.2024 98.0151 32.3163 100.177 30.894 102.736L26.8233 110.059C24.4281 114.369 27.5456 119.664 32.4776 119.664L143.303 119.664C148.235 119.664 151.353 114.369 148.958 110.06L144.887 102.736C143.465 100.177 141.579 98.0152 139.367 96.4595C141.197 94.5018 142.332 91.9149 142.332 89.0002V38.2691C142.332 31.8357 136.805 27 130.473 27H45.3079ZM130.473 93.8043C133.667 93.8043 135.863 91.4439 135.863 89.0002V38.2691C135.863 35.8254 133.667 33.4649 130.473 33.4649H45.3079C42.1138 33.4649 39.9177 35.8254 39.9177 38.2691V89.0002C39.9177 91.4439 42.1138 93.8043 45.3079 93.8043H130.473ZM45.3079 100.269H44.5495C41.7371 100.269 38.6714 102.056 36.5483 105.876L32.4776 113.199L143.303 113.199L139.233 105.876C137.11 102.056 134.044 100.269 131.231 100.269L130.473 100.269H45.3079ZM71.5214 106.789C71.9616 105.469 73.1967 104.579 74.5879 104.579H101.192C102.583 104.579 103.818 105.469 104.259 106.789C104.957 108.882 103.399 111.044 101.192 111.044H74.5879C72.3813 111.044 70.8233 108.882 71.5214 106.789ZM160.216 38.8524C160.216 32.3065 165.525 27 172.075 27H206.572C213.121 27 218.43 32.3065 218.43 38.8524V107.812C218.43 114.358 213.121 119.664 206.572 119.664H172.075C165.525 119.664 160.216 114.358 160.216 107.812V38.8524ZM172.075 33.4649C169.098 33.4649 166.684 35.877 166.684 38.8524V107.812C166.684 110.787 169.098 113.199 172.075 113.199H206.572C209.549 113.199 211.962 110.787 211.962 107.812V38.8524C211.962 35.877 209.549 33.4649 206.572 33.4649H203.877V34.0037C203.877 36.384 201.946 38.3136 199.565 38.3136H179.082C176.7 38.3136 174.77 36.384 174.77 34.0037V33.4649H172.075Z" fill="url(#paint0_linear_230_7811)"/>
<path d="M472.498 146.914C472.373 145.538 471.816 144.468 470.827 143.705C469.851 142.929 468.456 142.541 466.642 142.541C465.441 142.541 464.44 142.698 463.639 143.01C462.838 143.323 462.237 143.755 461.837 144.306C461.437 144.844 461.23 145.463 461.218 146.164C461.193 146.739 461.305 147.246 461.555 147.684C461.818 148.122 462.194 148.51 462.682 148.848C463.182 149.173 463.783 149.461 464.483 149.711C465.184 149.961 465.972 150.18 466.848 150.368L470.152 151.119C472.053 151.531 473.73 152.082 475.182 152.77C476.646 153.458 477.872 154.278 478.86 155.229C479.861 156.18 480.618 157.275 481.131 158.513C481.644 159.752 481.907 161.141 481.92 162.68C481.907 165.108 481.294 167.191 480.08 168.93C478.867 170.669 477.121 172.002 474.844 172.928C472.579 173.854 469.845 174.317 466.642 174.317C463.426 174.317 460.623 173.835 458.233 172.872C455.844 171.908 453.985 170.444 452.659 168.48C451.333 166.515 450.651 164.032 450.613 161.029H459.51C459.585 162.267 459.916 163.3 460.504 164.125C461.093 164.951 461.9 165.577 462.926 166.002C463.964 166.428 465.165 166.64 466.529 166.64C467.78 166.64 468.844 166.471 469.72 166.134C470.608 165.796 471.29 165.327 471.766 164.726C472.241 164.125 472.485 163.437 472.498 162.661C472.485 161.936 472.26 161.316 471.822 160.803C471.384 160.278 470.708 159.827 469.795 159.452C468.894 159.064 467.743 158.707 466.342 158.382L462.325 157.444C458.997 156.68 456.375 155.448 454.461 153.746C452.546 152.032 451.595 149.717 451.608 146.802C451.595 144.424 452.234 142.341 453.522 140.552C454.811 138.762 456.594 137.367 458.872 136.366C461.149 135.365 463.745 134.865 466.661 134.865C469.639 134.865 472.222 135.372 474.412 136.385C476.614 137.386 478.322 138.794 479.536 140.608C480.75 142.422 481.369 144.524 481.394 146.914H472.498Z" fill="#F47114"/>
<path d="M427.321 173.829H413.113V135.39H427.302C431.219 135.39 434.591 136.16 437.419 137.699C440.259 139.225 442.449 141.428 443.988 144.306C445.527 147.171 446.296 150.599 446.296 154.591C446.296 158.595 445.527 162.036 443.988 164.914C442.461 167.792 440.278 170 437.437 171.539C434.597 173.066 431.225 173.829 427.321 173.829ZM422.404 165.908H426.964C429.117 165.908 430.937 165.546 432.426 164.82C433.928 164.082 435.06 162.887 435.823 161.235C436.599 159.571 436.987 157.356 436.987 154.591C436.987 151.826 436.599 149.623 435.823 147.984C435.048 146.333 433.903 145.144 432.389 144.418C430.887 143.68 429.035 143.311 426.833 143.311H422.404V165.908Z" fill="#F47114"/>
<path d="M378.119 173.829V135.39H393.997C396.875 135.39 399.359 135.91 401.448 136.948C403.55 137.974 405.171 139.451 406.309 141.378C407.448 143.292 408.017 145.563 408.017 148.191C408.017 150.856 407.436 153.121 406.272 154.985C405.108 156.837 403.457 158.251 401.317 159.227C399.177 160.19 396.643 160.672 393.716 160.672H383.674V153.352H391.989C393.39 153.352 394.56 153.171 395.499 152.808C396.45 152.432 397.169 151.869 397.657 151.119C398.145 150.355 398.389 149.379 398.389 148.191C398.389 147.002 398.145 146.02 397.657 145.244C397.169 144.456 396.45 143.868 395.499 143.48C394.548 143.079 393.378 142.879 391.989 142.879H387.409V173.829H378.119ZM399.759 156.261L409.331 173.829H399.196L389.812 156.261H399.759Z" fill="#F47114"/>
<path d="M345.658 173.829H335.673L348.642 135.39H361.011L373.98 173.829H363.995L354.967 145.075H354.667L345.658 173.829ZM344.326 158.701H365.196V165.758H344.326V158.701Z" fill="#F47114"/>
<path d="M294.48 173.829L283.294 135.39H293.561L299.36 160.578H299.679L306.305 135.39H314.676L321.301 160.634H321.62L327.438 135.39H337.686L326.519 173.829H317.566L310.64 150.518H310.34L303.414 173.829H294.48Z" fill="#F47114"/>
<path d="M256.985 173.829H247L259.969 135.39H272.338L285.307 173.829H275.322L266.294 145.075H265.994L256.985 173.829ZM255.652 158.701H276.523V165.758H255.652V158.701Z" fill="#F47114"/>
<path d="M567.313 120.834V82.395H589.611V85.5482H570.823V100.019H588.428V103.172H570.823V117.68H589.986V120.834H567.313Z" fill="#F47114"/>
<path d="M559.069 94.407H555.54C555.278 93.0932 554.802 91.8795 554.114 90.7659C553.438 89.6398 552.587 88.6575 551.561 87.8192C550.535 86.9808 549.372 86.3302 548.07 85.8672C546.769 85.4043 545.361 85.1728 543.847 85.1728C541.42 85.1728 539.205 85.8047 537.203 87.0684C535.214 88.3322 533.618 90.1903 532.417 92.6428C531.229 95.0827 530.634 98.0732 530.634 101.614C530.634 105.18 531.229 108.183 532.417 110.623C533.618 113.063 535.214 114.915 537.203 116.179C539.205 117.43 541.42 118.056 543.847 118.056C545.361 118.056 546.769 117.824 548.07 117.361C549.372 116.898 550.535 116.254 551.561 115.428C552.587 114.59 553.438 113.608 554.114 112.481C554.802 111.355 555.278 110.135 555.54 108.821H559.069C558.756 110.586 558.168 112.231 557.305 113.758C556.454 115.272 555.365 116.598 554.039 117.737C552.725 118.875 551.211 119.764 549.497 120.402C547.783 121.04 545.9 121.359 543.847 121.359C540.619 121.359 537.754 120.552 535.251 118.938C532.749 117.311 530.784 115.021 529.358 112.068C527.944 109.116 527.237 105.631 527.237 101.614C527.237 97.5977 527.944 94.113 529.358 91.16C530.784 88.2071 532.749 85.9235 535.251 84.3094C537.754 82.6828 540.619 81.8695 543.847 81.8695C545.9 81.8695 547.783 82.1885 549.497 82.8267C551.211 83.4523 552.725 84.3407 554.039 85.4919C555.365 86.6305 556.454 87.9568 557.305 89.4708C558.168 90.9849 558.756 92.6303 559.069 94.407Z" fill="#F47114"/>
<path d="M518.744 82.395V120.834H515.328L492.618 88.645H492.318V120.834H488.808V82.395H492.205L514.99 114.621H515.291V82.395H518.744Z" fill="#F47114"/>
<path d="M457.426 120.834V82.395H479.724V85.5482H460.936V100.019H478.541V103.172H460.936V117.68H480.099V120.834H457.426Z" fill="#F47114"/>
<path d="M427.697 120.834V82.395H431.206V117.68H449.525V120.834H427.697Z" fill="#F47114"/>
<path d="M397.967 120.834V82.395H401.477V117.68H419.795V120.834H397.967Z" fill="#F47114"/>
<path d="M366.585 120.834V82.395H388.883V85.5482H370.095V100.019H387.7V103.172H370.095V117.68H389.258V120.834H366.585Z" fill="#F47114"/>
<path d="M358.341 94.407H354.813C354.55 93.0932 354.074 91.8795 353.386 90.7659C352.711 89.6398 351.86 88.6575 350.834 87.8192C349.808 86.9808 348.644 86.3302 347.343 85.8672C346.041 85.4043 344.634 85.1728 343.12 85.1728C340.692 85.1728 338.478 85.8047 336.476 87.0684C334.486 88.3322 332.891 90.1903 331.689 92.6428C330.501 95.0827 329.906 98.0732 329.906 101.614C329.906 105.18 330.501 108.183 331.689 110.623C332.891 113.063 334.486 114.915 336.476 116.179C338.478 117.43 340.692 118.056 343.12 118.056C344.634 118.056 346.041 117.824 347.343 117.361C348.644 116.898 349.808 116.254 350.834 115.428C351.86 114.59 352.711 113.608 353.386 112.481C354.074 111.355 354.55 110.135 354.813 108.821H358.341C358.028 110.586 357.44 112.231 356.577 113.758C355.726 115.272 354.637 116.598 353.311 117.737C351.997 118.875 350.483 119.764 348.769 120.402C347.055 121.04 345.172 121.359 343.12 121.359C339.891 121.359 337.026 120.552 334.524 118.938C332.021 117.311 330.057 115.021 328.63 112.068C327.216 109.116 326.509 105.631 326.509 101.614C326.509 97.5977 327.216 94.113 328.63 91.16C330.057 88.2071 332.021 85.9235 334.524 84.3094C337.026 82.6828 339.891 81.8695 343.12 81.8695C345.172 81.8695 347.055 82.1885 348.769 82.8267C350.483 83.4523 351.997 84.3407 353.311 85.4919C354.637 86.6305 355.726 87.9568 356.577 89.4708C357.44 90.9849 358.028 92.6303 358.341 94.407Z" fill="#F47114"/>
<path d="M296.423 82.395L303.442 94.5384H303.743L310.837 82.395H321.235L309.636 101.614L321.61 120.834H310.95L303.743 108.559H303.442L296.235 120.834H285.649L297.568 101.614L285.95 82.395H296.423Z" fill="#F47114"/>
<path d="M271.925 82.395H281.196V107.189C281.196 110.054 280.515 112.55 279.151 114.677C277.787 116.792 275.885 118.431 273.445 119.595C271.005 120.746 268.171 121.322 264.943 121.322C261.677 121.322 258.824 120.746 256.384 119.595C253.944 118.431 252.049 116.792 250.697 114.677C249.346 112.55 248.67 110.054 248.67 107.189V82.395H257.961V106.382C257.961 107.708 258.249 108.89 258.824 109.929C259.412 110.967 260.232 111.781 261.283 112.369C262.334 112.957 263.554 113.251 264.943 113.251C266.332 113.251 267.545 112.957 268.584 112.369C269.635 111.781 270.454 110.967 271.043 109.929C271.631 108.89 271.925 107.708 271.925 106.382V82.395Z" fill="#F47114"/>
<path d="M389.038 67.8382V29.3997H401.444C404.172 29.3997 406.449 29.8939 408.276 30.8824C410.115 31.8584 411.498 33.216 412.424 34.9553C413.362 36.682 413.831 38.6652 413.831 40.905C413.831 43.1447 413.362 45.1217 412.424 46.8359C411.498 48.5501 410.121 49.889 408.294 50.8524C406.468 51.8159 404.203 52.2976 401.5 52.2976H390.933V49.0882H401.406C403.408 49.0882 405.072 48.7566 406.399 48.0934C407.738 47.4302 408.732 46.4856 409.383 45.2593C410.046 44.0331 410.378 42.5816 410.378 40.905C410.378 39.2283 410.046 37.7643 409.383 36.5131C408.72 35.2493 407.719 34.2733 406.38 33.5851C405.054 32.8969 403.377 32.5528 401.35 32.5528H392.547V67.8382H389.038ZM405.986 50.4958L415.445 67.8382H411.391L402.026 50.4958H405.986Z" fill="#F47114"/>
<path d="M357.656 67.8382V29.3997H379.954V32.5528H361.166V47.0236H378.771V50.1768H361.166V64.685H380.329V67.8382H357.656Z" fill="#F47114"/>
<path d="M323.436 67.8382V29.3997H336.405C338.908 29.3997 340.991 29.8376 342.655 30.7135C344.332 31.5894 345.589 32.7843 346.428 34.2983C347.266 35.8124 347.685 37.5328 347.685 39.4598C347.685 41.0614 347.416 42.4315 346.878 43.5701C346.34 44.7088 345.608 45.6284 344.682 46.3291C343.756 47.0298 342.724 47.5366 341.585 47.8494V48.1497C342.824 48.2373 344.025 48.6752 345.189 49.4635C346.352 50.2393 347.31 51.3279 348.06 52.7293C348.811 54.1307 349.187 55.8074 349.187 57.7593C349.187 59.6988 348.755 61.4318 347.892 62.9583C347.028 64.4723 345.702 65.6673 343.913 66.5431C342.136 67.4065 339.871 67.8382 337.118 67.8382H323.436ZM326.946 64.685H337.118C340.084 64.685 342.273 64.0281 343.687 62.7143C345.114 61.4005 345.827 59.7488 345.827 57.7593C345.827 56.2954 345.47 54.969 344.757 53.7804C344.056 52.5792 343.062 51.6282 341.773 50.9275C340.497 50.2268 338.995 49.8764 337.268 49.8764H326.946V64.685ZM326.946 46.7608H336.724C338.238 46.7608 339.564 46.448 340.703 45.8224C341.842 45.1968 342.73 44.3334 343.368 43.2323C344.006 42.1312 344.325 40.8737 344.325 39.4598C344.325 37.4202 343.662 35.7623 342.336 34.486C341.01 33.1972 339.033 32.5528 336.405 32.5528H326.946V46.7608Z" fill="#F47114"/>
<path d="M285.612 29.3997H289.666L301.059 47.643H301.397L312.79 29.3997H316.844L302.973 51.1903V67.8382H299.482V51.1903L285.612 29.3997Z" fill="#F47114"/>
<path d="M280.972 41.4117H277.443C277.18 40.0979 276.705 38.8842 276.017 37.7706C275.341 36.6444 274.49 35.6622 273.464 34.8239C272.438 33.9855 271.274 33.3349 269.973 32.8719C268.672 32.4089 267.264 32.1775 265.75 32.1775C263.323 32.1775 261.108 32.8093 259.106 34.0731C257.116 35.3369 255.521 37.195 254.32 39.6474C253.131 42.0874 252.537 45.0779 252.537 48.6189C252.537 52.185 253.131 55.188 254.32 57.6279C255.521 60.0679 257.116 61.9197 259.106 63.1835C261.108 64.4348 263.323 65.0604 265.75 65.0604C267.264 65.0604 268.672 64.8289 269.973 64.3659C271.274 63.903 272.438 63.2586 273.464 62.4328C274.49 61.5944 275.341 60.6122 276.017 59.4861C276.705 58.3599 277.18 57.14 277.443 55.8261H280.972C280.659 57.5904 280.071 59.2358 279.207 60.7623C278.356 62.2764 277.268 63.6027 275.941 64.7413C274.628 65.88 273.114 66.7684 271.399 67.4065C269.685 68.0446 267.802 68.3637 265.75 68.3637C262.522 68.3637 259.656 67.5566 257.154 65.9425C254.651 64.3159 252.687 62.0261 251.261 59.0731C249.847 56.1202 249.14 52.6354 249.14 48.6189C249.14 44.6024 249.847 41.1177 251.261 38.1647C252.687 35.2117 254.651 32.9282 257.154 31.3141C259.656 29.6875 262.522 28.8741 265.75 28.8741C267.802 28.8741 269.685 29.1932 271.399 29.8314C273.114 30.457 274.628 31.3454 275.941 32.4965C277.268 33.6352 278.356 34.9615 279.207 36.4755C280.071 37.9895 280.659 39.6349 280.972 41.4117Z" fill="#F47114"/>
<path d="M543.924 229.587V207.563H546.462V215.693H546.677C546.864 215.407 547.122 215.041 547.452 214.596C547.789 214.145 548.269 213.743 548.893 213.392C549.524 213.034 550.377 212.854 551.452 212.854C552.843 212.854 554.069 213.202 555.13 213.897C556.191 214.593 557.019 215.579 557.614 216.855C558.209 218.131 558.507 219.636 558.507 221.371C558.507 223.121 558.209 224.637 557.614 225.92C557.019 227.196 556.195 228.186 555.141 228.888C554.087 229.584 552.872 229.932 551.495 229.932C550.434 229.932 549.584 229.756 548.946 229.405C548.308 229.046 547.817 228.641 547.473 228.189C547.129 227.731 546.864 227.351 546.677 227.05H546.376V229.587H543.924ZM546.419 221.328C546.419 222.576 546.602 223.676 546.968 224.63C547.333 225.576 547.867 226.318 548.57 226.856C549.273 227.386 550.133 227.652 551.151 227.652C552.212 227.652 553.097 227.372 553.807 226.813C554.524 226.247 555.062 225.487 555.42 224.533C555.786 223.572 555.969 222.504 555.969 221.328C555.969 220.167 555.789 219.12 555.431 218.188C555.08 217.249 554.546 216.507 553.829 215.962C553.119 215.41 552.226 215.134 551.151 215.134C550.119 215.134 549.251 215.396 548.549 215.919C547.846 216.435 547.315 217.159 546.957 218.091C546.598 219.016 546.419 220.095 546.419 221.328Z" fill="#F47114"/>
<path d="M536.394 222.834V213.069H538.932V229.587H536.394V226.791H536.222C535.835 227.63 535.232 228.344 534.415 228.931C533.598 229.512 532.566 229.803 531.318 229.803C530.286 229.803 529.368 229.577 528.565 229.125C527.762 228.666 527.131 227.978 526.672 227.06C526.214 226.135 525.984 224.97 525.984 223.565V213.069H528.522V223.393C528.522 224.598 528.859 225.558 529.533 226.275C530.214 226.992 531.081 227.351 532.135 227.351C532.766 227.351 533.408 227.189 534.06 226.867C534.72 226.544 535.272 226.049 535.716 225.383C536.168 224.716 536.394 223.866 536.394 222.834Z" fill="#F47114"/>
<path d="M514.717 229.587V213.069H517.169V215.564H517.341C517.642 214.747 518.187 214.084 518.975 213.575C519.764 213.066 520.653 212.811 521.642 212.811C521.829 212.811 522.062 212.815 522.341 212.822C522.621 212.829 522.832 212.84 522.976 212.854V215.435C522.89 215.414 522.693 215.381 522.384 215.338C522.083 215.288 521.764 215.263 521.427 215.263C520.624 215.263 519.907 215.432 519.276 215.769C518.653 216.098 518.158 216.557 517.792 217.145C517.434 217.726 517.255 218.389 517.255 219.135V229.587H514.717Z" fill="#F47114"/>
<path d="M502.93 236.126C501.705 236.126 500.651 235.968 499.769 235.653C498.887 235.344 498.152 234.936 497.564 234.427C496.984 233.925 496.521 233.387 496.177 232.814L498.199 231.394C498.428 231.695 498.719 232.039 499.07 232.426C499.421 232.821 499.901 233.161 500.511 233.448C501.127 233.742 501.934 233.889 502.93 233.889C504.264 233.889 505.364 233.566 506.232 232.921C507.099 232.276 507.533 231.265 507.533 229.889V226.533H507.318C507.132 226.834 506.866 227.207 506.522 227.652C506.185 228.089 505.698 228.48 505.06 228.824C504.429 229.161 503.576 229.329 502.5 229.329C501.167 229.329 499.97 229.014 498.909 228.383C497.855 227.752 497.019 226.834 496.403 225.63C495.793 224.426 495.489 222.963 495.489 221.242C495.489 219.55 495.786 218.077 496.381 216.823C496.976 215.561 497.804 214.586 498.865 213.897C499.927 213.202 501.152 212.854 502.543 212.854C503.619 212.854 504.472 213.034 505.103 213.392C505.741 213.743 506.228 214.145 506.565 214.596C506.909 215.041 507.175 215.407 507.361 215.693H507.619V213.069H510.071V230.061C510.071 231.48 509.748 232.634 509.103 233.523C508.465 234.42 507.605 235.075 506.522 235.491C505.447 235.914 504.25 236.126 502.93 236.126ZM502.844 227.049C503.862 227.049 504.723 226.816 505.425 226.35C506.128 225.884 506.662 225.214 507.028 224.339C507.393 223.465 507.576 222.418 507.576 221.199C507.576 220.009 507.397 218.959 507.038 218.048C506.68 217.138 506.149 216.425 505.447 215.908C504.744 215.392 503.877 215.134 502.844 215.134C501.769 215.134 500.873 215.407 500.156 215.951C499.446 216.496 498.912 217.228 498.554 218.145C498.202 219.063 498.027 220.081 498.027 221.199C498.027 222.346 498.206 223.361 498.564 224.243C498.93 225.117 499.468 225.806 500.177 226.307C500.894 226.802 501.783 227.049 502.844 227.049Z" fill="#F47114"/>
<path d="M483.692 229.932C482.315 229.932 481.1 229.584 480.046 228.888C478.992 228.186 478.168 227.196 477.573 225.92C476.978 224.637 476.68 223.121 476.68 221.371C476.68 219.636 476.978 218.131 477.573 216.855C478.168 215.579 478.996 214.593 480.057 213.897C481.118 213.202 482.344 212.854 483.735 212.854C484.81 212.854 485.66 213.034 486.283 213.392C486.914 213.743 487.395 214.145 487.724 214.596C488.061 215.041 488.323 215.407 488.509 215.693H488.725V207.563H491.262V229.587H488.811V227.05H488.509C488.323 227.351 488.058 227.731 487.714 228.189C487.37 228.641 486.878 229.046 486.24 229.405C485.602 229.756 484.753 229.932 483.692 229.932ZM484.036 227.652C485.054 227.652 485.914 227.386 486.617 226.856C487.319 226.318 487.853 225.576 488.219 224.63C488.585 223.676 488.768 222.576 488.768 221.328C488.768 220.095 488.588 219.016 488.23 218.091C487.871 217.159 487.341 216.435 486.638 215.919C485.936 215.396 485.068 215.134 484.036 215.134C482.96 215.134 482.064 215.41 481.347 215.962C480.638 216.507 480.103 217.249 479.745 218.188C479.394 219.12 479.218 220.167 479.218 221.328C479.218 222.504 479.397 223.572 479.756 224.533C480.121 225.487 480.659 226.247 481.369 226.813C482.086 227.372 482.975 227.652 484.036 227.652Z" fill="#F47114"/>
<path d="M462.278 219.651V229.587H459.74V213.069H462.192V215.65H462.407C462.794 214.812 463.382 214.138 464.171 213.629C464.959 213.112 465.977 212.854 467.225 212.854C468.343 212.854 469.322 213.084 470.161 213.543C470.999 213.994 471.652 214.682 472.118 215.607C472.584 216.525 472.817 217.686 472.817 219.092V229.587H470.279V219.264C470.279 217.966 469.942 216.955 469.268 216.231C468.594 215.5 467.669 215.134 466.493 215.134C465.683 215.134 464.959 215.31 464.321 215.661C463.69 216.012 463.192 216.525 462.826 217.199C462.461 217.873 462.278 218.69 462.278 219.651Z" fill="#F47114"/>
<path d="M452.554 229.587V213.069H455.091V229.587H452.554ZM453.844 210.316C453.349 210.316 452.923 210.148 452.564 209.811C452.213 209.474 452.037 209.069 452.037 208.596C452.037 208.123 452.213 207.718 452.564 207.381C452.923 207.044 453.349 206.875 453.844 206.875C454.339 206.875 454.762 207.044 455.113 207.381C455.471 207.718 455.651 208.123 455.651 208.596C455.651 209.069 455.471 209.474 455.113 209.811C454.762 210.148 454.339 210.316 453.844 210.316Z" fill="#F47114"/>
<path d="M425.957 207.563H429.14L436.624 225.845H436.883L444.367 207.563H447.55V229.587H445.056V212.854H444.84L437.958 229.587H435.549L428.667 212.854H428.451V229.587H425.957V207.563Z" fill="#F47114"/>
<path d="M401.873 235.782C401.443 235.782 401.06 235.746 400.723 235.674C400.386 235.61 400.153 235.545 400.024 235.481L400.669 233.244C401.285 233.401 401.83 233.459 402.303 233.416C402.777 233.373 403.196 233.161 403.562 232.781C403.934 232.409 404.275 231.803 404.583 230.964L405.056 229.673L398.948 213.069H401.701L406.261 226.232H406.433L410.993 213.069H413.746L406.734 231.996C406.419 232.849 406.028 233.556 405.562 234.115C405.096 234.681 404.555 235.101 403.938 235.373C403.329 235.645 402.64 235.782 401.873 235.782Z" fill="#F47114"/>
<path d="M382.365 229.587V207.563H384.903V215.693H385.118C385.305 215.407 385.563 215.041 385.893 214.596C386.23 214.145 386.71 213.743 387.334 213.392C387.965 213.034 388.818 212.854 389.893 212.854C391.284 212.854 392.51 213.202 393.571 213.897C394.632 214.593 395.46 215.579 396.055 216.855C396.65 218.131 396.948 219.636 396.948 221.371C396.948 223.121 396.65 224.637 396.055 225.92C395.46 227.196 394.636 228.186 393.582 228.888C392.528 229.584 391.313 229.932 389.936 229.932C388.875 229.932 388.026 229.756 387.388 229.405C386.749 229.046 386.258 228.641 385.914 228.189C385.57 227.731 385.305 227.351 385.118 227.05H384.817V229.587H382.365ZM384.86 221.328C384.86 222.576 385.043 223.676 385.409 224.63C385.774 225.576 386.309 226.318 387.011 226.856C387.714 227.386 388.574 227.652 389.592 227.652C390.653 227.652 391.539 227.372 392.248 226.813C392.965 226.247 393.503 225.487 393.861 224.533C394.227 223.572 394.41 222.504 394.41 221.328C394.41 220.167 394.231 219.12 393.872 218.188C393.521 217.249 392.987 216.507 392.27 215.962C391.56 215.41 390.668 215.134 389.592 215.134C388.56 215.134 387.692 215.396 386.99 215.919C386.287 216.435 385.757 217.159 385.398 218.091C385.04 219.016 384.86 220.095 384.86 221.328Z" fill="#F47114"/>
<path d="M360.933 229.932C359.556 229.932 358.341 229.584 357.287 228.888C356.233 228.186 355.409 227.196 354.814 225.92C354.219 224.637 353.921 223.121 353.921 221.371C353.921 219.636 354.219 218.131 354.814 216.855C355.409 215.579 356.237 214.593 357.298 213.897C358.359 213.202 359.585 212.854 360.976 212.854C362.051 212.854 362.901 213.034 363.525 213.392C364.156 213.743 364.636 214.145 364.966 214.596C365.303 215.041 365.564 215.407 365.751 215.693H365.966V207.563H368.504V229.587H366.052V227.05H365.751C365.564 227.351 365.299 227.731 364.955 228.189C364.611 228.641 364.12 229.046 363.482 229.405C362.844 229.756 361.994 229.932 360.933 229.932ZM361.277 227.652C362.295 227.652 363.155 227.386 363.858 226.856C364.561 226.318 365.095 225.576 365.46 224.63C365.826 223.676 366.009 222.576 366.009 221.328C366.009 220.095 365.83 219.016 365.471 218.091C365.113 217.159 364.582 216.435 363.88 215.919C363.177 215.396 362.309 215.134 361.277 215.134C360.202 215.134 359.306 215.41 358.589 215.962C357.879 216.507 357.345 217.249 356.986 218.188C356.635 219.12 356.459 220.167 356.459 221.328C356.459 222.504 356.639 223.572 356.997 224.533C357.363 225.487 357.9 226.247 358.61 226.813C359.327 227.372 360.216 227.652 361.277 227.652Z" fill="#F47114"/>
<path d="M343.995 229.932C342.404 229.932 341.031 229.58 339.877 228.878C338.73 228.168 337.844 227.179 337.22 225.91C336.604 224.633 336.296 223.149 336.296 221.457C336.296 219.765 336.604 218.274 337.22 216.984C337.844 215.686 338.712 214.675 339.823 213.951C340.941 213.22 342.246 212.854 343.737 212.854C344.598 212.854 345.447 212.998 346.286 213.284C347.125 213.571 347.888 214.037 348.577 214.682C349.265 215.321 349.813 216.167 350.222 217.22C350.631 218.274 350.835 219.572 350.835 221.113V222.189H338.102V219.995H348.254C348.254 219.063 348.068 218.231 347.695 217.5C347.329 216.769 346.806 216.192 346.125 215.769C345.451 215.346 344.655 215.134 343.737 215.134C342.727 215.134 341.852 215.385 341.113 215.887C340.382 216.382 339.819 217.027 339.425 217.823C339.031 218.618 338.834 219.472 338.834 220.382V221.845C338.834 223.092 339.049 224.15 339.479 225.017C339.916 225.877 340.522 226.533 341.296 226.985C342.071 227.429 342.97 227.652 343.995 227.652C344.662 227.652 345.264 227.559 345.802 227.372C346.347 227.179 346.817 226.892 347.211 226.512C347.605 226.125 347.91 225.644 348.125 225.071L350.577 225.759C350.319 226.591 349.885 227.322 349.276 227.953C348.666 228.577 347.913 229.064 347.017 229.415C346.121 229.759 345.114 229.932 343.995 229.932Z" fill="#F47114"/>
<path d="M326.305 229.587V213.069H328.757V215.564H328.929C329.23 214.747 329.775 214.084 330.564 213.575C331.353 213.066 332.242 212.811 333.231 212.811C333.417 212.811 333.65 212.815 333.93 212.822C334.21 212.829 334.421 212.84 334.564 212.854V215.435C334.478 215.414 334.281 215.381 333.973 215.338C333.672 215.288 333.353 215.263 333.016 215.263C332.213 215.263 331.496 215.432 330.865 215.769C330.241 216.098 329.747 216.557 329.381 217.145C329.023 217.726 328.843 218.389 328.843 219.135V229.587H326.305Z" fill="#F47114"/>
<path d="M315.605 229.932C314.013 229.932 312.641 229.58 311.486 228.878C310.339 228.168 309.454 227.179 308.83 225.91C308.214 224.633 307.905 223.149 307.905 221.457C307.905 219.765 308.214 218.274 308.83 216.984C309.454 215.686 310.321 214.675 311.433 213.951C312.551 213.22 313.856 212.854 315.347 212.854C316.207 212.854 317.057 212.998 317.896 213.284C318.734 213.571 319.498 214.037 320.186 214.682C320.875 215.321 321.423 216.167 321.832 217.22C322.24 218.274 322.445 219.572 322.445 221.113V222.189H309.712V219.995H319.864C319.864 219.063 319.677 218.231 319.304 217.5C318.939 216.769 318.415 216.192 317.734 215.769C317.06 215.346 316.265 215.134 315.347 215.134C314.336 215.134 313.461 215.385 312.723 215.887C311.992 216.382 311.429 217.027 311.035 217.823C310.64 218.618 310.443 219.472 310.443 220.382V221.845C310.443 223.092 310.658 224.15 311.088 225.017C311.526 225.877 312.132 226.533 312.906 226.985C313.68 227.429 314.58 227.652 315.605 227.652C316.272 227.652 316.874 227.559 317.412 227.372C317.957 227.179 318.426 226.892 318.821 226.512C319.215 226.125 319.52 225.644 319.735 225.071L322.186 225.759C321.928 226.591 321.495 227.322 320.885 227.953C320.276 228.577 319.523 229.064 318.627 229.415C317.731 229.759 316.723 229.932 315.605 229.932Z" fill="#F47114"/>
<path d="M288.379 229.587L283.346 213.069H286.013L289.583 225.716H289.756L293.283 213.069H295.993L299.477 225.673H299.649L303.219 213.069H305.886L300.854 229.587H298.359L294.745 216.898H294.487L290.874 229.587H288.379Z" fill="#F47114"/>
<path d="M273.839 229.932C272.348 229.932 271.04 229.577 269.914 228.867C268.796 228.157 267.921 227.164 267.29 225.888C266.667 224.612 266.355 223.121 266.355 221.414C266.355 219.694 266.667 218.192 267.29 216.909C267.921 215.625 268.796 214.629 269.914 213.919C271.04 213.209 272.348 212.854 273.839 212.854C275.331 212.854 276.635 213.209 277.754 213.919C278.879 214.629 279.754 215.625 280.378 216.909C281.009 218.192 281.324 219.694 281.324 221.414C281.324 223.121 281.009 224.612 280.378 225.888C279.754 227.164 278.879 228.157 277.754 228.867C276.635 229.577 275.331 229.932 273.839 229.932ZM273.839 227.652C274.972 227.652 275.904 227.361 276.635 226.781C277.367 226.2 277.908 225.436 278.259 224.49C278.611 223.544 278.786 222.518 278.786 221.414C278.786 220.31 278.611 219.282 278.259 218.328C277.908 217.375 277.367 216.604 276.635 216.016C275.904 215.428 274.972 215.134 273.839 215.134C272.707 215.134 271.775 215.428 271.043 216.016C270.312 216.604 269.771 217.375 269.42 218.328C269.068 219.282 268.893 220.31 268.893 221.414C268.893 222.518 269.068 223.544 269.42 224.49C269.771 225.436 270.312 226.2 271.043 226.781C271.775 227.361 272.707 227.652 273.839 227.652Z" fill="#F47114"/>
<path d="M248.428 229.587V207.563H255.87C257.598 207.563 259.01 207.875 260.107 208.499C261.211 209.116 262.028 209.951 262.559 211.005C263.089 212.059 263.355 213.234 263.355 214.532C263.355 215.83 263.089 217.009 262.559 218.07C262.036 219.131 261.225 219.977 260.128 220.608C259.032 221.232 257.626 221.543 255.913 221.543H250.579V219.178H255.827C257.01 219.178 257.96 218.973 258.677 218.565C259.394 218.156 259.913 217.604 260.236 216.909C260.566 216.206 260.731 215.414 260.731 214.532C260.731 213.65 260.566 212.861 260.236 212.166C259.913 211.471 259.39 210.926 258.666 210.531C257.942 210.13 256.981 209.929 255.784 209.929H251.095V229.587H248.428Z" fill="#F47114"/>
<defs>
<linearGradient id="paint0_linear_230_7811" x1="18.6332" y1="14.9879" x2="221.348" y2="162.47" gradientUnits="userSpaceOnUse">
<stop stop-color="#F47114"/>
<stop offset="0.5" stop-color="#D12C31"/>
<stop offset="1" stop-color="#F47114"/>
</linearGradient>
</defs>
</svg>
