<svg width="272" height="165" viewBox="0 0 272 165" fill="none" xmlns="http://www.w3.org/2000/svg">
<path d="M178.712 93.5496C178.613 92.4587 178.172 91.6109 177.388 91.006C176.615 90.3912 175.509 90.0838 174.071 90.0838C173.119 90.0838 172.326 90.2077 171.691 90.4556C171.057 90.7035 170.581 91.0457 170.263 91.482C169.946 91.9084 169.782 92.3993 169.772 92.9546C169.753 93.4107 169.842 93.8123 170.04 94.1594C170.248 94.5065 170.546 94.8139 170.933 95.0817C171.329 95.3395 171.805 95.5676 172.361 95.7659C172.916 95.9642 173.541 96.1378 174.235 96.2865L176.853 96.8815C178.36 97.2087 179.689 97.6451 180.839 98.1905C181.999 98.7359 182.971 99.3854 183.755 100.139C184.548 100.893 185.148 101.76 185.554 102.742C185.961 103.724 186.169 104.825 186.179 106.044C186.169 107.968 185.683 109.619 184.721 110.998C183.76 112.376 182.376 113.432 180.571 114.166C178.777 114.9 176.61 115.267 174.071 115.267C171.523 115.267 169.301 114.885 167.407 114.121C165.513 113.358 164.041 112.197 162.99 110.641C161.938 109.084 161.398 107.115 161.368 104.735H168.419C168.478 105.717 168.741 106.535 169.207 107.19C169.673 107.844 170.313 108.34 171.126 108.677C171.949 109.014 172.901 109.183 173.982 109.183C174.974 109.183 175.816 109.049 176.511 108.781C177.215 108.514 177.755 108.142 178.132 107.666C178.509 107.19 178.702 106.644 178.712 106.029C178.702 105.454 178.524 104.963 178.177 104.557C177.829 104.14 177.294 103.783 176.57 103.486C175.856 103.178 174.944 102.896 173.833 102.638L170.65 101.894C168.012 101.289 165.935 100.313 164.417 98.964C162.9 97.6054 162.147 95.7708 162.157 93.4603C162.147 91.5762 162.652 89.9251 163.674 88.507C164.695 87.089 166.108 85.9833 167.913 85.19C169.718 84.3967 171.775 84 174.086 84C176.446 84 178.494 84.4016 180.229 85.2048C181.975 85.9982 183.328 87.1138 184.29 88.5517C185.252 89.9896 185.743 91.6555 185.763 93.5496H178.712Z" fill="white"/>
<path d="M142.909 114.88H131.648V84.4165H142.894C145.998 84.4165 148.67 85.0264 150.911 86.2461C153.162 87.4559 154.898 89.2012 156.117 91.482C157.337 93.7529 157.947 96.47 157.947 99.6333C157.947 102.807 157.337 105.534 156.117 107.814C154.908 110.095 153.177 111.845 150.926 113.065C148.675 114.275 146.003 114.88 142.909 114.88ZM139.011 108.603H142.626C144.332 108.603 145.774 108.315 146.955 107.74C148.144 107.155 149.042 106.208 149.647 104.899C150.262 103.58 150.569 101.825 150.569 99.6333C150.569 97.4418 150.262 95.6965 149.647 94.3974C149.032 93.0884 148.125 92.1464 146.925 91.5712C145.735 90.9862 144.267 90.6936 142.522 90.6936H139.011V108.603Z" fill="white"/>
<path d="M103.915 114.88V84.4165H116.499C118.779 84.4165 120.748 84.828 122.404 85.6511C124.07 86.4643 125.354 87.6344 126.256 89.1615C127.159 90.6787 127.61 92.4786 127.61 94.5611C127.61 96.6733 127.149 98.4681 126.227 99.9457C125.304 101.413 123.995 102.534 122.3 103.307C120.604 104.071 118.596 104.453 116.275 104.453H108.317V98.6516H114.907C116.018 98.6516 116.945 98.5078 117.689 98.2202C118.442 97.9227 119.012 97.4765 119.399 96.8815C119.786 96.2766 119.979 95.5031 119.979 94.5611C119.979 93.619 119.786 92.8405 119.399 92.2257C119.012 91.601 118.442 91.1349 117.689 90.8275C116.935 90.5102 116.008 90.3515 114.907 90.3515H111.278V114.88H103.915ZM121.065 100.957L128.651 114.88H120.619L113.181 100.957H121.065Z" fill="white"/>
<path d="M78.1887 114.88H70.2754L80.5538 84.4165H90.3562L100.635 114.88H92.7213L85.5666 92.0919H85.3286L78.1887 114.88ZM77.1326 102.891H93.6733V108.484H77.1326V102.891Z" fill="white"/>
<path d="M37.6292 114.88L28.7639 84.4165H36.9004L41.4967 104.378H41.7495L47.0003 84.4165H53.6344L58.8852 104.423H59.1381L63.7492 84.4165H71.8708L63.0204 114.88H55.9251L50.4364 96.4055H50.1984L44.7096 114.88H37.6292Z" fill="white"/>
<path d="M7.91334 114.88H0L10.2784 84.4165H20.0808L30.3593 114.88H22.4459L15.2912 92.0919H15.0532L7.91334 114.88ZM6.85724 102.891H23.3979V108.484H6.85724V102.891Z" fill="white"/>
<path d="M253.855 72.8799V42.4165H271.527V44.9155H256.637V56.3838H270.59V58.8828H256.637V70.3809H271.824V72.8799H253.855Z" fill="white"/>
<path d="M247.322 51.9363H244.525C244.317 50.8951 243.94 49.9332 243.395 49.0506C242.859 48.1581 242.185 47.3797 241.372 46.7153C240.559 46.0509 239.636 45.5352 238.605 45.1683C237.574 44.8014 236.458 44.6179 235.258 44.6179C233.335 44.6179 231.579 45.1187 229.993 46.1203C228.416 47.1219 227.152 48.5944 226.2 50.5381C225.258 52.4718 224.787 54.8418 224.787 57.6482C224.787 60.4744 225.258 62.8543 226.2 64.788C227.152 66.7218 228.416 68.1894 229.993 69.191C231.579 70.1826 233.335 70.6784 235.258 70.6784C236.458 70.6784 237.574 70.495 238.605 70.1281C239.636 69.7611 240.559 69.2505 241.372 68.596C242.185 67.9316 242.859 67.1531 243.395 66.2606C243.94 65.3682 244.317 64.4013 244.525 63.3601H247.322C247.074 64.7583 246.608 66.0623 245.924 67.2721C245.249 68.472 244.386 69.5232 243.335 70.4256C242.294 71.328 241.094 72.032 239.736 72.5378C238.377 73.0435 236.885 73.2964 235.258 73.2964C232.7 73.2964 230.429 72.6568 228.446 71.3775C226.462 70.0884 224.906 68.2737 223.775 65.9334C222.655 63.5931 222.094 60.8314 222.094 57.6482C222.094 54.465 222.655 51.7033 223.775 49.363C224.906 47.0227 226.462 45.2129 228.446 43.9337C230.429 42.6446 232.7 42 235.258 42C236.885 42 238.377 42.2529 239.736 42.7586C241.094 43.2544 242.294 43.9585 243.335 44.8708C244.386 45.7732 245.249 46.8244 245.924 48.0243C246.608 49.2241 247.074 50.5282 247.322 51.9363Z" fill="white"/>
<path d="M215.363 42.4165V72.8799H212.656L194.658 47.3698H194.42V72.8799H191.638V42.4165H194.331L212.388 67.9564H212.626V42.4165H215.363Z" fill="white"/>
<path d="M166.768 72.8799V42.4165H184.439V44.9155H169.549V56.3838H183.502V58.8828H169.549V70.3809H184.736V72.8799H166.768Z" fill="white"/>
<path d="M143.206 72.8799V42.4165H145.988V70.3809H160.505V72.8799H143.206Z" fill="white"/>
<path d="M119.645 72.8799V42.4165H122.426V70.3809H136.944V72.8799H119.645Z" fill="white"/>
<path d="M94.7742 72.8799V42.4165H112.445V44.9155H97.5557V56.3838H111.508V58.8828H97.5557V70.3809H112.743V72.8799H94.7742Z" fill="white"/>
<path d="M88.2404 51.9363H85.444C85.2357 50.8951 84.8589 49.9332 84.3135 49.0506C83.778 48.1581 83.1037 47.3797 82.2906 46.7153C81.4774 46.0509 80.5552 45.5352 79.5239 45.1683C78.4925 44.8014 77.3769 44.6179 76.1771 44.6179C74.2533 44.6179 72.498 45.1187 70.9114 46.1203C69.3347 47.1219 68.0703 48.5944 67.1184 50.5381C66.1763 52.4718 65.7053 54.8418 65.7053 57.6482C65.7053 60.4744 66.1763 62.8543 67.1184 64.788C68.0703 66.7218 69.3347 68.1894 70.9114 69.191C72.498 70.1826 74.2533 70.6784 76.1771 70.6784C77.3769 70.6784 78.4925 70.495 79.5239 70.1281C80.5552 69.7611 81.4774 69.2505 82.2906 68.596C83.1037 67.9316 83.778 67.1531 84.3135 66.2606C84.8589 65.3682 85.2357 64.4013 85.444 63.3601H88.2404C87.9925 64.7583 87.5264 66.0623 86.8422 67.2721C86.1679 68.472 85.3052 69.5232 84.254 70.4256C83.2128 71.328 82.0129 72.032 80.6543 72.5378C79.2958 73.0435 77.8034 73.2964 76.1771 73.2964C73.6186 73.2964 71.3477 72.6568 69.3644 71.3775C67.3811 70.0884 65.8243 68.2737 64.6938 65.9334C63.5732 63.5931 63.0129 60.8314 63.0129 57.6482C63.0129 54.465 63.5732 51.7033 64.6938 49.363C65.8243 47.0227 67.3811 45.2129 69.3644 43.9337C71.3477 42.6446 73.6186 42 76.1771 42C77.8034 42 79.2958 42.2529 80.6543 42.7586C82.0129 43.2544 83.2128 43.9585 84.254 44.8708C85.3052 45.7732 86.1679 46.8244 86.8422 48.0243C87.5264 49.2241 87.9925 50.5282 88.2404 51.9363Z" fill="white"/>
<path d="M39.1687 42.4165L44.7318 52.0404H44.9698L50.5925 42.4165H58.833L49.6405 57.6482L59.1305 72.8799H50.6817L44.9698 63.1518H44.7318L39.0199 72.8799H30.6306L40.0761 57.6482L30.8686 42.4165H39.1687Z" fill="white"/>
<path d="M19.7535 42.4165H27.1016V62.066C27.1016 64.3368 26.5611 66.3152 25.4802 68.001C24.3994 69.6769 22.892 70.9759 20.9583 71.8982C19.0246 72.8105 16.7785 73.2666 14.2201 73.2666C11.6319 73.2666 9.37094 72.8105 7.43723 71.8982C5.50352 70.9759 4.00118 69.6769 2.9302 68.001C1.85922 66.3152 1.32373 64.3368 1.32373 62.066V42.4165H8.68671V61.4264C8.68671 62.4775 8.91479 63.4146 9.37094 64.2377C9.83702 65.0608 10.4865 65.7053 11.3195 66.1714C12.1525 66.6375 13.1194 66.8705 14.2201 66.8705C15.3208 66.8705 16.2827 66.6375 17.1058 66.1714C17.9388 65.7053 18.5883 65.0608 19.0544 64.2377C19.5204 63.4146 19.7535 62.4775 19.7535 61.4264V42.4165Z" fill="white"/>
<path d="M112.568 30.8799V0.416504H122.4C124.562 0.416504 126.367 0.808205 127.815 1.59161C129.272 2.36509 130.368 3.44103 131.102 4.81941C131.846 6.18789 132.218 7.75965 132.218 9.5347C132.218 11.3097 131.846 12.8765 131.102 14.2351C130.368 15.5937 129.277 16.6547 127.83 17.4183C126.382 18.1819 124.587 18.5636 122.445 18.5636H114.07V16.0201H122.371C123.957 16.0201 125.276 15.7573 126.327 15.2317C127.388 14.7061 128.177 13.9574 128.692 12.9856C129.218 12.0138 129.481 10.8635 129.481 9.5347C129.481 8.20589 129.218 7.04566 128.692 6.05401C128.167 5.05245 127.373 4.27897 126.312 3.73356C125.261 3.18816 123.932 2.91545 122.326 2.91545H115.35V30.8799H112.568ZM126 17.1357L133.497 30.8799H130.284L122.861 17.1357H126Z" fill="white"/>
<path d="M87.6975 30.8799V0.416504H105.369V2.91545H90.4791V14.3838H104.432V16.8828H90.4791V28.3809H105.666V30.8799H87.6975Z" fill="white"/>
<path d="M60.5771 30.8799V0.416504H70.8556C72.8389 0.416504 74.49 0.76358 75.8088 1.45773C77.1376 2.15189 78.1343 3.09891 78.7987 4.2988C79.4631 5.49869 79.7953 6.86221 79.7953 8.38934C79.7953 9.65865 79.5821 10.7445 79.1557 11.6469C78.7292 12.5493 78.1491 13.2782 77.4153 13.8335C76.6815 14.3888 75.8634 14.7904 74.961 15.0383V15.2763C75.9427 15.3457 76.8947 15.6928 77.8169 16.3176C78.7392 16.9324 79.4978 17.7951 80.0928 18.9058C80.6877 20.0164 80.9852 21.3452 80.9852 22.8922C80.9852 24.4292 80.6431 25.8027 79.9589 27.0125C79.2747 28.2124 78.2235 29.1594 76.8054 29.8535C75.3973 30.5378 73.6024 30.8799 71.4208 30.8799H60.5771ZM63.3587 28.3809H71.4208C73.771 28.3809 75.5064 27.8603 76.6269 26.8191C77.7574 25.7779 78.3227 24.4689 78.3227 22.8922C78.3227 21.732 78.0401 20.6808 77.4748 19.7387C76.9195 18.7868 76.1311 18.0331 75.1097 17.4778C74.0983 16.9225 72.9083 16.6448 71.5398 16.6448H63.3587V28.3809ZM63.3587 14.1756H71.1084C72.3083 14.1756 73.3595 13.9277 74.2619 13.4319C75.1643 12.936 75.8683 12.2518 76.3741 11.3792C76.8798 10.5065 77.1327 9.5099 77.1327 8.38934C77.1327 6.77296 76.6071 5.45903 75.556 4.44755C74.5048 3.42615 72.938 2.91545 70.8556 2.91545H63.3587V14.1756Z" fill="white"/>
<path d="M30.6011 0.416504H33.814L42.843 14.8747H43.1107L52.1396 0.416504H55.3526L44.3602 17.686V30.8799H41.5935V17.686L30.6011 0.416504Z" fill="white"/>
<path d="M26.9233 9.9363H24.1268C23.9186 8.89507 23.5418 7.93317 22.9964 7.05061C22.4609 6.15813 21.7866 5.37968 20.9734 4.71528C20.1603 4.05088 19.238 3.53522 18.2067 3.16831C17.1754 2.8014 16.0598 2.61795 14.8599 2.61795C12.9361 2.61795 11.1809 3.11873 9.59427 4.12029C8.01755 5.12185 6.7532 6.59445 5.80122 8.53808C4.85915 10.4718 4.38812 12.8418 4.38812 15.6482C4.38812 18.4744 4.85915 20.8543 5.80122 22.788C6.7532 24.7218 8.01755 26.1894 9.59427 27.191C11.1809 28.1826 12.9361 28.6784 14.8599 28.6784C16.0598 28.6784 17.1754 28.495 18.2067 28.1281C19.238 27.7612 20.1603 27.2505 20.9734 26.596C21.7866 25.9316 22.4609 25.1531 22.9964 24.2606C23.5418 23.3682 23.9186 22.4013 24.1268 21.3601H26.9233C26.6754 22.7583 26.2093 24.0623 25.5251 25.2721C24.8508 26.472 23.988 27.5232 22.9369 28.4256C21.8956 29.328 20.6958 30.032 19.3372 30.5378C17.9786 31.0435 16.4862 31.2964 14.8599 31.2964C12.3015 31.2964 10.0306 30.6568 8.0473 29.3775C6.064 28.0884 4.50712 26.2737 3.37664 23.9334C2.25608 21.5931 1.6958 18.8314 1.6958 15.6482C1.6958 12.465 2.25608 9.70326 3.37664 7.36298C4.50712 5.02269 6.064 3.21293 8.0473 1.93371C10.0306 0.64457 12.3015 0 14.8599 0C16.4862 0 17.9786 0.25287 19.3372 0.75861C20.6958 1.25443 21.8956 1.9585 22.9369 2.87082C23.988 3.77322 24.8508 4.82436 25.5251 6.02426C26.2093 7.22415 26.6754 8.52816 26.9233 9.9363Z" fill="white"/>
<path d="M235.319 158.88V141.425H237.331V147.868H237.501C237.649 147.641 237.853 147.351 238.115 146.999C238.382 146.641 238.763 146.323 239.257 146.045C239.757 145.761 240.433 145.618 241.285 145.618C242.388 145.618 243.359 145.894 244.2 146.445C245.041 146.996 245.697 147.778 246.169 148.789C246.64 149.8 246.876 150.993 246.876 152.368C246.876 153.755 246.64 154.957 246.169 155.974C245.697 156.985 245.044 157.769 244.209 158.326C243.373 158.877 242.41 159.153 241.319 159.153C240.478 159.153 239.805 159.013 239.299 158.735C238.794 158.451 238.405 158.13 238.132 157.772C237.859 157.408 237.649 157.107 237.501 156.868H237.263V158.88H235.319ZM237.297 152.334C237.297 153.323 237.442 154.195 237.731 154.951C238.021 155.701 238.444 156.289 239.001 156.715C239.558 157.136 240.24 157.346 241.047 157.346C241.888 157.346 242.589 157.124 243.152 156.681C243.72 156.232 244.146 155.63 244.43 154.874C244.72 154.113 244.865 153.266 244.865 152.334C244.865 151.414 244.723 150.584 244.439 149.846C244.16 149.101 243.737 148.513 243.169 148.082C242.606 147.644 241.899 147.425 241.047 147.425C240.228 147.425 239.541 147.633 238.984 148.047C238.427 148.457 238.007 149.03 237.723 149.769C237.439 150.502 237.297 151.357 237.297 152.334Z" fill="white"/>
<path d="M229.351 153.528V145.789H231.363V158.88H229.351V156.664H229.215C228.908 157.329 228.431 157.894 227.783 158.36C227.135 158.82 226.317 159.05 225.329 159.05C224.51 159.05 223.783 158.871 223.147 158.513C222.51 158.15 222.01 157.604 221.647 156.877C221.283 156.144 221.101 155.221 221.101 154.107V145.789H223.113V153.971C223.113 154.925 223.38 155.687 223.914 156.255C224.454 156.823 225.141 157.107 225.976 157.107C226.476 157.107 226.985 156.979 227.502 156.724C228.025 156.468 228.462 156.076 228.814 155.548C229.172 155.019 229.351 154.346 229.351 153.528Z" fill="white"/>
<path d="M212.172 158.88V145.789H214.115V147.766H214.251C214.49 147.119 214.922 146.593 215.547 146.19C216.172 145.786 216.876 145.584 217.66 145.584C217.808 145.584 217.993 145.587 218.214 145.593C218.436 145.599 218.603 145.607 218.717 145.619V147.664C218.649 147.647 218.493 147.621 218.248 147.587C218.01 147.548 217.757 147.528 217.49 147.528C216.853 147.528 216.285 147.661 215.785 147.928C215.291 148.19 214.899 148.553 214.609 149.019C214.325 149.479 214.183 150.005 214.183 150.596V158.88H212.172Z" fill="white"/>
<path d="M202.831 164.062C201.859 164.062 201.024 163.937 200.325 163.687C199.626 163.442 199.044 163.119 198.578 162.715C198.118 162.317 197.751 161.891 197.479 161.437L199.081 160.312C199.263 160.55 199.493 160.823 199.771 161.13C200.05 161.442 200.43 161.712 200.913 161.94C201.402 162.173 202.041 162.289 202.831 162.289C203.888 162.289 204.76 162.033 205.447 161.522C206.135 161.011 206.479 160.209 206.479 159.119V156.459H206.308C206.16 156.698 205.95 156.994 205.677 157.346C205.41 157.692 205.024 158.002 204.518 158.275C204.018 158.542 203.342 158.675 202.49 158.675C201.433 158.675 200.484 158.425 199.643 157.925C198.808 157.425 198.146 156.698 197.658 155.744C197.175 154.789 196.933 153.63 196.933 152.266C196.933 150.925 197.169 149.758 197.64 148.763C198.112 147.763 198.768 146.991 199.609 146.445C200.45 145.894 201.422 145.619 202.524 145.619C203.376 145.619 204.052 145.761 204.552 146.045C205.058 146.323 205.444 146.641 205.712 146.999C205.984 147.351 206.194 147.641 206.342 147.869H206.547V145.789H208.49V159.255C208.49 160.38 208.234 161.295 207.723 161.999C207.217 162.709 206.535 163.229 205.677 163.559C204.825 163.894 203.876 164.062 202.831 164.062ZM202.763 156.869C203.569 156.869 204.251 156.684 204.808 156.315C205.365 155.945 205.788 155.414 206.078 154.721C206.368 154.028 206.513 153.198 206.513 152.232C206.513 151.289 206.371 150.457 206.087 149.735C205.802 149.013 205.382 148.448 204.825 148.039C204.268 147.63 203.581 147.425 202.763 147.425C201.91 147.425 201.2 147.641 200.632 148.073C200.069 148.505 199.646 149.084 199.362 149.812C199.084 150.539 198.944 151.346 198.944 152.232C198.944 153.141 199.087 153.945 199.371 154.644C199.66 155.337 200.087 155.883 200.649 156.28C201.217 156.673 201.922 156.869 202.763 156.869Z" fill="white"/>
<path d="M187.584 159.153C186.493 159.153 185.53 158.877 184.694 158.326C183.859 157.769 183.206 156.985 182.734 155.974C182.263 154.957 182.027 153.755 182.027 152.368C182.027 150.993 182.263 149.8 182.734 148.789C183.206 147.778 183.862 146.996 184.703 146.445C185.544 145.894 186.515 145.618 187.618 145.618C188.47 145.618 189.143 145.761 189.638 146.045C190.138 146.323 190.518 146.641 190.78 146.999C191.047 147.351 191.254 147.641 191.402 147.868H191.572V141.425H193.584V158.88H191.64V156.868H191.402C191.254 157.107 191.044 157.408 190.771 157.772C190.498 158.13 190.109 158.451 189.604 158.735C189.098 159.013 188.425 159.153 187.584 159.153ZM187.856 157.346C188.663 157.346 189.345 157.136 189.902 156.715C190.459 156.289 190.882 155.701 191.172 154.951C191.462 154.195 191.606 153.323 191.606 152.334C191.606 151.357 191.464 150.502 191.18 149.769C190.896 149.03 190.476 148.457 189.919 148.047C189.362 147.633 188.675 147.425 187.856 147.425C187.004 147.425 186.294 147.644 185.726 148.082C185.163 148.513 184.74 149.101 184.456 149.846C184.177 150.584 184.038 151.414 184.038 152.334C184.038 153.266 184.18 154.113 184.464 154.874C184.754 155.63 185.18 156.232 185.743 156.681C186.311 157.124 187.015 157.346 187.856 157.346Z" fill="white"/>
<path d="M170.613 151.005V158.88H168.601V145.789H170.544V147.834H170.715C171.022 147.17 171.488 146.636 172.113 146.232C172.738 145.823 173.544 145.619 174.533 145.619C175.419 145.619 176.195 145.8 176.86 146.164C177.525 146.522 178.042 147.067 178.411 147.8C178.78 148.528 178.965 149.448 178.965 150.562V158.88H176.954V150.698C176.954 149.67 176.687 148.869 176.152 148.295C175.618 147.715 174.885 147.425 173.954 147.425C173.312 147.425 172.738 147.565 172.232 147.843C171.732 148.121 171.337 148.528 171.047 149.062C170.758 149.596 170.613 150.244 170.613 151.005Z" fill="white"/>
<path d="M162.906 158.88V145.789H164.917V158.88H162.906ZM163.929 143.607C163.537 143.607 163.199 143.474 162.914 143.207C162.636 142.94 162.497 142.619 162.497 142.244C162.497 141.869 162.636 141.547 162.914 141.28C163.199 141.013 163.537 140.88 163.929 140.88C164.321 140.88 164.656 141.013 164.934 141.28C165.218 141.547 165.36 141.869 165.36 142.244C165.36 142.619 165.218 142.94 164.934 143.207C164.656 143.474 164.321 143.607 163.929 143.607Z" fill="white"/>
<path d="M141.827 141.425H144.35L150.282 155.914H150.486L156.418 141.425H158.941V158.88H156.964V145.618H156.793L151.339 158.88H149.429L143.975 145.618H143.804V158.88H141.827V141.425Z" fill="white"/>
<path d="M122.741 163.789C122.4 163.789 122.096 163.761 121.829 163.704C121.562 163.653 121.377 163.602 121.275 163.55L121.786 161.778C122.275 161.903 122.706 161.948 123.081 161.914C123.456 161.88 123.789 161.712 124.079 161.411C124.374 161.116 124.644 160.636 124.888 159.971L125.263 158.948L120.422 145.789H122.604L126.218 156.221H126.354L129.968 145.789H132.15L126.593 160.789C126.343 161.465 126.033 162.025 125.664 162.468C125.295 162.917 124.866 163.249 124.377 163.465C123.894 163.681 123.348 163.789 122.741 163.789Z" fill="white"/>
<path d="M107.28 158.88V141.425H109.292V147.868H109.462C109.61 147.641 109.814 147.351 110.076 146.999C110.343 146.641 110.723 146.323 111.218 146.045C111.718 145.761 112.394 145.618 113.246 145.618C114.348 145.618 115.32 145.894 116.161 146.445C117.002 146.996 117.658 147.778 118.13 148.789C118.601 149.8 118.837 150.993 118.837 152.368C118.837 153.755 118.601 154.957 118.13 155.974C117.658 156.985 117.005 157.769 116.169 158.326C115.334 158.877 114.371 159.153 113.28 159.153C112.439 159.153 111.766 159.013 111.26 158.735C110.755 158.451 110.366 158.13 110.093 157.772C109.82 157.408 109.61 157.107 109.462 156.868H109.223V158.88H107.28ZM109.258 152.334C109.258 153.323 109.402 154.195 109.692 154.951C109.982 155.701 110.405 156.289 110.962 156.715C111.519 157.136 112.201 157.346 113.008 157.346C113.848 157.346 114.55 157.124 115.113 156.681C115.681 156.232 116.107 155.63 116.391 154.874C116.681 154.113 116.826 153.266 116.826 152.334C116.826 151.414 116.684 150.584 116.4 149.846C116.121 149.101 115.698 148.513 115.13 148.082C114.567 147.644 113.86 147.425 113.008 147.425C112.189 147.425 111.502 147.633 110.945 148.047C110.388 148.457 109.968 149.03 109.684 149.769C109.4 150.502 109.258 151.357 109.258 152.334Z" fill="white"/>
<path d="M90.2944 159.153C89.2035 159.153 88.2404 158.877 87.4052 158.326C86.5699 157.769 85.9165 156.985 85.4449 155.974C84.9733 154.957 84.7375 153.755 84.7375 152.368C84.7375 150.993 84.9733 149.8 85.4449 148.789C85.9165 147.778 86.5728 146.996 87.4137 146.445C88.2546 145.894 89.2262 145.618 90.3285 145.618C91.1807 145.618 91.854 145.761 92.3483 146.045C92.8483 146.323 93.229 146.641 93.4904 146.999C93.7574 147.351 93.9648 147.641 94.1125 147.868H94.283V141.425H96.2944V158.88H94.3512V156.868H94.1125C93.9648 157.107 93.7546 157.408 93.4819 157.772C93.2091 158.13 92.8199 158.451 92.3143 158.735C91.8086 159.013 91.1353 159.153 90.2944 159.153ZM90.5671 157.346C91.3739 157.346 92.0557 157.136 92.6125 156.715C93.1694 156.289 93.5927 155.701 93.8824 154.951C94.1722 154.195 94.3171 153.323 94.3171 152.334C94.3171 151.357 94.1751 150.502 93.891 149.769C93.6069 149.03 93.1864 148.457 92.6296 148.047C92.0728 147.633 91.3853 147.425 90.5671 147.425C89.7148 147.425 89.0046 147.644 88.4364 148.082C87.8739 148.513 87.4506 149.101 87.1665 149.846C86.8881 150.584 86.7489 151.414 86.7489 152.334C86.7489 153.266 86.891 154.113 87.175 154.874C87.4648 155.63 87.891 156.232 88.4535 156.681C89.0216 157.124 89.7262 157.346 90.5671 157.346Z" fill="white"/>
<path d="M76.8711 159.153C75.6097 159.153 74.5216 158.874 73.6069 158.317C72.6978 157.755 71.9961 156.971 71.5018 155.965C71.0131 154.954 70.7688 153.778 70.7688 152.437C70.7688 151.096 71.0131 149.914 71.5018 148.891C71.9961 147.863 72.6836 147.062 73.5643 146.488C74.4506 145.908 75.4847 145.619 76.6665 145.619C77.3483 145.619 78.0216 145.732 78.6864 145.959C79.3512 146.187 79.9563 146.556 80.5018 147.067C81.0472 147.573 81.4819 148.244 81.8057 149.079C82.1296 149.914 82.2915 150.942 82.2915 152.164V153.016H72.2006V151.278H80.2461C80.2461 150.539 80.0983 149.88 79.8029 149.3C79.5131 148.721 79.0983 148.263 78.5586 147.928C78.0245 147.593 77.3938 147.425 76.6665 147.425C75.8654 147.425 75.1722 147.624 74.587 148.022C74.0074 148.414 73.5614 148.925 73.2489 149.556C72.9364 150.187 72.7802 150.863 72.7802 151.584V152.744C72.7802 153.732 72.9506 154.57 73.2915 155.258C73.6381 155.94 74.1182 156.459 74.7319 156.817C75.3455 157.17 76.0586 157.346 76.8711 157.346C77.3995 157.346 77.8768 157.272 78.3029 157.124C78.7347 156.971 79.1069 156.744 79.4194 156.442C79.7319 156.136 79.9733 155.755 80.1438 155.3L82.087 155.846C81.8824 156.505 81.5387 157.084 81.0557 157.584C80.5728 158.079 79.9762 158.465 79.266 158.744C78.5557 159.016 77.7574 159.153 76.8711 159.153Z" fill="white"/>
<path d="M62.8513 158.88V145.789H64.7945V147.766H64.9309C65.1695 147.119 65.6013 146.593 66.2263 146.19C66.8513 145.786 67.5559 145.584 68.34 145.584C68.4877 145.584 68.6723 145.587 68.8939 145.593C69.1155 145.599 69.2831 145.607 69.3968 145.619V147.664C69.3286 147.647 69.1723 147.621 68.928 147.587C68.6894 147.548 68.4365 147.528 68.1695 147.528C67.5331 147.528 66.965 147.661 66.465 147.928C65.9706 148.19 65.5786 148.553 65.2888 149.019C65.0047 149.479 64.8627 150.005 64.8627 150.596V158.88H62.8513Z" fill="white"/>
<path d="M54.3711 159.153C53.1097 159.153 52.0216 158.874 51.1069 158.317C50.1978 157.755 49.4961 156.971 49.0018 155.965C48.5131 154.954 48.2688 153.778 48.2688 152.437C48.2688 151.096 48.5131 149.914 49.0018 148.891C49.4961 147.863 50.1836 147.062 51.0643 146.488C51.9506 145.908 52.9847 145.619 54.1665 145.619C54.8483 145.619 55.5216 145.732 56.1864 145.959C56.8512 146.187 57.4563 146.556 58.0018 147.067C58.5472 147.573 58.9819 148.244 59.3057 149.079C59.6296 149.914 59.7915 150.942 59.7915 152.164V153.016H49.7006V151.278H57.7461C57.7461 150.539 57.5983 149.88 57.3029 149.3C57.0131 148.721 56.5983 148.263 56.0586 147.928C55.5245 147.593 54.8938 147.425 54.1665 147.425C53.3654 147.425 52.6722 147.624 52.087 148.022C51.5074 148.414 51.0614 148.925 50.7489 149.556C50.4364 150.187 50.2802 150.863 50.2802 151.584V152.744C50.2802 153.732 50.4506 154.57 50.7915 155.258C51.1381 155.94 51.6182 156.459 52.2319 156.817C52.8455 157.17 53.5586 157.346 54.3711 157.346C54.8995 157.346 55.3768 157.272 55.8029 157.124C56.2347 156.971 56.6069 156.744 56.9194 156.442C57.2319 156.136 57.4733 155.755 57.6438 155.3L59.587 155.846C59.3824 156.505 59.0387 157.084 58.5557 157.584C58.0728 158.079 57.4762 158.465 56.766 158.744C56.0557 159.016 55.2574 159.153 54.3711 159.153Z" fill="white"/>
<path d="M32.7938 158.88L28.8052 145.789H30.9188L33.7484 155.812H33.8847L36.6802 145.789H38.8279L41.5893 155.778H41.7256L44.5552 145.789H46.6688L42.6802 158.88H40.7029L37.8393 148.823H37.6347L34.7711 158.88H32.7938Z" fill="white"/>
<path d="M21.2709 159.153C20.0891 159.153 19.0522 158.871 18.1601 158.309C17.2738 157.746 16.5806 156.959 16.0806 155.948C15.5863 154.937 15.3391 153.755 15.3391 152.403C15.3391 151.039 15.5863 149.849 16.0806 148.832C16.5806 147.815 17.2738 147.025 18.1601 146.462C19.0522 145.9 20.0891 145.619 21.2709 145.619C22.4527 145.619 23.4868 145.9 24.3732 146.462C25.2652 147.025 25.9584 147.815 26.4527 148.832C26.9527 149.849 27.2027 151.039 27.2027 152.403C27.2027 153.755 26.9527 154.937 26.4527 155.948C25.9584 156.959 25.2652 157.746 24.3732 158.309C23.4868 158.871 22.4527 159.153 21.2709 159.153ZM21.2709 157.346C22.1687 157.346 22.9073 157.116 23.4868 156.655C24.0664 156.195 24.4954 155.59 24.7738 154.84C25.0522 154.09 25.1914 153.278 25.1914 152.403C25.1914 151.528 25.0522 150.712 24.7738 149.957C24.4954 149.201 24.0664 148.59 23.4868 148.124C22.9073 147.658 22.1687 147.425 21.2709 147.425C20.3732 147.425 19.6346 147.658 19.055 148.124C18.4755 148.59 18.0465 149.201 17.7681 149.957C17.4897 150.712 17.3505 151.528 17.3505 152.403C17.3505 153.278 17.4897 154.09 17.7681 154.84C18.0465 155.59 18.4755 156.195 19.055 156.655C19.6346 157.116 20.3732 157.346 21.2709 157.346Z" fill="white"/>
<path d="M1.13184 158.88V141.425H7.02956C8.39888 141.425 9.5182 141.672 10.3875 142.167C11.2625 142.655 11.9102 143.317 12.3307 144.153C12.7512 144.988 12.9614 145.92 12.9614 146.948C12.9614 147.976 12.7512 148.911 12.3307 149.752C11.9159 150.593 11.2739 151.263 10.4046 151.763C9.53525 152.258 8.42161 152.505 7.06365 152.505H2.83638V150.63H6.99547C7.93297 150.63 8.68581 150.468 9.254 150.144C9.82218 149.82 10.2341 149.383 10.4898 148.832C10.7512 148.275 10.8818 147.647 10.8818 146.948C10.8818 146.249 10.7512 145.624 10.4898 145.073C10.2341 144.522 9.81934 144.09 9.24547 143.778C8.67161 143.459 7.91025 143.3 6.96138 143.3H3.24547V158.88H1.13184Z" fill="white"/>
</svg>
