<svg width="421" height="639" viewBox="0 0 421 639" fill="none" xmlns="http://www.w3.org/2000/svg">
<rect width="420" height="639" transform="translate(0.98584)" fill="#2C215A"/>
<path d="M213.68 540.67C213.58 539.579 213.139 538.731 212.356 538.126C211.582 537.511 210.477 537.204 209.039 537.204C208.087 537.204 207.293 537.328 206.659 537.576C206.024 537.824 205.548 538.166 205.231 538.602C204.913 539.029 204.75 539.519 204.74 540.075C204.72 540.531 204.809 540.932 205.008 541.28C205.216 541.627 205.513 541.934 205.9 542.202C206.297 542.46 206.773 542.688 207.328 542.886C207.883 543.084 208.508 543.258 209.202 543.407L211.82 544.002C213.328 544.329 214.656 544.765 215.807 545.311C216.967 545.856 217.939 546.506 218.722 547.259C219.515 548.013 220.115 548.881 220.522 549.862C220.929 550.844 221.137 551.945 221.147 553.164C221.137 555.088 220.651 556.739 219.689 558.118C218.727 559.496 217.344 560.552 215.539 561.286C213.744 562.02 211.577 562.387 209.039 562.387C206.49 562.387 204.269 562.005 202.375 561.241C200.481 560.478 199.008 559.318 197.957 557.761C196.906 556.204 196.365 554.235 196.336 551.855H203.386C203.446 552.837 203.709 553.655 204.175 554.31C204.641 554.964 205.28 555.46 206.093 555.797C206.917 556.134 207.869 556.303 208.949 556.303C209.941 556.303 210.784 556.169 211.478 555.901C212.182 555.634 212.723 555.262 213.099 554.786C213.476 554.31 213.67 553.764 213.68 553.15C213.67 552.574 213.491 552.084 213.144 551.677C212.797 551.26 212.262 550.903 211.538 550.606C210.824 550.299 209.911 550.016 208.801 549.758L205.617 549.014C202.98 548.409 200.902 547.433 199.385 546.084C197.868 544.726 197.114 542.891 197.124 540.58C197.114 538.696 197.62 537.045 198.641 535.627C199.663 534.209 201.076 533.103 202.881 532.31C204.685 531.517 206.743 531.12 209.054 531.12C211.414 531.12 213.461 531.522 215.197 532.325C216.942 533.118 218.296 534.234 219.258 535.672C220.219 537.11 220.71 538.776 220.73 540.67H213.68Z" fill="white"/>
<path d="M177.876 562H166.616V531.537H177.861C180.965 531.537 183.638 532.146 185.879 533.366C188.13 534.576 189.865 536.321 191.085 538.602C192.305 540.873 192.914 543.59 192.914 546.753C192.914 549.927 192.305 552.654 191.085 554.935C189.875 557.215 188.145 558.966 185.894 560.185C183.643 561.395 180.97 562 177.876 562ZM173.979 555.723H177.594C179.299 555.723 180.742 555.435 181.922 554.86C183.112 554.275 184.009 553.328 184.614 552.019C185.229 550.7 185.537 548.945 185.537 546.753C185.537 544.562 185.229 542.817 184.614 541.518C184 540.209 183.092 539.267 181.892 538.691C180.702 538.106 179.235 537.814 177.489 537.814H173.979V555.723Z" fill="white"/>
<path d="M138.882 562V531.537H151.466C153.747 531.537 155.715 531.948 157.371 532.771C159.037 533.584 160.321 534.755 161.224 536.282C162.126 537.799 162.577 539.599 162.577 541.681C162.577 543.793 162.116 545.588 161.194 547.066C160.272 548.533 158.963 549.654 157.267 550.427C155.571 551.191 153.563 551.573 151.243 551.573H143.285V545.772H149.874C150.985 545.772 151.912 545.628 152.656 545.34C153.41 545.043 153.98 544.597 154.367 544.002C154.753 543.397 154.947 542.623 154.947 541.681C154.947 540.739 154.753 539.961 154.367 539.346C153.98 538.721 153.41 538.255 152.656 537.948C151.902 537.63 150.975 537.472 149.874 537.472H146.245V562H138.882ZM156.033 548.077L163.619 562H155.586L148.149 548.077H156.033Z" fill="white"/>
<path d="M113.157 562H105.243L115.522 531.537H125.324L135.602 562H127.689L120.534 539.212H120.296L113.157 562ZM112.1 550.011H128.641V555.604H112.1V550.011Z" fill="white"/>
<path d="M72.5968 562L63.7314 531.537H71.8679L76.4642 551.498H76.7171L81.9678 531.537H88.6019L93.8527 551.543H94.1056L98.7167 531.537H106.838L97.9879 562H90.8927L85.4039 543.526H85.1659L79.6771 562H72.5968Z" fill="white"/>
<path d="M42.8809 562H34.9675L45.2459 531.537H55.0484L65.3268 562H57.4135L50.2587 539.212H50.0207L42.8809 562ZM41.8248 550.011H58.3654V555.604H41.8248V550.011Z" fill="white"/>
<path d="M288.823 520V489.537H306.494V492.036H291.605V503.504H305.557V506.003H291.605V517.501H306.792V520H288.823Z" fill="white"/>
<path d="M282.289 499.056H279.493C279.285 498.015 278.908 497.053 278.362 496.171C277.827 495.278 277.153 494.5 276.339 493.835C275.526 493.171 274.604 492.655 273.573 492.288C272.541 491.922 271.426 491.738 270.226 491.738C268.302 491.738 266.547 492.239 264.96 493.24C263.384 494.242 262.119 495.715 261.167 497.658C260.225 499.592 259.754 501.962 259.754 504.768C259.754 507.594 260.225 509.974 261.167 511.908C262.119 513.842 263.384 515.31 264.96 516.311C266.547 517.303 268.302 517.799 270.226 517.799C271.426 517.799 272.541 517.615 273.573 517.248C274.604 516.881 275.526 516.371 276.339 515.716C277.153 515.052 277.827 514.273 278.362 513.381C278.908 512.488 279.285 511.521 279.493 510.48H282.289C282.041 511.878 281.575 513.182 280.891 514.392C280.217 515.592 279.354 516.643 278.303 517.546C277.262 518.448 276.062 519.152 274.703 519.658C273.345 520.164 271.852 520.416 270.226 520.416C267.667 520.416 265.397 519.777 263.413 518.498C261.43 517.209 259.873 515.394 258.743 513.054C257.622 510.713 257.062 507.951 257.062 504.768C257.062 501.585 257.622 498.823 258.743 496.483C259.873 494.143 261.43 492.333 263.413 491.054C265.397 489.765 267.667 489.12 270.226 489.12C271.852 489.12 273.345 489.373 274.703 489.879C276.062 490.375 277.262 491.079 278.303 491.991C279.354 492.893 280.217 493.944 280.891 495.144C281.575 496.344 282.041 497.648 282.289 499.056Z" fill="white"/>
<path d="M250.331 489.537V520H247.624L229.625 494.49H229.387V520H226.606V489.537H229.298L247.356 515.076H247.594V489.537H250.331Z" fill="white"/>
<path d="M201.735 520V489.537H219.407V492.036H204.517V503.504H218.469V506.003H204.517V517.501H219.704V520H201.735Z" fill="white"/>
<path d="M178.174 520V489.537H180.955V517.501H195.473V520H178.174Z" fill="white"/>
<path d="M154.612 520V489.537H157.394V517.501H171.912V520H154.612Z" fill="white"/>
<path d="M129.742 520V489.537H147.413V492.036H132.523V503.504H146.476V506.003H132.523V517.501H147.71V520H129.742Z" fill="white"/>
<path d="M123.208 499.056H120.412C120.203 498.015 119.826 497.053 119.281 496.171C118.746 495.278 118.071 494.5 117.258 493.835C116.445 493.171 115.523 492.655 114.491 492.288C113.46 491.922 112.344 491.738 111.145 491.738C109.221 491.738 107.466 492.239 105.879 493.24C104.302 494.242 103.038 495.715 102.086 497.658C101.144 499.592 100.673 501.962 100.673 504.768C100.673 507.594 101.144 509.974 102.086 511.908C103.038 513.842 104.302 515.31 105.879 516.311C107.466 517.303 109.221 517.799 111.145 517.799C112.344 517.799 113.46 517.615 114.491 517.248C115.523 516.881 116.445 516.371 117.258 515.716C118.071 515.052 118.746 514.273 119.281 513.381C119.826 512.488 120.203 511.521 120.412 510.48H123.208C122.96 511.878 122.494 513.182 121.81 514.392C121.135 515.592 120.273 516.643 119.222 517.546C118.18 518.448 116.98 519.152 115.622 519.658C114.263 520.164 112.771 520.416 111.145 520.416C108.586 520.416 106.315 519.777 104.332 518.498C102.349 517.209 100.792 515.394 99.6613 513.054C98.5407 510.713 97.9805 507.951 97.9805 504.768C97.9805 501.585 98.5407 498.823 99.6613 496.483C100.792 494.143 102.349 492.333 104.332 491.054C106.315 489.765 108.586 489.12 111.145 489.12C112.771 489.12 114.263 489.373 115.622 489.879C116.98 490.375 118.18 491.079 119.222 491.991C120.273 492.893 121.135 493.944 121.81 495.144C122.494 496.344 122.96 497.648 123.208 499.056Z" fill="white"/>
<path d="M74.1362 489.537L79.6994 499.161H79.9374L85.56 489.537H93.8006L84.608 504.768L94.0981 520H85.6492L79.9374 510.272H79.6994L73.9875 520H65.5981L75.0436 504.768L65.8361 489.537H74.1362Z" fill="white"/>
<path d="M54.721 489.537H62.0691V509.186C62.0691 511.457 61.5287 513.435 60.4478 515.121C59.3669 516.797 57.8596 518.096 55.9259 519.018C53.9922 519.931 51.7461 520.387 49.1876 520.387C46.5994 520.387 44.3385 519.931 42.4048 519.018C40.4711 518.096 38.9687 516.797 37.8977 515.121C36.8267 513.435 36.2913 511.457 36.2913 509.186V489.537H43.6542V508.546C43.6542 509.598 43.8823 510.535 44.3385 511.358C44.8045 512.181 45.4541 512.825 46.2871 513.292C47.12 513.758 48.0869 513.991 49.1876 513.991C50.2884 513.991 51.2503 513.758 52.0733 513.292C52.9063 512.825 53.5558 512.181 54.0219 511.358C54.488 510.535 54.721 509.598 54.721 508.546V489.537Z" fill="white"/>
<path d="M147.536 478V447.537H157.368C159.53 447.537 161.334 447.928 162.782 448.712C164.24 449.485 165.336 450.561 166.07 451.94C166.813 453.308 167.185 454.88 167.185 456.655C167.185 458.43 166.813 459.997 166.07 461.355C165.336 462.714 164.245 463.775 162.797 464.538C161.349 465.302 159.554 465.684 157.412 465.684H149.038V463.14H157.338C158.925 463.14 160.244 462.877 161.295 462.352C162.356 461.826 163.144 461.078 163.66 460.106C164.185 459.134 164.448 457.984 164.448 456.655C164.448 455.326 164.185 454.166 163.66 453.174C163.134 452.173 162.341 451.399 161.28 450.854C160.229 450.308 158.9 450.036 157.293 450.036H150.317V478H147.536ZM160.967 464.256L168.464 478H165.251L157.829 464.256H160.967Z" fill="white"/>
<path d="M122.665 478V447.537H140.336V450.036H125.447V461.504H139.399V464.003H125.447V475.501H140.634V478H122.665Z" fill="white"/>
<path d="M95.5447 478V447.537H105.823C107.806 447.537 109.457 447.884 110.776 448.578C112.105 449.272 113.102 450.219 113.766 451.419C114.431 452.619 114.763 453.982 114.763 455.509C114.763 456.779 114.55 457.865 114.123 458.767C113.697 459.669 113.117 460.398 112.383 460.954C111.649 461.509 110.831 461.911 109.929 462.158V462.396C110.91 462.466 111.862 462.813 112.784 463.438C113.707 464.052 114.465 464.915 115.06 466.026C115.655 467.137 115.953 468.465 115.953 470.012C115.953 471.549 115.611 472.923 114.926 474.133C114.242 475.332 113.191 476.28 111.773 476.974C110.365 477.658 108.57 478 106.388 478H95.5447ZM98.3263 475.501H106.388C108.739 475.501 110.474 474.98 111.594 473.939C112.725 472.898 113.29 471.589 113.29 470.012C113.29 468.852 113.008 467.801 112.442 466.859C111.887 465.907 111.099 465.153 110.077 464.598C109.066 464.043 107.876 463.765 106.507 463.765H98.3263V475.501ZM98.3263 461.296H106.076C107.276 461.296 108.327 461.048 109.229 460.552C110.132 460.056 110.836 459.372 111.342 458.499C111.847 457.627 112.1 456.63 112.1 455.509C112.1 453.893 111.575 452.579 110.524 451.568C109.472 450.546 107.906 450.036 105.823 450.036H98.3263V461.296Z" fill="white"/>
<path d="M65.5686 447.537H68.7815L77.8105 461.995H78.0782L87.1072 447.537H90.3201L79.3277 464.806V478H76.561V464.806L65.5686 447.537Z" fill="white"/>
<path d="M61.8908 457.056H59.0944C58.8861 456.015 58.5093 455.053 57.9639 454.171C57.4284 453.278 56.7541 452.5 55.9409 451.835C55.1278 451.171 54.2056 450.655 53.1742 450.288C52.1429 449.922 51.0273 449.738 49.8274 449.738C47.9036 449.738 46.1484 450.239 44.5618 451.24C42.9851 452.242 41.7207 453.715 40.7687 455.658C39.8267 457.592 39.3557 459.962 39.3557 462.768C39.3557 465.594 39.8267 467.974 40.7687 469.908C41.7207 471.842 42.9851 473.31 44.5618 474.311C46.1484 475.303 47.9036 475.799 49.8274 475.799C51.0273 475.799 52.1429 475.615 53.1742 475.248C54.2056 474.881 55.1278 474.371 55.9409 473.716C56.7541 473.052 57.4284 472.273 57.9639 471.381C58.5093 470.488 58.8861 469.521 59.0944 468.48H61.8908C61.6429 469.878 61.1768 471.182 60.4926 472.392C59.8183 473.592 58.9555 474.643 57.9044 475.546C56.8632 476.448 55.6633 477.152 54.3047 477.658C52.9462 478.164 51.4537 478.416 49.8274 478.416C47.269 478.416 44.9981 477.777 43.0148 476.498C41.0315 475.209 39.4746 473.394 38.3442 471.054C37.2236 468.713 36.6633 465.951 36.6633 462.768C36.6633 459.585 37.2236 456.823 38.3442 454.483C39.4746 452.143 41.0315 450.333 43.0148 449.054C44.9981 447.765 47.269 447.12 49.8274 447.12C51.4537 447.12 52.9462 447.373 54.3047 447.879C55.6633 448.375 56.8632 449.079 57.9044 449.991C58.9555 450.893 59.8183 451.944 60.4926 453.144C61.1768 454.344 61.6429 455.648 61.8908 457.056Z" fill="white"/>
<path d="M270.287 606V588.545H272.298V594.989H272.469C272.616 594.761 272.821 594.472 273.082 594.119C273.349 593.761 273.73 593.443 274.224 593.165C274.724 592.881 275.401 592.739 276.253 592.739C277.355 592.739 278.327 593.014 279.168 593.565C280.008 594.116 280.665 594.898 281.136 595.909C281.608 596.92 281.844 598.114 281.844 599.489C281.844 600.875 281.608 602.077 281.136 603.094C280.665 604.105 280.011 604.889 279.176 605.446C278.341 605.997 277.378 606.273 276.287 606.273C275.446 606.273 274.773 606.134 274.267 605.855C273.761 605.571 273.372 605.25 273.099 604.892C272.827 604.528 272.616 604.227 272.469 603.989H272.23V606H270.287ZM272.264 599.455C272.264 600.443 272.409 601.315 272.699 602.071C272.989 602.821 273.412 603.409 273.969 603.835C274.526 604.256 275.207 604.466 276.014 604.466C276.855 604.466 277.557 604.244 278.119 603.801C278.687 603.352 279.114 602.75 279.398 601.994C279.687 601.233 279.832 600.386 279.832 599.455C279.832 598.534 279.69 597.705 279.406 596.966C279.128 596.222 278.704 595.634 278.136 595.202C277.574 594.764 276.866 594.545 276.014 594.545C275.196 594.545 274.508 594.753 273.952 595.168C273.395 595.577 272.974 596.151 272.69 596.889C272.406 597.622 272.264 598.477 272.264 599.455Z" fill="white"/>
<path d="M264.319 600.648V592.909H266.33V606H264.319V603.784H264.182C263.876 604.449 263.398 605.014 262.751 605.48C262.103 605.94 261.285 606.17 260.296 606.17C259.478 606.17 258.751 605.992 258.114 605.634C257.478 605.27 256.978 604.724 256.614 603.997C256.251 603.264 256.069 602.341 256.069 601.227V592.909H258.08V601.091C258.08 602.045 258.347 602.807 258.881 603.375C259.421 603.943 260.109 604.227 260.944 604.227C261.444 604.227 261.952 604.099 262.469 603.844C262.992 603.588 263.43 603.196 263.782 602.668C264.14 602.139 264.319 601.466 264.319 600.648Z" fill="white"/>
<path d="M247.139 606V592.909H249.082V594.886H249.219C249.457 594.239 249.889 593.713 250.514 593.31C251.139 592.906 251.844 592.705 252.628 592.705C252.776 592.705 252.96 592.707 253.182 592.713C253.403 592.719 253.571 592.727 253.685 592.739V594.784C253.616 594.767 253.46 594.741 253.216 594.707C252.977 594.668 252.724 594.648 252.457 594.648C251.821 594.648 251.253 594.781 250.753 595.048C250.258 595.31 249.866 595.673 249.577 596.139C249.293 596.599 249.151 597.125 249.151 597.716V606H247.139Z" fill="white"/>
<path d="M237.798 611.182C236.827 611.182 235.991 611.057 235.292 610.807C234.594 610.563 234.011 610.239 233.545 609.835C233.085 609.438 232.719 609.011 232.446 608.557L234.048 607.432C234.23 607.67 234.46 607.943 234.738 608.25C235.017 608.563 235.398 608.832 235.88 609.06C236.369 609.293 237.008 609.409 237.798 609.409C238.855 609.409 239.727 609.153 240.415 608.642C241.102 608.131 241.446 607.33 241.446 606.239V603.58H241.275C241.128 603.818 240.917 604.114 240.645 604.466C240.378 604.813 239.991 605.122 239.486 605.395C238.986 605.662 238.309 605.795 237.457 605.795C236.4 605.795 235.452 605.545 234.611 605.045C233.775 604.545 233.113 603.818 232.625 602.864C232.142 601.909 231.9 600.75 231.9 599.386C231.9 598.045 232.136 596.878 232.608 595.884C233.079 594.884 233.736 594.111 234.577 593.565C235.417 593.014 236.389 592.739 237.491 592.739C238.344 592.739 239.02 592.881 239.52 593.165C240.025 593.443 240.412 593.761 240.679 594.119C240.952 594.472 241.162 594.761 241.309 594.989H241.514V592.909H243.457V606.375C243.457 607.5 243.202 608.415 242.69 609.119C242.184 609.83 241.503 610.349 240.645 610.679C239.792 611.014 238.844 611.182 237.798 611.182ZM237.73 603.989C238.537 603.989 239.219 603.804 239.775 603.435C240.332 603.065 240.755 602.534 241.045 601.841C241.335 601.148 241.48 600.318 241.48 599.352C241.48 598.409 241.338 597.577 241.054 596.855C240.77 596.134 240.349 595.568 239.792 595.159C239.236 594.75 238.548 594.545 237.73 594.545C236.878 594.545 236.167 594.761 235.599 595.193C235.037 595.625 234.613 596.205 234.329 596.932C234.051 597.659 233.912 598.466 233.912 599.352C233.912 600.261 234.054 601.065 234.338 601.764C234.628 602.457 235.054 603.003 235.616 603.401C236.184 603.793 236.889 603.989 237.73 603.989Z" fill="white"/>
<path d="M222.551 606.273C221.46 606.273 220.497 605.997 219.662 605.446C218.827 604.889 218.173 604.105 217.702 603.094C217.23 602.077 216.994 600.875 216.994 599.489C216.994 598.114 217.23 596.92 217.702 595.909C218.173 594.898 218.829 594.116 219.67 593.565C220.511 593.014 221.483 592.739 222.585 592.739C223.437 592.739 224.111 592.881 224.605 593.165C225.105 593.443 225.486 593.761 225.747 594.119C226.014 594.472 226.221 594.761 226.369 594.989H226.54V588.545H228.551V606H226.608V603.989H226.369C226.221 604.227 226.011 604.528 225.738 604.892C225.466 605.25 225.077 605.571 224.571 605.855C224.065 606.134 223.392 606.273 222.551 606.273ZM222.824 604.466C223.631 604.466 224.312 604.256 224.869 603.835C225.426 603.409 225.849 602.821 226.139 602.071C226.429 601.315 226.574 600.443 226.574 599.455C226.574 598.477 226.432 597.622 226.148 596.889C225.863 596.151 225.443 595.577 224.886 595.168C224.329 594.753 223.642 594.545 222.824 594.545C221.971 594.545 221.261 594.764 220.693 595.202C220.13 595.634 219.707 596.222 219.423 596.966C219.145 597.705 219.005 598.534 219.005 599.455C219.005 600.386 219.148 601.233 219.432 601.994C219.721 602.75 220.148 603.352 220.71 603.801C221.278 604.244 221.983 604.466 222.824 604.466Z" fill="white"/>
<path d="M205.58 598.125V606H203.569V592.909H205.512V594.955H205.682C205.989 594.29 206.455 593.756 207.08 593.352C207.705 592.943 208.512 592.739 209.501 592.739C210.387 592.739 211.163 592.92 211.827 593.284C212.492 593.642 213.009 594.188 213.379 594.92C213.748 595.648 213.932 596.568 213.932 597.682V606H211.921V597.818C211.921 596.79 211.654 595.989 211.12 595.415C210.586 594.835 209.853 594.545 208.921 594.545C208.279 594.545 207.705 594.685 207.2 594.963C206.7 595.241 206.305 595.648 206.015 596.182C205.725 596.716 205.58 597.364 205.58 598.125Z" fill="white"/>
<path d="M197.873 606V592.909H199.885V606H197.873ZM198.896 590.727C198.504 590.727 198.166 590.594 197.882 590.327C197.604 590.06 197.464 589.739 197.464 589.364C197.464 588.989 197.604 588.668 197.882 588.401C198.166 588.134 198.504 588 198.896 588C199.288 588 199.623 588.134 199.902 588.401C200.186 588.668 200.328 588.989 200.328 589.364C200.328 589.739 200.186 590.06 199.902 590.327C199.623 590.594 199.288 590.727 198.896 590.727Z" fill="white"/>
<path d="M176.795 588.545H179.317L185.249 603.034H185.454L191.386 588.545H193.908V606H191.931V592.739H191.761L186.306 606H184.397L178.942 592.739H178.772V606H176.795V588.545Z" fill="white"/>
<path d="M157.708 610.909C157.367 610.909 157.063 610.881 156.796 610.824C156.529 610.773 156.344 610.722 156.242 610.67L156.754 608.898C157.242 609.023 157.674 609.068 158.049 609.034C158.424 609 158.756 608.832 159.046 608.531C159.342 608.236 159.611 607.756 159.856 607.091L160.231 606.068L155.39 592.909H157.572L161.185 603.341H161.322L164.935 592.909H167.117L161.56 607.909C161.31 608.585 161.001 609.145 160.631 609.588C160.262 610.037 159.833 610.369 159.344 610.585C158.861 610.801 158.316 610.909 157.708 610.909Z" fill="white"/>
<path d="M142.248 606V588.545H144.259V594.989H144.43C144.577 594.761 144.782 594.472 145.043 594.119C145.31 593.761 145.691 593.443 146.185 593.165C146.685 592.881 147.361 592.739 148.214 592.739C149.316 592.739 150.288 593.014 151.128 593.565C151.969 594.116 152.626 594.898 153.097 595.909C153.569 596.92 153.805 598.114 153.805 599.489C153.805 600.875 153.569 602.077 153.097 603.094C152.626 604.105 151.972 604.889 151.137 605.446C150.302 605.997 149.339 606.273 148.248 606.273C147.407 606.273 146.734 606.134 146.228 605.855C145.722 605.571 145.333 605.25 145.06 604.892C144.788 604.528 144.577 604.227 144.43 603.989H144.191V606H142.248ZM144.225 599.455C144.225 600.443 144.37 601.315 144.66 602.071C144.95 602.821 145.373 603.409 145.93 603.835C146.486 604.256 147.168 604.466 147.975 604.466C148.816 604.466 149.518 604.244 150.08 603.801C150.648 603.352 151.075 602.75 151.359 601.994C151.648 601.233 151.793 600.386 151.793 599.455C151.793 598.534 151.651 597.705 151.367 596.966C151.089 596.222 150.665 595.634 150.097 595.202C149.535 594.764 148.827 594.545 147.975 594.545C147.157 594.545 146.469 594.753 145.913 595.168C145.356 595.577 144.935 596.151 144.651 596.889C144.367 597.622 144.225 598.477 144.225 599.455Z" fill="white"/>
<path d="M125.262 606.273C124.171 606.273 123.208 605.997 122.373 605.446C121.537 604.889 120.884 604.105 120.412 603.094C119.941 602.077 119.705 600.875 119.705 599.489C119.705 598.114 119.941 596.92 120.412 595.909C120.884 594.898 121.54 594.116 122.381 593.565C123.222 593.014 124.194 592.739 125.296 592.739C126.148 592.739 126.822 592.881 127.316 593.165C127.816 593.443 128.197 593.761 128.458 594.119C128.725 594.472 128.932 594.761 129.08 594.989H129.251V588.545H131.262V606H129.319V603.989H129.08C128.932 604.227 128.722 604.528 128.449 604.892C128.177 605.25 127.787 605.571 127.282 605.855C126.776 606.134 126.103 606.273 125.262 606.273ZM125.535 604.466C126.341 604.466 127.023 604.256 127.58 603.835C128.137 603.409 128.56 602.821 128.85 602.071C129.14 601.315 129.285 600.443 129.285 599.455C129.285 598.477 129.143 597.622 128.858 596.889C128.574 596.151 128.154 595.577 127.597 595.168C127.04 594.753 126.353 594.545 125.535 594.545C124.682 594.545 123.972 594.764 123.404 595.202C122.841 595.634 122.418 596.222 122.134 596.966C121.856 597.705 121.716 598.534 121.716 599.455C121.716 600.386 121.858 601.233 122.143 601.994C122.432 602.75 122.858 603.352 123.421 603.801C123.989 604.244 124.694 604.466 125.535 604.466Z" fill="white"/>
<path d="M111.839 606.273C110.577 606.273 109.489 605.994 108.574 605.438C107.665 604.875 106.964 604.091 106.469 603.085C105.981 602.074 105.736 600.898 105.736 599.557C105.736 598.216 105.981 597.034 106.469 596.011C106.964 594.983 107.651 594.182 108.532 593.608C109.418 593.028 110.452 592.739 111.634 592.739C112.316 592.739 112.989 592.852 113.654 593.08C114.319 593.307 114.924 593.676 115.469 594.188C116.015 594.693 116.449 595.364 116.773 596.199C117.097 597.034 117.259 598.063 117.259 599.284V600.136H107.168V598.398H115.214C115.214 597.659 115.066 597 114.77 596.42C114.481 595.841 114.066 595.384 113.526 595.048C112.992 594.713 112.361 594.545 111.634 594.545C110.833 594.545 110.14 594.744 109.555 595.142C108.975 595.534 108.529 596.045 108.216 596.676C107.904 597.307 107.748 597.983 107.748 598.705V599.864C107.748 600.852 107.918 601.69 108.259 602.378C108.606 603.06 109.086 603.58 109.699 603.938C110.313 604.29 111.026 604.466 111.839 604.466C112.367 604.466 112.844 604.392 113.27 604.244C113.702 604.091 114.074 603.864 114.387 603.563C114.699 603.256 114.941 602.875 115.111 602.42L117.055 602.966C116.85 603.625 116.506 604.205 116.023 604.705C115.54 605.199 114.944 605.585 114.233 605.864C113.523 606.136 112.725 606.273 111.839 606.273Z" fill="white"/>
<path d="M97.8188 606V592.909H99.762V594.886H99.8984C100.137 594.239 100.569 593.713 101.194 593.31C101.819 592.906 102.523 592.705 103.307 592.705C103.455 592.705 103.64 592.707 103.861 592.713C104.083 592.719 104.251 592.727 104.364 592.739V594.784C104.296 594.767 104.14 594.741 103.896 594.707C103.657 594.668 103.404 594.648 103.137 594.648C102.501 594.648 101.932 594.781 101.432 595.048C100.938 595.31 100.546 595.673 100.256 596.139C99.9723 596.599 99.8302 597.125 99.8302 597.716V606H97.8188Z" fill="white"/>
<path d="M89.3386 606.273C88.0772 606.273 86.9892 605.994 86.0744 605.438C85.1653 604.875 84.4636 604.091 83.9693 603.085C83.4806 602.074 83.2363 600.898 83.2363 599.557C83.2363 598.216 83.4806 597.034 83.9693 596.011C84.4636 594.983 85.1511 594.182 86.0318 593.608C86.9181 593.028 87.9522 592.739 89.1341 592.739C89.8159 592.739 90.4892 592.852 91.1539 593.08C91.8187 593.307 92.4238 593.676 92.9693 594.188C93.5147 594.693 93.9494 595.364 94.2733 596.199C94.5971 597.034 94.7591 598.063 94.7591 599.284V600.136H84.6681V598.398H92.7136C92.7136 597.659 92.5659 597 92.2704 596.42C91.9806 595.841 91.5659 595.384 91.0261 595.048C90.492 594.713 89.8613 594.545 89.1341 594.545C88.3329 594.545 87.6397 594.744 87.0545 595.142C86.475 595.534 86.0289 596.045 85.7164 596.676C85.4039 597.307 85.2477 597.983 85.2477 598.705V599.864C85.2477 600.852 85.4181 601.69 85.7591 602.378C86.1056 603.06 86.5858 603.58 87.1994 603.938C87.813 604.29 88.5261 604.466 89.3386 604.466C89.867 604.466 90.3443 604.392 90.7704 604.244C91.2022 604.091 91.5744 603.864 91.8869 603.563C92.1994 603.256 92.4409 602.875 92.6113 602.42L94.5545 602.966C94.35 603.625 94.0062 604.205 93.5233 604.705C93.0403 605.199 92.4437 605.585 91.7335 605.864C91.0233 606.136 90.225 606.273 89.3386 606.273Z" fill="white"/>
<path d="M67.7613 606L63.7727 592.909H65.8863L68.7159 602.932H68.8523L71.6477 592.909H73.7954L76.5568 602.898H76.6932L79.5227 592.909H81.6363L77.6477 606H75.6704L72.8068 595.943H72.6023L69.7386 606H67.7613Z" fill="white"/>
<path d="M56.2385 606.273C55.0566 606.273 54.0197 605.991 53.1277 605.429C52.2413 604.866 51.5481 604.08 51.0481 603.068C50.5538 602.057 50.3066 600.875 50.3066 599.523C50.3066 598.159 50.5538 596.969 51.0481 595.952C51.5481 594.935 52.2413 594.145 53.1277 593.582C54.0197 593.02 55.0566 592.739 56.2385 592.739C57.4203 592.739 58.4544 593.02 59.3407 593.582C60.2328 594.145 60.926 594.935 61.4203 595.952C61.9203 596.969 62.1703 598.159 62.1703 599.523C62.1703 600.875 61.9203 602.057 61.4203 603.068C60.926 604.08 60.2328 604.866 59.3407 605.429C58.4544 605.991 57.4203 606.273 56.2385 606.273ZM56.2385 604.466C57.1362 604.466 57.8748 604.236 58.4544 603.776C59.0339 603.315 59.4629 602.71 59.7413 601.96C60.0197 601.21 60.1589 600.398 60.1589 599.523C60.1589 598.648 60.0197 597.832 59.7413 597.077C59.4629 596.321 59.0339 595.71 58.4544 595.244C57.8748 594.778 57.1362 594.545 56.2385 594.545C55.3407 594.545 54.6021 594.778 54.0226 595.244C53.443 595.71 53.014 596.321 52.7356 597.077C52.4572 597.832 52.318 598.648 52.318 599.523C52.318 600.398 52.4572 601.21 52.7356 601.96C53.014 602.71 53.443 603.315 54.0226 603.776C54.6021 604.236 55.3407 604.466 56.2385 604.466Z" fill="white"/>
<path d="M36.0994 606V588.545H41.9971C43.3664 588.545 44.4857 588.793 45.355 589.287C46.23 589.776 46.8778 590.438 47.2982 591.273C47.7187 592.108 47.9289 593.04 47.9289 594.068C47.9289 595.097 47.7187 596.031 47.2982 596.872C46.8835 597.713 46.2414 598.384 45.3721 598.884C44.5028 599.378 43.3891 599.625 42.0312 599.625H37.8039V597.75H41.963C42.9005 597.75 43.6533 597.588 44.2215 597.264C44.7897 596.94 45.2016 596.503 45.4573 595.952C45.7187 595.395 45.8494 594.767 45.8494 594.068C45.8494 593.369 45.7187 592.744 45.4573 592.193C45.2016 591.642 44.7869 591.21 44.213 590.898C43.6391 590.58 42.8778 590.42 41.9289 590.42H38.213V606H36.0994Z" fill="white"/>
<path fill-rule="evenodd" clip-rule="evenodd" d="M208.238 227L265.255 312.405L193.68 409.941H251.183L294.128 350.255L330.765 409.941H388.753L320.574 312.405L380.989 227H322.273L291.702 274.312L266.954 227H208.238ZM79.5409 326.667V227.19H31.9858V333.218C31.9858 361.687 38.5368 382.472 51.6387 395.574C64.7406 408.675 84.7978 415.226 111.81 415.226C138.823 415.226 158.799 408.675 171.739 395.574C184.841 382.472 191.392 361.687 191.392 333.218V227.19H144.08V326.667C144.08 332.005 143.837 337.505 143.352 343.166C143.028 348.665 141.815 353.68 139.713 358.209C137.61 362.738 134.375 366.458 130.007 369.37C125.802 372.12 119.736 373.494 111.81 373.494C103.885 373.494 97.738 372.12 93.3707 369.37C89.0034 366.458 85.7683 362.738 83.6655 358.209C81.7245 353.68 80.5114 348.665 80.0261 343.166C79.7026 337.505 79.5409 332.005 79.5409 326.667Z" fill="white"/>
<path fill-rule="evenodd" clip-rule="evenodd" d="M62.8062 31C51.0588 31 40.8062 39.976 40.8062 51.9173V146.083C40.8062 151.493 42.9107 156.294 46.3053 159.928C42.203 162.816 38.7039 166.829 36.0653 171.579L28.5132 185.172C24.0697 193.171 29.8533 203 39.0031 203L244.609 203C253.759 203 259.542 193.171 255.099 185.172L247.547 171.579C244.908 166.829 241.409 162.816 237.307 159.928C240.702 156.295 242.806 151.493 242.806 146.083V51.9173C242.806 39.976 232.554 31 220.806 31H62.8062ZM220.806 155C226.732 155 230.806 150.619 230.806 146.083V51.9173C230.806 47.3814 226.732 43 220.806 43H62.8062C56.8804 43 52.8062 47.3814 52.8062 51.9173V146.083C52.8062 150.619 56.8804 155 62.8062 155H220.806ZM62.8062 167H61.3992C56.1816 167 50.494 170.316 46.5552 177.406L39.0031 191L244.609 191L237.057 177.406C233.118 170.316 227.43 167 222.213 167L220.806 167H62.8062ZM111.893 177.735C112.438 176.102 113.966 175 115.688 175H167.922C169.644 175 171.172 176.102 171.717 177.735L173.05 181.735C173.914 184.325 171.986 187 169.255 187H114.355C111.625 187 109.697 184.325 110.56 181.735L111.893 177.735ZM275.986 53C275.986 40.8497 285.836 31 297.986 31H361.986C374.136 31 383.986 40.8497 383.986 53V181C383.986 193.15 374.136 203 361.986 203H297.986C285.836 203 275.986 193.15 275.986 181V53ZM297.986 43C292.463 43 287.986 47.4772 287.986 53V181C287.986 186.523 292.463 191 297.986 191H361.986C367.509 191 371.986 186.523 371.986 181V53C371.986 47.4772 367.509 43 361.986 43H356.986V44C356.986 48.4183 353.404 52 348.986 52H310.986C306.568 52 302.986 48.4183 302.986 44V43H297.986Z" fill="url(#paint0_linear_230_5849)"/>
<defs>
<linearGradient id="paint0_linear_230_5849" x1="8.93936" y1="15.2161" x2="287.823" y2="337.457" gradientUnits="userSpaceOnUse">
<stop stop-color="#A385FC"/>
<stop offset="0.47" stop-color="white"/>
<stop offset="1" stop-color="#9B7BFB"/>
</linearGradient>
</defs>
</svg>
