<svg width="420" height="639" viewBox="0 0 420 639" fill="none" xmlns="http://www.w3.org/2000/svg">
<rect width="420" height="639" fill="#231F20"/>
<path d="M212.694 540.48C212.595 539.389 212.153 538.541 211.37 537.936C210.596 537.321 209.491 537.014 208.053 537.014C207.101 537.014 206.308 537.138 205.673 537.386C205.038 537.634 204.562 537.976 204.245 538.412C203.928 538.839 203.764 539.329 203.754 539.885C203.734 540.341 203.823 540.743 204.022 541.09C204.23 541.437 204.528 541.744 204.914 542.012C205.311 542.27 205.787 542.498 206.342 542.696C206.898 542.894 207.522 543.068 208.216 543.217L210.834 543.812C212.342 544.139 213.671 544.575 214.821 545.121C215.981 545.666 216.953 546.316 217.736 547.069C218.53 547.823 219.13 548.691 219.536 549.672C219.943 550.654 220.151 551.755 220.161 552.974C220.151 554.898 219.665 556.549 218.703 557.928C217.741 559.306 216.358 560.362 214.553 561.096C212.758 561.83 210.591 562.197 208.053 562.197C205.504 562.197 203.283 561.815 201.389 561.051C199.495 560.288 198.022 559.128 196.971 557.571C195.92 556.014 195.38 554.045 195.35 551.666H202.4C202.46 552.647 202.723 553.465 203.189 554.12C203.655 554.774 204.295 555.27 205.108 555.607C205.931 555.944 206.883 556.113 207.964 556.113C208.955 556.113 209.798 555.979 210.492 555.711C211.196 555.444 211.737 555.072 212.114 554.596C212.49 554.12 212.684 553.574 212.694 552.96C212.684 552.384 212.505 551.894 212.158 551.487C211.811 551.071 211.276 550.714 210.552 550.416C209.838 550.109 208.925 549.826 207.815 549.568L204.632 548.824C201.994 548.22 199.916 547.243 198.399 545.894C196.882 544.536 196.128 542.701 196.138 540.39C196.128 538.506 196.634 536.855 197.655 535.437C198.677 534.019 200.09 532.913 201.895 532.12C203.7 531.327 205.757 530.93 208.068 530.93C210.428 530.93 212.476 531.332 214.211 532.135C215.956 532.928 217.31 534.044 218.272 535.482C219.234 536.92 219.725 538.586 219.744 540.48H212.694Z" fill="#F47114"/>
<path d="M176.89 561.81H165.63V531.347H176.875C179.979 531.347 182.652 531.957 184.893 533.176C187.144 534.386 188.879 536.131 190.099 538.412C191.319 540.683 191.929 543.4 191.929 546.563C191.929 549.737 191.319 552.464 190.099 554.745C188.889 557.025 187.159 558.776 184.908 559.995C182.657 561.205 179.984 561.81 176.89 561.81ZM172.993 555.533H176.608C178.313 555.533 179.756 555.245 180.936 554.67C182.126 554.085 183.024 553.138 183.629 551.829C184.243 550.51 184.551 548.755 184.551 546.563C184.551 544.372 184.243 542.627 183.629 541.328C183.014 540.019 182.106 539.077 180.906 538.501C179.716 537.916 178.249 537.624 176.504 537.624H172.993V555.533Z" fill="#F47114"/>
<path d="M137.896 561.81V531.347H150.48C152.761 531.347 154.729 531.758 156.385 532.581C158.051 533.394 159.336 534.565 160.238 536.092C161.14 537.609 161.592 539.409 161.592 541.491C161.592 543.603 161.131 545.398 160.208 546.876C159.286 548.344 157.977 549.464 156.281 550.238C154.586 551.001 152.578 551.383 150.257 551.383H142.299V545.582H148.889C149.999 545.582 150.926 545.438 151.67 545.15C152.424 544.853 152.994 544.407 153.381 543.812C153.768 543.207 153.961 542.433 153.961 541.491C153.961 540.549 153.768 539.771 153.381 539.156C152.994 538.531 152.424 538.065 151.67 537.758C150.917 537.44 149.989 537.282 148.889 537.282H145.259V561.81H137.896ZM155.047 547.887L162.633 561.81H154.601L147.163 547.887H155.047Z" fill="#F47114"/>
<path d="M112.171 561.81H104.257L114.536 531.347H124.338L134.617 561.81H126.703L119.549 539.022H119.311L112.171 561.81ZM111.115 549.821H127.655V555.414H111.115V549.821Z" fill="#F47114"/>
<path d="M71.6109 561.81L62.7456 531.347H70.8821L75.4784 551.309H75.7312L80.982 531.347H87.6161L92.8669 551.353H93.1197L97.7309 531.347H105.852L97.002 561.81H89.9068L84.418 543.336H84.18L78.6913 561.81H71.6109Z" fill="#F47114"/>
<path d="M41.895 561.81H33.9817L44.2601 531.347H54.0625L64.341 561.81H56.4276L49.2729 539.022H49.0349L41.895 561.81ZM40.8389 549.821H57.3796V555.414H40.8389V549.821Z" fill="#F47114"/>
<path d="M287.837 519.81V489.347H305.508V491.846H290.619V503.314H304.571V505.813H290.619V517.311H305.806V519.81H287.837Z" fill="#F47114"/>
<path d="M281.303 498.866H278.507C278.299 497.825 277.922 496.863 277.376 495.981C276.841 495.088 276.167 494.31 275.354 493.645C274.54 492.981 273.618 492.465 272.587 492.098C271.556 491.732 270.44 491.548 269.24 491.548C267.316 491.548 265.561 492.049 263.974 493.05C262.398 494.052 261.133 495.525 260.181 497.468C259.239 499.402 258.768 501.772 258.768 504.578C258.768 507.405 259.239 509.785 260.181 511.718C261.133 513.652 262.398 515.12 263.974 516.121C265.561 517.113 267.316 517.609 269.24 517.609C270.44 517.609 271.556 517.425 272.587 517.058C273.618 516.691 274.54 516.181 275.354 515.526C276.167 514.862 276.841 514.083 277.376 513.191C277.922 512.298 278.299 511.331 278.507 510.29H281.303C281.056 511.688 280.589 512.992 279.905 514.202C279.231 515.402 278.368 516.453 277.317 517.356C276.276 518.258 275.076 518.962 273.717 519.468C272.359 519.974 270.866 520.227 269.24 520.227C266.682 520.227 264.411 519.587 262.427 518.308C260.444 517.019 258.887 515.204 257.757 512.864C256.636 510.523 256.076 507.762 256.076 504.578C256.076 501.395 256.636 498.633 257.757 496.293C258.887 493.953 260.444 492.143 262.427 490.864C264.411 489.575 266.682 488.93 269.24 488.93C270.866 488.93 272.359 489.183 273.717 489.689C275.076 490.185 276.276 490.889 277.317 491.801C278.368 492.703 279.231 493.755 279.905 494.954C280.589 496.154 281.056 497.458 281.303 498.866Z" fill="#F47114"/>
<path d="M249.345 489.347V519.81H246.638L228.639 494.3H228.401V519.81H225.62V489.347H228.312L246.37 514.887H246.608V489.347H249.345Z" fill="#F47114"/>
<path d="M200.75 519.81V489.347H218.421V491.846H203.531V503.314H217.484V505.813H203.531V517.311H218.718V519.81H200.75Z" fill="#F47114"/>
<path d="M177.188 519.81V489.347H179.97V517.311H194.487V519.81H177.188Z" fill="#F47114"/>
<path d="M153.626 519.81V489.347H156.408V517.311H170.926V519.81H153.626Z" fill="#F47114"/>
<path d="M128.756 519.81V489.347H146.427V491.846H131.537V503.314H145.49V505.813H131.537V517.311H146.724V519.81H128.756Z" fill="#F47114"/>
<path d="M122.222 498.866H119.426C119.217 497.825 118.841 496.863 118.295 495.981C117.76 495.088 117.085 494.31 116.272 493.645C115.459 492.981 114.537 492.465 113.506 492.098C112.474 491.732 111.359 491.548 110.159 491.548C108.235 491.548 106.48 492.049 104.893 493.05C103.316 494.052 102.052 495.525 101.1 497.468C100.158 499.402 99.687 501.772 99.687 504.578C99.687 507.405 100.158 509.785 101.1 511.718C102.052 513.652 103.316 515.12 104.893 516.121C106.48 517.113 108.235 517.609 110.159 517.609C111.359 517.609 112.474 517.425 113.506 517.058C114.537 516.691 115.459 516.181 116.272 515.526C117.085 514.862 117.76 514.083 118.295 513.191C118.841 512.298 119.217 511.331 119.426 510.29H122.222C121.974 511.688 121.508 512.992 120.824 514.202C120.15 515.402 119.287 516.453 118.236 517.356C117.194 518.258 115.995 518.962 114.636 519.468C113.277 519.974 111.785 520.227 110.159 520.227C107.6 520.227 105.329 519.587 103.346 518.308C101.363 517.019 99.8059 515.204 98.6755 512.864C97.5549 510.523 96.9946 507.762 96.9946 504.578C96.9946 501.395 97.5549 498.633 98.6755 496.293C99.8059 493.953 101.363 492.143 103.346 490.864C105.329 489.575 107.6 488.93 110.159 488.93C111.785 488.93 113.277 489.183 114.636 489.689C115.995 490.185 117.194 490.889 118.236 491.801C119.287 492.703 120.15 493.755 120.824 494.954C121.508 496.154 121.974 497.458 122.222 498.866Z" fill="#F47114"/>
<path d="M73.1504 489.347L78.7135 498.971H78.9515L84.5742 489.347H92.8147L83.6222 504.578L93.1122 519.81H84.6634L78.9515 510.082H78.7135L73.0016 519.81H64.6123L74.0577 504.578L64.8503 489.347H73.1504Z" fill="#F47114"/>
<path d="M53.7352 489.347H61.0833V508.996C61.0833 511.267 60.5428 513.245 59.4619 514.931C58.381 516.607 56.8737 517.906 54.94 518.828C53.0063 519.741 50.7602 520.197 48.2018 520.197C45.6136 520.197 43.3526 519.741 41.4189 518.828C39.4852 517.906 37.9829 516.607 36.9119 514.931C35.8409 513.245 35.3054 511.267 35.3054 508.996V489.347H42.6684V508.357C42.6684 509.408 42.8965 510.345 43.3526 511.168C43.8187 511.991 44.4682 512.636 45.3012 513.102C46.1342 513.568 47.1011 513.801 48.2018 513.801C49.3025 513.801 50.2644 513.568 51.0875 513.102C51.9205 512.636 52.57 511.991 53.0361 511.168C53.5021 510.345 53.7352 509.408 53.7352 508.357V489.347Z" fill="#F47114"/>
<path d="M146.55 477.81V447.347H156.382C158.544 447.347 160.349 447.738 161.796 448.522C163.254 449.295 164.35 450.371 165.084 451.75C165.827 453.118 166.199 454.69 166.199 456.465C166.199 458.24 165.827 459.807 165.084 461.165C164.35 462.524 163.259 463.585 161.811 464.348C160.363 465.112 158.569 465.494 156.427 465.494H148.052V462.95H156.352C157.939 462.95 159.258 462.687 160.309 462.162C161.37 461.636 162.158 460.888 162.674 459.916C163.2 458.944 163.462 457.794 163.462 456.465C163.462 455.136 163.2 453.976 162.674 452.984C162.148 451.983 161.355 451.209 160.294 450.664C159.243 450.118 157.914 449.846 156.308 449.846H149.331V477.81H146.55ZM159.982 464.066L167.479 477.81H164.266L156.843 464.066H159.982Z" fill="#F47114"/>
<path d="M121.679 477.81V447.347H139.35V449.846H124.461V461.314H138.413V463.813H124.461V475.311H139.648V477.81H121.679Z" fill="#F47114"/>
<path d="M94.5588 477.81V447.347H104.837C106.821 447.347 108.472 447.694 109.791 448.388C111.119 449.082 112.116 450.029 112.78 451.229C113.445 452.429 113.777 453.792 113.777 455.32C113.777 456.589 113.564 457.675 113.137 458.577C112.711 459.479 112.131 460.208 111.397 460.764C110.663 461.319 109.845 461.721 108.943 461.969V462.207C109.924 462.276 110.876 462.623 111.799 463.248C112.721 463.863 113.479 464.725 114.074 465.836C114.669 466.947 114.967 468.275 114.967 469.822C114.967 471.359 114.625 472.733 113.941 473.943C113.256 475.143 112.205 476.09 110.787 476.784C109.379 477.468 107.584 477.81 105.402 477.81H94.5588ZM97.3404 475.311H105.402C107.753 475.311 109.488 474.791 110.609 473.749C111.739 472.708 112.304 471.399 112.304 469.822C112.304 468.662 112.022 467.611 111.457 466.669C110.901 465.717 110.113 464.963 109.091 464.408C108.08 463.853 106.89 463.575 105.521 463.575H97.3404V475.311ZM97.3404 461.106H105.09C106.29 461.106 107.341 460.858 108.244 460.362C109.146 459.866 109.85 459.182 110.356 458.309C110.862 457.437 111.114 456.44 111.114 455.32C111.114 453.703 110.589 452.389 109.538 451.378C108.487 450.356 106.92 449.846 104.837 449.846H97.3404V461.106Z" fill="#F47114"/>
<path d="M64.5828 447.347H67.7957L76.8246 461.805H77.0924L86.1213 447.347H89.3343L78.3419 464.616V477.81H75.5752V464.616L64.5828 447.347Z" fill="#F47114"/>
<path d="M60.905 456.866H58.1085C57.9003 455.825 57.5235 454.863 56.9781 453.981C56.4426 453.088 55.7683 452.31 54.9551 451.645C54.142 450.981 53.2197 450.465 52.1884 450.098C51.1571 449.732 50.0415 449.548 48.8416 449.548C46.9178 449.548 45.1626 450.049 43.576 451.05C41.9992 452.052 40.7349 453.525 39.7829 455.468C38.8408 457.402 38.3698 459.772 38.3698 462.578C38.3698 465.405 38.8408 467.785 39.7829 469.718C40.7349 471.652 41.9992 473.12 43.576 474.121C45.1626 475.113 46.9178 475.609 48.8416 475.609C50.0415 475.609 51.1571 475.425 52.1884 475.058C53.2197 474.691 54.142 474.181 54.9551 473.526C55.7683 472.862 56.4426 472.083 56.9781 471.191C57.5235 470.298 57.9003 469.331 58.1085 468.29H60.905C60.6571 469.688 60.191 470.992 59.5068 472.202C58.8324 473.402 57.9697 474.453 56.9186 475.356C55.8773 476.258 54.6774 476.962 53.3189 477.468C51.9603 477.974 50.4679 478.227 48.8416 478.227C46.2832 478.227 44.0123 477.587 42.029 476.308C40.0457 475.019 38.4888 473.204 37.3583 470.864C36.2378 468.523 35.6775 465.762 35.6775 462.578C35.6775 459.395 36.2378 456.633 37.3583 454.293C38.4888 451.953 40.0457 450.143 42.029 448.864C44.0123 447.575 46.2832 446.93 48.8416 446.93C50.4679 446.93 51.9603 447.183 53.3189 447.689C54.6774 448.185 55.8773 448.889 56.9186 449.801C57.9697 450.703 58.8324 451.755 59.5068 452.954C60.191 454.154 60.6571 455.458 60.905 456.866Z" fill="#F47114"/>
<path d="M269.301 606V588.545H271.312V594.989H271.483C271.631 594.761 271.835 594.472 272.096 594.119C272.364 593.761 272.744 593.443 273.239 593.165C273.739 592.881 274.415 592.739 275.267 592.739C276.369 592.739 277.341 593.014 278.182 593.565C279.023 594.116 279.679 594.898 280.15 595.909C280.622 596.92 280.858 598.114 280.858 599.489C280.858 600.875 280.622 602.077 280.15 603.094C279.679 604.105 279.025 604.889 278.19 605.446C277.355 605.997 276.392 606.273 275.301 606.273C274.46 606.273 273.787 606.134 273.281 605.855C272.775 605.571 272.386 605.25 272.114 604.892C271.841 604.528 271.631 604.227 271.483 603.989H271.244V606H269.301ZM271.278 599.455C271.278 600.443 271.423 601.315 271.713 602.071C272.003 602.821 272.426 603.409 272.983 603.835C273.54 604.256 274.221 604.466 275.028 604.466C275.869 604.466 276.571 604.244 277.133 603.801C277.702 603.352 278.128 602.75 278.412 601.994C278.702 601.233 278.846 600.386 278.846 599.455C278.846 598.534 278.704 597.705 278.42 596.966C278.142 596.222 277.719 595.634 277.15 595.202C276.588 594.764 275.881 594.545 275.028 594.545C274.21 594.545 273.523 594.753 272.966 595.168C272.409 595.577 271.989 596.151 271.704 596.889C271.42 597.622 271.278 598.477 271.278 599.455Z" fill="#F47114"/>
<path d="M263.333 600.648V592.909H265.344V606H263.333V603.784H263.197C262.89 604.449 262.413 605.014 261.765 605.48C261.117 605.94 260.299 606.17 259.31 606.17C258.492 606.17 257.765 605.992 257.128 605.634C256.492 605.27 255.992 604.724 255.628 603.997C255.265 603.264 255.083 602.341 255.083 601.227V592.909H257.094V601.091C257.094 602.045 257.361 602.807 257.896 603.375C258.435 603.943 259.123 604.227 259.958 604.227C260.458 604.227 260.967 604.099 261.484 603.844C262.006 603.588 262.444 603.196 262.796 602.668C263.154 602.139 263.333 601.466 263.333 600.648Z" fill="#F47114"/>
<path d="M246.153 606V592.909H248.096V594.886H248.233C248.472 594.239 248.903 593.713 249.528 593.31C250.153 592.906 250.858 592.705 251.642 592.705C251.79 592.705 251.974 592.707 252.196 592.713C252.418 592.719 252.585 592.727 252.699 592.739V594.784C252.631 594.767 252.474 594.741 252.23 594.707C251.991 594.668 251.739 594.648 251.471 594.648C250.835 594.648 250.267 594.781 249.767 595.048C249.273 595.31 248.881 595.673 248.591 596.139C248.307 596.599 248.165 597.125 248.165 597.716V606H246.153Z" fill="#F47114"/>
<path d="M236.812 611.182C235.841 611.182 235.005 611.057 234.307 610.807C233.608 610.563 233.025 610.239 232.559 609.835C232.099 609.438 231.733 609.011 231.46 608.557L233.062 607.432C233.244 607.67 233.474 607.943 233.753 608.25C234.031 608.563 234.412 608.832 234.895 609.06C235.383 609.293 236.022 609.409 236.812 609.409C237.869 609.409 238.741 609.153 239.429 608.642C240.116 608.131 240.46 607.33 240.46 606.239V603.58H240.29C240.142 603.818 239.932 604.114 239.659 604.466C239.392 604.813 239.005 605.122 238.5 605.395C238 605.662 237.324 605.795 236.471 605.795C235.415 605.795 234.466 605.545 233.625 605.045C232.79 604.545 232.128 603.818 231.639 602.864C231.156 601.909 230.915 600.75 230.915 599.386C230.915 598.045 231.15 596.878 231.622 595.884C232.094 594.884 232.75 594.111 233.591 593.565C234.432 593.014 235.403 592.739 236.505 592.739C237.358 592.739 238.034 592.881 238.534 593.165C239.04 593.443 239.426 593.761 239.693 594.119C239.966 594.472 240.176 594.761 240.324 594.989H240.528V592.909H242.471V606.375C242.471 607.5 242.216 608.415 241.704 609.119C241.199 609.83 240.517 610.349 239.659 610.679C238.807 611.014 237.858 611.182 236.812 611.182ZM236.744 603.989C237.551 603.989 238.233 603.804 238.79 603.435C239.346 603.065 239.77 602.534 240.059 601.841C240.349 601.148 240.494 600.318 240.494 599.352C240.494 598.409 240.352 597.577 240.068 596.855C239.784 596.134 239.363 595.568 238.807 595.159C238.25 594.75 237.562 594.545 236.744 594.545C235.892 594.545 235.182 594.761 234.613 595.193C234.051 595.625 233.628 596.205 233.344 596.932C233.065 597.659 232.926 598.466 232.926 599.352C232.926 600.261 233.068 601.065 233.352 601.764C233.642 602.457 234.068 603.003 234.63 603.401C235.199 603.793 235.903 603.989 236.744 603.989Z" fill="#F47114"/>
<path d="M221.565 606.273C220.474 606.273 219.511 605.997 218.676 605.446C217.841 604.889 217.187 604.105 216.716 603.094C216.244 602.077 216.008 600.875 216.008 599.489C216.008 598.114 216.244 596.92 216.716 595.909C217.187 594.898 217.844 594.116 218.684 593.565C219.525 593.014 220.497 592.739 221.599 592.739C222.451 592.739 223.125 592.881 223.619 593.165C224.119 593.443 224.5 593.761 224.761 594.119C225.028 594.472 225.236 594.761 225.383 594.989H225.554V588.545H227.565V606H225.622V603.989H225.383C225.236 604.227 225.025 604.528 224.753 604.892C224.48 605.25 224.091 605.571 223.585 605.855C223.079 606.134 222.406 606.273 221.565 606.273ZM221.838 604.466C222.645 604.466 223.326 604.256 223.883 603.835C224.44 603.409 224.863 602.821 225.153 602.071C225.443 601.315 225.588 600.443 225.588 599.455C225.588 598.477 225.446 597.622 225.162 596.889C224.878 596.151 224.457 595.577 223.9 595.168C223.344 594.753 222.656 594.545 221.838 594.545C220.986 594.545 220.275 594.764 219.707 595.202C219.145 595.634 218.721 596.222 218.437 596.966C218.159 597.705 218.02 598.534 218.02 599.455C218.02 600.386 218.162 601.233 218.446 601.994C218.736 602.75 219.162 603.352 219.724 603.801C220.292 604.244 220.997 604.466 221.838 604.466Z" fill="#F47114"/>
<path d="M204.594 598.125V606H202.583V592.909H204.526V594.955H204.697C205.003 594.29 205.469 593.756 206.094 593.352C206.719 592.943 207.526 592.739 208.515 592.739C209.401 592.739 210.177 592.92 210.842 593.284C211.506 593.642 212.023 594.188 212.393 594.92C212.762 595.648 212.947 596.568 212.947 597.682V606H210.935V597.818C210.935 596.79 210.668 595.989 210.134 595.415C209.6 594.835 208.867 594.545 207.935 594.545C207.293 594.545 206.719 594.685 206.214 594.963C205.714 595.241 205.319 595.648 205.029 596.182C204.739 596.716 204.594 597.364 204.594 598.125Z" fill="#F47114"/>
<path d="M196.888 606V592.909H198.899V606H196.888ZM197.91 590.727C197.518 590.727 197.18 590.594 196.896 590.327C196.618 590.06 196.479 589.739 196.479 589.364C196.479 588.989 196.618 588.668 196.896 588.401C197.18 588.134 197.518 588 197.91 588C198.302 588 198.638 588.134 198.916 588.401C199.2 588.668 199.342 588.989 199.342 589.364C199.342 589.739 199.2 590.06 198.916 590.327C198.638 590.594 198.302 590.727 197.91 590.727Z" fill="#F47114"/>
<path d="M175.809 588.545H178.332L184.263 603.034H184.468L190.4 588.545H192.922V606H190.945V592.739H190.775L185.32 606H183.411L177.957 592.739H177.786V606H175.809V588.545Z" fill="#F47114"/>
<path d="M156.722 610.909C156.381 610.909 156.077 610.881 155.81 610.824C155.543 610.773 155.359 610.722 155.256 610.67L155.768 608.898C156.256 609.023 156.688 609.068 157.063 609.034C157.438 609 157.771 608.832 158.06 608.531C158.356 608.236 158.626 607.756 158.87 607.091L159.245 606.068L154.404 592.909H156.586L160.2 603.341H160.336L163.95 592.909H166.131L160.575 607.909C160.325 608.585 160.015 609.145 159.646 609.588C159.276 610.037 158.847 610.369 158.359 610.585C157.876 610.801 157.33 610.909 156.722 610.909Z" fill="#F47114"/>
<path d="M141.262 606V588.545H143.273V594.989H143.444C143.592 594.761 143.796 594.472 144.057 594.119C144.324 593.761 144.705 593.443 145.199 593.165C145.699 592.881 146.376 592.739 147.228 592.739C148.33 592.739 149.302 593.014 150.143 593.565C150.984 594.116 151.64 594.898 152.111 595.909C152.583 596.92 152.819 598.114 152.819 599.489C152.819 600.875 152.583 602.077 152.111 603.094C151.64 604.105 150.986 604.889 150.151 605.446C149.316 605.997 148.353 606.273 147.262 606.273C146.421 606.273 145.748 606.134 145.242 605.855C144.736 605.571 144.347 605.25 144.074 604.892C143.802 604.528 143.592 604.227 143.444 603.989H143.205V606H141.262ZM143.239 599.455C143.239 600.443 143.384 601.315 143.674 602.071C143.964 602.821 144.387 603.409 144.944 603.835C145.501 604.256 146.182 604.466 146.989 604.466C147.83 604.466 148.532 604.244 149.094 603.801C149.663 603.352 150.089 602.75 150.373 601.994C150.663 601.233 150.807 600.386 150.807 599.455C150.807 598.534 150.665 597.705 150.381 596.966C150.103 596.222 149.68 595.634 149.111 595.202C148.549 594.764 147.842 594.545 146.989 594.545C146.171 594.545 145.484 594.753 144.927 595.168C144.37 595.577 143.949 596.151 143.665 596.889C143.381 597.622 143.239 598.477 143.239 599.455Z" fill="#F47114"/>
<path d="M124.276 606.273C123.185 606.273 122.222 605.997 121.387 605.446C120.552 604.889 119.898 604.105 119.427 603.094C118.955 602.077 118.719 600.875 118.719 599.489C118.719 598.114 118.955 596.92 119.427 595.909C119.898 594.898 120.554 594.116 121.395 593.565C122.236 593.014 123.208 592.739 124.31 592.739C125.162 592.739 125.836 592.881 126.33 593.165C126.83 593.443 127.211 593.761 127.472 594.119C127.739 594.472 127.947 594.761 128.094 594.989H128.265V588.545H130.276V606H128.333V603.989H128.094C127.947 604.227 127.736 604.528 127.464 604.892C127.191 605.25 126.802 605.571 126.296 605.855C125.79 606.134 125.117 606.273 124.276 606.273ZM124.549 604.466C125.356 604.466 126.037 604.256 126.594 603.835C127.151 603.409 127.574 602.821 127.864 602.071C128.154 601.315 128.299 600.443 128.299 599.455C128.299 598.477 128.157 597.622 127.873 596.889C127.589 596.151 127.168 595.577 126.611 595.168C126.054 594.753 125.367 594.545 124.549 594.545C123.697 594.545 122.986 594.764 122.418 595.202C121.856 595.634 121.432 596.222 121.148 596.966C120.87 597.705 120.731 598.534 120.731 599.455C120.731 600.386 120.873 601.233 121.157 601.994C121.447 602.75 121.873 603.352 122.435 603.801C123.003 604.244 123.708 604.466 124.549 604.466Z" fill="#F47114"/>
<path d="M110.853 606.273C109.591 606.273 108.503 605.994 107.589 605.438C106.679 604.875 105.978 604.091 105.483 603.085C104.995 602.074 104.75 600.898 104.75 599.557C104.75 598.216 104.995 597.034 105.483 596.011C105.978 594.983 106.665 594.182 107.546 593.608C108.432 593.028 109.466 592.739 110.648 592.739C111.33 592.739 112.003 592.852 112.668 593.08C113.333 593.307 113.938 593.676 114.483 594.188C115.029 594.693 115.464 595.364 115.787 596.199C116.111 597.034 116.273 598.063 116.273 599.284V600.136H106.182V598.398H114.228C114.228 597.659 114.08 597 113.785 596.42C113.495 595.841 113.08 595.384 112.54 595.048C112.006 594.713 111.375 594.545 110.648 594.545C109.847 594.545 109.154 594.744 108.569 595.142C107.989 595.534 107.543 596.045 107.231 596.676C106.918 597.307 106.762 597.983 106.762 598.705V599.864C106.762 600.852 106.932 601.69 107.273 602.378C107.62 603.06 108.1 603.58 108.714 603.938C109.327 604.29 110.04 604.466 110.853 604.466C111.381 604.466 111.858 604.392 112.285 604.244C112.716 604.091 113.089 603.864 113.401 603.563C113.714 603.256 113.955 602.875 114.125 602.42L116.069 602.966C115.864 603.625 115.52 604.205 115.037 604.705C114.554 605.199 113.958 605.585 113.248 605.864C112.537 606.136 111.739 606.273 110.853 606.273Z" fill="#F47114"/>
<path d="M96.833 606V592.909H98.7762V594.886H98.9126C99.1512 594.239 99.583 593.713 100.208 593.31C100.833 592.906 101.538 592.705 102.322 592.705C102.469 592.705 102.654 592.707 102.876 592.713C103.097 592.719 103.265 592.727 103.378 592.739V594.784C103.31 594.767 103.154 594.741 102.91 594.707C102.671 594.668 102.418 594.648 102.151 594.648C101.515 594.648 100.947 594.781 100.447 595.048C99.9523 595.31 99.5603 595.673 99.2705 596.139C98.9864 596.599 98.8444 597.125 98.8444 597.716V606H96.833Z" fill="#F47114"/>
<path d="M88.3528 606.273C87.0914 606.273 86.0033 605.994 85.0886 605.438C84.1795 604.875 83.4778 604.091 82.9834 603.085C82.4948 602.074 82.2505 600.898 82.2505 599.557C82.2505 598.216 82.4948 597.034 82.9834 596.011C83.4778 594.983 84.1653 594.182 85.0459 593.608C85.9323 593.028 86.9664 592.739 88.1482 592.739C88.83 592.739 89.5033 592.852 90.1681 593.08C90.8329 593.307 91.438 593.676 91.9834 594.188C92.5289 594.693 92.9636 595.364 93.2874 596.199C93.6113 597.034 93.7732 598.063 93.7732 599.284V600.136H83.6823V598.398H91.7278C91.7278 597.659 91.58 597 91.2846 596.42C90.9948 595.841 90.58 595.384 90.0403 595.048C89.5062 594.713 88.8755 594.545 88.1482 594.545C87.3471 594.545 86.6539 594.744 86.0687 595.142C85.4891 595.534 85.0431 596.045 84.7306 596.676C84.4181 597.307 84.2619 597.983 84.2619 598.705V599.864C84.2619 600.852 84.4323 601.69 84.7732 602.378C85.1198 603.06 85.5999 603.58 86.2136 603.938C86.8272 604.29 87.5403 604.466 88.3528 604.466C88.8812 604.466 89.3584 604.392 89.7846 604.244C90.2164 604.091 90.5886 603.864 90.9011 603.563C91.2136 603.256 91.455 602.875 91.6255 602.42L93.5687 602.966C93.3641 603.625 93.0204 604.205 92.5374 604.705C92.0545 605.199 91.4579 605.585 90.7476 605.864C90.0374 606.136 89.2391 606.273 88.3528 606.273Z" fill="#F47114"/>
<path d="M66.7755 606L62.7869 592.909H64.9005L67.73 602.932H67.8664L70.6619 592.909H72.8096L75.571 602.898H75.7073L78.5369 592.909H80.6505L76.6619 606H74.6846L71.821 595.943H71.6164L68.7528 606H66.7755Z" fill="#F47114"/>
<path d="M55.2526 606.273C54.0708 606.273 53.0339 605.991 52.1418 605.429C51.2555 604.866 50.5623 604.08 50.0623 603.068C49.568 602.057 49.3208 600.875 49.3208 599.523C49.3208 598.159 49.568 596.969 50.0623 595.952C50.5623 594.935 51.2555 594.145 52.1418 593.582C53.0339 593.02 54.0708 592.739 55.2526 592.739C56.4344 592.739 57.4685 593.02 58.3549 593.582C59.2469 594.145 59.9401 594.935 60.4344 595.952C60.9344 596.969 61.1844 598.159 61.1844 599.523C61.1844 600.875 60.9344 602.057 60.4344 603.068C59.9401 604.08 59.2469 604.866 58.3549 605.429C57.4685 605.991 56.4344 606.273 55.2526 606.273ZM55.2526 604.466C56.1503 604.466 56.889 604.236 57.4685 603.776C58.0481 603.315 58.4771 602.71 58.7555 601.96C59.0339 601.21 59.1731 600.398 59.1731 599.523C59.1731 598.648 59.0339 597.832 58.7555 597.077C58.4771 596.321 58.0481 595.71 57.4685 595.244C56.889 594.778 56.1503 594.545 55.2526 594.545C54.3549 594.545 53.6163 594.778 53.0367 595.244C52.4572 595.71 52.0282 596.321 51.7498 597.077C51.4714 597.832 51.3322 598.648 51.3322 599.523C51.3322 600.398 51.4714 601.21 51.7498 601.96C52.0282 602.71 52.4572 603.315 53.0367 603.776C53.6163 604.236 54.3549 604.466 55.2526 604.466Z" fill="#F47114"/>
<path d="M35.1135 606V588.545H41.0113C42.3806 588.545 43.4999 588.793 44.3692 589.287C45.2442 589.776 45.8919 590.438 46.3124 591.273C46.7328 592.108 46.9431 593.04 46.9431 594.068C46.9431 595.097 46.7328 596.031 46.3124 596.872C45.8976 597.713 45.2556 598.384 44.3863 598.884C43.5169 599.378 42.4033 599.625 41.0453 599.625H36.8181V597.75H40.9772C41.9147 597.75 42.6675 597.588 43.2357 597.264C43.8039 596.94 44.2158 596.503 44.4715 595.952C44.7328 595.395 44.8635 594.767 44.8635 594.068C44.8635 593.369 44.7328 592.744 44.4715 592.193C44.2158 591.642 43.801 591.21 43.2272 590.898C42.6533 590.58 41.8919 590.42 40.9431 590.42H37.2272V606H35.1135Z" fill="#F47114"/>
<path fill-rule="evenodd" clip-rule="evenodd" d="M207.252 227L264.27 312.405L192.694 409.941H250.197L293.142 350.255L329.779 409.941H387.767L319.589 312.405L380.003 227H321.287L290.716 274.312L265.968 227H207.252ZM78.555 326.667V227.19H31V333.218C31 361.687 37.5509 382.472 50.6528 395.574C63.7547 408.675 83.812 415.226 110.825 415.226C137.837 415.226 157.813 408.675 170.754 395.574C183.855 382.472 190.406 361.687 190.406 333.218V227.19H143.094V326.667C143.094 332.005 142.851 337.505 142.366 343.166C142.043 348.665 140.829 353.68 138.727 358.209C136.624 362.738 133.389 366.458 129.022 369.37C124.816 372.12 118.75 373.494 110.825 373.494C102.899 373.494 96.7521 372.12 92.3848 369.37C88.0175 366.458 84.7825 362.738 82.6797 358.209C80.7387 353.68 79.5255 348.665 79.0403 343.166C78.7168 337.505 78.555 332.005 78.555 326.667Z" fill="#F47114"/>
<path fill-rule="evenodd" clip-rule="evenodd" d="M61.8203 31C50.0729 31 39.8203 39.976 39.8203 51.9173V146.083C39.8203 151.493 41.9249 156.294 45.3195 159.928C41.2172 162.816 37.7181 166.829 35.0794 171.579L27.5274 185.172C23.0838 193.171 28.8674 203 38.0173 203L243.623 203C252.773 203 258.557 193.171 254.113 185.172L246.561 171.579C243.922 166.829 240.423 162.816 236.321 159.928C239.716 156.295 241.82 151.493 241.82 146.083V51.9173C241.82 39.976 231.568 31 219.82 31H61.8203ZM219.82 155C225.746 155 229.82 150.619 229.82 146.083V51.9173C229.82 47.3814 225.746 43 219.82 43H61.8203C55.8946 43 51.8203 47.3814 51.8203 51.9173V146.083C51.8203 150.619 55.8946 155 61.8203 155H219.82ZM61.8203 167H60.4133C55.1958 167 49.5081 170.316 45.5693 177.406L38.0173 191L243.623 191L236.071 177.406C232.132 170.316 226.445 167 221.227 167L219.82 167H61.8203ZM110.908 177.735C111.452 176.102 112.981 175 114.702 175H166.936C168.658 175 170.187 176.102 170.731 177.735L172.064 181.735C172.928 184.325 171 187 168.27 187H113.369C110.639 187 108.711 184.325 109.574 181.735L110.908 177.735ZM275 53C275 40.8497 284.85 31 297 31H361C373.15 31 383 40.8497 383 53V181C383 193.15 373.15 203 361 203H297C284.85 203 275 193.15 275 181V53ZM297 43C291.477 43 287 47.4772 287 53V181C287 186.523 291.477 191 297 191H361C366.523 191 371 186.523 371 181V53C371 47.4772 366.523 43 361 43H356V44C356 48.4183 352.418 52 348 52H310C305.582 52 302 48.4183 302 44V43H297Z" fill="url(#paint0_linear_230_5848)"/>
<defs>
<linearGradient id="paint0_linear_230_5848" x1="12.3331" y1="8.70369" x2="388.545" y2="282.272" gradientUnits="userSpaceOnUse">
<stop stop-color="#F47114"/>
<stop offset="0.5" stop-color="#D12C31"/>
<stop offset="1" stop-color="#F47114"/>
</linearGradient>
</defs>
</svg>
