<svg width="420" height="639" viewBox="0 0 420 639" fill="none" xmlns="http://www.w3.org/2000/svg">
<path d="M212.694 540.67C212.595 539.579 212.154 538.731 211.37 538.126C210.597 537.511 209.491 537.204 208.053 537.204C207.101 537.204 206.308 537.328 205.673 537.576C205.038 537.824 204.562 538.166 204.245 538.602C203.928 539.029 203.764 539.519 203.754 540.075C203.734 540.531 203.824 540.932 204.022 541.28C204.23 541.627 204.528 541.934 204.915 542.202C205.311 542.46 205.787 542.688 206.342 542.886C206.898 543.084 207.523 543.258 208.217 543.407L210.835 544.002C212.342 544.329 213.671 544.765 214.821 545.311C215.981 545.856 216.953 546.506 217.737 547.259C218.53 548.013 219.13 548.881 219.536 549.862C219.943 550.844 220.151 551.945 220.161 553.164C220.151 555.088 219.665 556.739 218.703 558.118C217.741 559.496 216.358 560.552 214.553 561.286C212.758 562.02 210.592 562.387 208.053 562.387C205.505 562.387 203.283 562.005 201.389 561.241C199.495 560.478 198.023 559.318 196.971 557.761C195.92 556.204 195.38 554.235 195.35 551.855H202.401C202.46 552.837 202.723 553.655 203.189 554.31C203.655 554.964 204.295 555.46 205.108 555.797C205.931 556.134 206.883 556.303 207.964 556.303C208.955 556.303 209.798 556.169 210.493 555.901C211.197 555.634 211.737 555.262 212.114 554.786C212.491 554.31 212.684 553.764 212.694 553.15C212.684 552.574 212.506 552.084 212.159 551.677C211.811 551.26 211.276 550.903 210.552 550.606C209.838 550.299 208.926 550.016 207.815 549.758L204.632 549.014C201.994 548.409 199.917 547.433 198.399 546.084C196.882 544.726 196.129 542.891 196.138 540.58C196.129 538.696 196.634 537.045 197.656 535.627C198.677 534.209 200.09 533.103 201.895 532.31C203.7 531.517 205.757 531.12 208.068 531.12C210.428 531.12 212.476 531.522 214.211 532.325C215.957 533.118 217.31 534.234 218.272 535.672C219.234 537.11 219.725 538.776 219.745 540.67H212.694Z" fill="white"/>
<path d="M176.891 562H165.63V531.537H176.876C179.98 531.537 182.652 532.146 184.893 533.366C187.144 534.576 188.88 536.321 190.099 538.602C191.319 540.873 191.929 543.59 191.929 546.753C191.929 549.927 191.319 552.654 190.099 554.935C188.889 557.215 187.159 558.966 184.908 560.185C182.657 561.395 179.984 562 176.891 562ZM172.993 555.723H176.608C178.314 555.723 179.756 555.435 180.936 554.86C182.126 554.275 183.024 553.328 183.629 552.019C184.244 550.7 184.551 548.945 184.551 546.753C184.551 544.562 184.244 542.817 183.629 541.518C183.014 540.209 182.107 539.267 180.907 538.691C179.717 538.106 178.249 537.814 176.504 537.814H172.993V555.723Z" fill="white"/>
<path d="M137.896 562V531.537H150.48C152.761 531.537 154.73 531.948 156.386 532.771C158.052 533.584 159.336 534.755 160.238 536.282C161.141 537.799 161.592 539.599 161.592 541.681C161.592 543.793 161.131 545.588 160.209 547.066C159.286 548.533 157.977 549.654 156.282 550.427C154.586 551.191 152.578 551.573 150.257 551.573H142.299V545.772H148.889C150 545.772 150.927 545.628 151.67 545.34C152.424 545.043 152.994 544.597 153.381 544.002C153.768 543.397 153.961 542.623 153.961 541.681C153.961 540.739 153.768 539.961 153.381 539.346C152.994 538.721 152.424 538.255 151.67 537.948C150.917 537.63 149.99 537.472 148.889 537.472H145.259V562H137.896ZM155.047 548.077L162.633 562H154.601L147.163 548.077H155.047Z" fill="white"/>
<path d="M112.171 562H104.257L114.536 531.537H124.338L134.617 562H126.703L119.549 539.212H119.311L112.171 562ZM111.115 550.011H127.655V555.604H111.115V550.011Z" fill="white"/>
<path d="M71.6109 562L62.7456 531.537H70.8821L75.4784 551.498H75.7312L80.982 531.537H87.6161L92.8669 551.543H93.1197L97.7309 531.537H105.852L97.002 562H89.9068L84.418 543.526H84.18L78.6913 562H71.6109Z" fill="white"/>
<path d="M41.895 562H33.9817L44.2601 531.537H54.0625L64.341 562H56.4276L49.2729 539.212H49.0349L41.895 562ZM40.8389 550.011H57.3796V555.604H40.8389V550.011Z" fill="white"/>
<path d="M287.837 520V489.537H305.508V492.036H290.618V503.504H304.571V506.003H290.618V517.501H305.806V520H287.837Z" fill="white"/>
<path d="M281.303 499.056H278.507C278.298 498.015 277.922 497.053 277.376 496.171C276.841 495.278 276.166 494.5 275.353 493.835C274.54 493.171 273.618 492.655 272.587 492.288C271.555 491.922 270.44 491.738 269.24 491.738C267.316 491.738 265.561 492.239 263.974 493.24C262.397 494.242 261.133 495.715 260.181 497.658C259.239 499.592 258.768 501.962 258.768 504.768C258.768 507.594 259.239 509.974 260.181 511.908C261.133 513.842 262.397 515.31 263.974 516.311C265.561 517.303 267.316 517.799 269.24 517.799C270.44 517.799 271.555 517.615 272.587 517.248C273.618 516.881 274.54 516.371 275.353 515.716C276.166 515.052 276.841 514.273 277.376 513.381C277.922 512.488 278.298 511.521 278.507 510.48H281.303C281.055 511.878 280.589 513.182 279.905 514.392C279.231 515.592 278.368 516.643 277.317 517.546C276.276 518.448 275.076 519.152 273.717 519.658C272.359 520.164 270.866 520.416 269.24 520.416C266.681 520.416 264.41 519.777 262.427 518.498C260.444 517.209 258.887 515.394 257.757 513.054C256.636 510.713 256.076 507.951 256.076 504.768C256.076 501.585 256.636 498.823 257.757 496.483C258.887 494.143 260.444 492.333 262.427 491.054C264.41 489.765 266.681 489.12 269.24 489.12C270.866 489.12 272.359 489.373 273.717 489.879C275.076 490.375 276.276 491.079 277.317 491.991C278.368 492.893 279.231 493.944 279.905 495.144C280.589 496.344 281.055 497.648 281.303 499.056Z" fill="white"/>
<path d="M249.345 489.537V520H246.638L228.64 494.49H228.402V520H225.62V489.537H228.312L246.37 515.076H246.608V489.537H249.345Z" fill="white"/>
<path d="M200.75 520V489.537H218.421V492.036H203.531V503.504H217.484V506.003H203.531V517.501H218.718V520H200.75Z" fill="white"/>
<path d="M177.188 520V489.537H179.97V517.501H194.487V520H177.188Z" fill="white"/>
<path d="M153.626 520V489.537H156.408V517.501H170.926V520H153.626Z" fill="white"/>
<path d="M128.756 520V489.537H146.427V492.036H131.537V503.504H145.49V506.003H131.537V517.501H146.724V520H128.756Z" fill="white"/>
<path d="M122.222 499.056H119.426C119.217 498.015 118.841 497.053 118.295 496.171C117.76 495.278 117.085 494.5 116.272 493.835C115.459 493.171 114.537 492.655 113.506 492.288C112.474 491.922 111.359 491.738 110.159 491.738C108.235 491.738 106.48 492.239 104.893 493.24C103.316 494.242 102.052 495.715 101.1 497.658C100.158 499.592 99.687 501.962 99.687 504.768C99.687 507.594 100.158 509.974 101.1 511.908C102.052 513.842 103.316 515.31 104.893 516.311C106.48 517.303 108.235 517.799 110.159 517.799C111.359 517.799 112.474 517.615 113.506 517.248C114.537 516.881 115.459 516.371 116.272 515.716C117.085 515.052 117.76 514.273 118.295 513.381C118.841 512.488 119.217 511.521 119.426 510.48H122.222C121.974 511.878 121.508 513.182 120.824 514.392C120.15 515.592 119.287 516.643 118.236 517.546C117.194 518.448 115.995 519.152 114.636 519.658C113.277 520.164 111.785 520.416 110.159 520.416C107.6 520.416 105.329 519.777 103.346 518.498C101.363 517.209 99.8059 515.394 98.6755 513.054C97.5549 510.713 96.9946 507.951 96.9946 504.768C96.9946 501.585 97.5549 498.823 98.6755 496.483C99.8059 494.143 101.363 492.333 103.346 491.054C105.329 489.765 107.6 489.12 110.159 489.12C111.785 489.12 113.277 489.373 114.636 489.879C115.995 490.375 117.194 491.079 118.236 491.991C119.287 492.893 120.15 493.944 120.824 495.144C121.508 496.344 121.974 497.648 122.222 499.056Z" fill="white"/>
<path d="M73.1504 489.537L78.7135 499.161H78.9515L84.5742 489.537H92.8147L83.6222 504.768L93.1122 520H84.6634L78.9515 510.272H78.7135L73.0016 520H64.6123L74.0577 504.768L64.8503 489.537H73.1504Z" fill="white"/>
<path d="M53.7352 489.537H61.0833V509.186C61.0833 511.457 60.5428 513.435 59.4619 515.121C58.381 516.797 56.8737 518.096 54.94 519.018C53.0063 519.931 50.7602 520.387 48.2018 520.387C45.6136 520.387 43.3526 519.931 41.4189 519.018C39.4852 518.096 37.9829 516.797 36.9119 515.121C35.8409 513.435 35.3054 511.457 35.3054 509.186V489.537H42.6684V508.546C42.6684 509.598 42.8965 510.535 43.3526 511.358C43.8187 512.181 44.4682 512.825 45.3012 513.292C46.1342 513.758 47.1011 513.991 48.2018 513.991C49.3025 513.991 50.2644 513.758 51.0875 513.292C51.9205 512.825 52.57 512.181 53.0361 511.358C53.5021 510.535 53.7352 509.598 53.7352 508.546V489.537Z" fill="white"/>
<path d="M146.55 478V447.537H156.382C158.544 447.537 160.349 447.928 161.796 448.712C163.254 449.485 164.35 450.561 165.084 451.94C165.827 453.308 166.199 454.88 166.199 456.655C166.199 458.43 165.827 459.997 165.084 461.355C164.35 462.714 163.259 463.775 161.811 464.538C160.363 465.302 158.569 465.684 156.427 465.684H148.052V463.14H156.352C157.939 463.14 159.258 462.877 160.309 462.352C161.37 461.826 162.158 461.078 162.674 460.106C163.2 459.134 163.462 457.984 163.462 456.655C163.462 455.326 163.2 454.166 162.674 453.174C162.148 452.173 161.355 451.399 160.294 450.854C159.243 450.308 157.914 450.036 156.308 450.036H149.331V478H146.55ZM159.982 464.256L167.479 478H164.266L156.843 464.256H159.982Z" fill="white"/>
<path d="M121.679 478V447.537H139.35V450.036H124.461V461.504H138.413V464.003H124.461V475.501H139.648V478H121.679Z" fill="white"/>
<path d="M94.5588 478V447.537H104.837C106.821 447.537 108.472 447.884 109.791 448.578C111.119 449.272 112.116 450.219 112.78 451.419C113.445 452.619 113.777 453.982 113.777 455.509C113.777 456.779 113.564 457.865 113.137 458.767C112.711 459.669 112.131 460.398 111.397 460.954C110.663 461.509 109.845 461.911 108.943 462.158V462.396C109.924 462.466 110.876 462.813 111.799 463.438C112.721 464.052 113.479 464.915 114.074 466.026C114.669 467.137 114.967 468.465 114.967 470.012C114.967 471.549 114.625 472.923 113.941 474.133C113.256 475.332 112.205 476.28 110.787 476.974C109.379 477.658 107.584 478 105.402 478H94.5588ZM97.3404 475.501H105.402C107.753 475.501 109.488 474.98 110.609 473.939C111.739 472.898 112.304 471.589 112.304 470.012C112.304 468.852 112.022 467.801 111.457 466.859C110.901 465.907 110.113 465.153 109.091 464.598C108.08 464.043 106.89 463.765 105.521 463.765H97.3404V475.501ZM97.3404 461.296H105.09C106.29 461.296 107.341 461.048 108.244 460.552C109.146 460.056 109.85 459.372 110.356 458.499C110.862 457.627 111.114 456.63 111.114 455.509C111.114 453.893 110.589 452.579 109.538 451.568C108.487 450.546 106.92 450.036 104.837 450.036H97.3404V461.296Z" fill="white"/>
<path d="M64.5828 447.537H67.7957L76.8246 461.995H77.0924L86.1213 447.537H89.3343L78.3419 464.806V478H75.5752V464.806L64.5828 447.537Z" fill="white"/>
<path d="M60.905 457.056H58.1085C57.9003 456.015 57.5235 455.053 56.9781 454.171C56.4426 453.278 55.7683 452.5 54.9551 451.835C54.142 451.171 53.2197 450.655 52.1884 450.288C51.1571 449.922 50.0415 449.738 48.8416 449.738C46.9178 449.738 45.1626 450.239 43.576 451.24C41.9992 452.242 40.7349 453.715 39.7829 455.658C38.8408 457.592 38.3698 459.962 38.3698 462.768C38.3698 465.594 38.8408 467.974 39.7829 469.908C40.7349 471.842 41.9992 473.31 43.576 474.311C45.1626 475.303 46.9178 475.799 48.8416 475.799C50.0415 475.799 51.1571 475.615 52.1884 475.248C53.2197 474.881 54.142 474.371 54.9551 473.716C55.7683 473.052 56.4426 472.273 56.9781 471.381C57.5235 470.488 57.9003 469.521 58.1085 468.48H60.905C60.6571 469.878 60.191 471.182 59.5068 472.392C58.8324 473.592 57.9697 474.643 56.9186 475.546C55.8773 476.448 54.6774 477.152 53.3189 477.658C51.9603 478.164 50.4679 478.416 48.8416 478.416C46.2832 478.416 44.0123 477.777 42.029 476.498C40.0457 475.209 38.4888 473.394 37.3583 471.054C36.2378 468.713 35.6775 465.951 35.6775 462.768C35.6775 459.585 36.2378 456.823 37.3583 454.483C38.4888 452.143 40.0457 450.333 42.029 449.054C44.0123 447.765 46.2832 447.12 48.8416 447.12C50.4679 447.12 51.9603 447.373 53.3189 447.879C54.6774 448.375 55.8773 449.079 56.9186 449.991C57.9697 450.893 58.8324 451.944 59.5068 453.144C60.191 454.344 60.6571 455.648 60.905 457.056Z" fill="white"/>
<path d="M269.301 606V588.545H271.313V594.989H271.483C271.631 594.761 271.835 594.472 272.097 594.119C272.364 593.761 272.744 593.443 273.239 593.165C273.739 592.881 274.415 592.739 275.267 592.739C276.369 592.739 277.341 593.014 278.182 593.565C279.023 594.116 279.679 594.898 280.151 595.909C280.622 596.92 280.858 598.114 280.858 599.489C280.858 600.875 280.622 602.077 280.151 603.094C279.679 604.105 279.026 604.889 278.19 605.446C277.355 605.997 276.392 606.273 275.301 606.273C274.46 606.273 273.787 606.133 273.281 605.855C272.776 605.571 272.386 605.25 272.114 604.892C271.841 604.528 271.631 604.227 271.483 603.989H271.244V606H269.301ZM271.279 599.455C271.279 600.443 271.423 601.315 271.713 602.071C272.003 602.821 272.426 603.409 272.983 603.835C273.54 604.256 274.222 604.466 275.029 604.466C275.869 604.466 276.571 604.244 277.134 603.801C277.702 603.352 278.128 602.75 278.412 601.994C278.702 601.233 278.847 600.386 278.847 599.455C278.847 598.534 278.705 597.705 278.421 596.966C278.142 596.222 277.719 595.633 277.151 595.202C276.588 594.764 275.881 594.545 275.029 594.545C274.21 594.545 273.523 594.753 272.966 595.168C272.409 595.577 271.989 596.151 271.705 596.889C271.421 597.622 271.279 598.477 271.279 599.455Z" fill="white"/>
<path d="M263.333 600.648V592.909H265.344V606H263.333V603.784H263.197C262.89 604.449 262.413 605.014 261.765 605.48C261.117 605.94 260.299 606.171 259.31 606.171C258.492 606.171 257.765 605.992 257.128 605.634C256.492 605.27 255.992 604.725 255.628 603.997C255.265 603.264 255.083 602.341 255.083 601.227V592.909H257.094V601.091C257.094 602.046 257.361 602.807 257.896 603.375C258.435 603.943 259.123 604.227 259.958 604.227C260.458 604.227 260.967 604.1 261.484 603.844C262.006 603.588 262.444 603.196 262.796 602.668C263.154 602.139 263.333 601.466 263.333 600.648Z" fill="white"/>
<path d="M246.153 606V592.909H248.096V594.886H248.233C248.472 594.239 248.903 593.713 249.528 593.31C250.153 592.906 250.858 592.705 251.642 592.705C251.79 592.705 251.974 592.707 252.196 592.713C252.418 592.719 252.585 592.727 252.699 592.739V594.784C252.631 594.767 252.474 594.742 252.23 594.707C251.991 594.668 251.739 594.648 251.471 594.648C250.835 594.648 250.267 594.781 249.767 595.048C249.273 595.31 248.881 595.673 248.591 596.139C248.307 596.599 248.165 597.125 248.165 597.716V606H246.153Z" fill="white"/>
<path d="M236.812 611.182C235.841 611.182 235.005 611.057 234.307 610.807C233.608 610.563 233.025 610.239 232.559 609.835C232.099 609.438 231.733 609.011 231.46 608.557L233.062 607.432C233.244 607.67 233.474 607.943 233.753 608.25C234.031 608.563 234.412 608.832 234.895 609.06C235.383 609.293 236.022 609.409 236.812 609.409C237.869 609.409 238.741 609.153 239.429 608.642C240.116 608.131 240.46 607.33 240.46 606.239V603.58H240.29C240.142 603.818 239.932 604.114 239.659 604.466C239.392 604.813 239.005 605.122 238.5 605.395C238 605.662 237.324 605.795 236.471 605.795C235.415 605.795 234.466 605.545 233.625 605.045C232.79 604.545 232.128 603.818 231.639 602.864C231.156 601.909 230.915 600.75 230.915 599.386C230.915 598.045 231.15 596.878 231.622 595.884C232.094 594.884 232.75 594.111 233.591 593.565C234.432 593.014 235.403 592.739 236.505 592.739C237.358 592.739 238.034 592.881 238.534 593.165C239.04 593.443 239.426 593.761 239.693 594.119C239.966 594.472 240.176 594.761 240.324 594.989H240.528V592.909H242.471V606.375C242.471 607.5 242.216 608.415 241.704 609.119C241.199 609.83 240.517 610.349 239.659 610.679C238.807 611.014 237.858 611.182 236.812 611.182ZM236.744 603.989C237.551 603.989 238.233 603.804 238.79 603.435C239.346 603.065 239.77 602.534 240.059 601.841C240.349 601.148 240.494 600.318 240.494 599.352C240.494 598.409 240.352 597.577 240.068 596.855C239.784 596.134 239.363 595.568 238.807 595.159C238.25 594.75 237.562 594.545 236.744 594.545C235.892 594.545 235.182 594.761 234.613 595.193C234.051 595.625 233.628 596.205 233.344 596.932C233.065 597.659 232.926 598.466 232.926 599.352C232.926 600.261 233.068 601.065 233.352 601.764C233.642 602.457 234.068 603.003 234.63 603.401C235.199 603.793 235.903 603.989 236.744 603.989Z" fill="white"/>
<path d="M221.565 606.273C220.474 606.273 219.511 605.997 218.676 605.446C217.841 604.889 217.187 604.105 216.716 603.094C216.244 602.077 216.008 600.875 216.008 599.489C216.008 598.114 216.244 596.92 216.716 595.909C217.187 594.898 217.844 594.116 218.684 593.565C219.525 593.014 220.497 592.739 221.599 592.739C222.451 592.739 223.125 592.881 223.619 593.165C224.119 593.443 224.5 593.761 224.761 594.119C225.028 594.472 225.236 594.761 225.383 594.989H225.554V588.545H227.565V606H225.622V603.989H225.383C225.236 604.227 225.025 604.528 224.753 604.892C224.48 605.25 224.091 605.571 223.585 605.855C223.079 606.133 222.406 606.273 221.565 606.273ZM221.838 604.466C222.645 604.466 223.326 604.256 223.883 603.835C224.44 603.409 224.863 602.821 225.153 602.071C225.443 601.315 225.588 600.443 225.588 599.455C225.588 598.477 225.446 597.622 225.162 596.889C224.878 596.151 224.457 595.577 223.9 595.168C223.344 594.753 222.656 594.545 221.838 594.545C220.986 594.545 220.275 594.764 219.707 595.202C219.145 595.633 218.721 596.222 218.437 596.966C218.159 597.705 218.02 598.534 218.02 599.455C218.02 600.386 218.162 601.233 218.446 601.994C218.736 602.75 219.162 603.352 219.724 603.801C220.292 604.244 220.997 604.466 221.838 604.466Z" fill="white"/>
<path d="M204.594 598.125V606H202.583V592.909H204.526V594.955H204.697C205.003 594.29 205.469 593.756 206.094 593.352C206.719 592.943 207.526 592.739 208.515 592.739C209.401 592.739 210.177 592.92 210.842 593.284C211.506 593.642 212.023 594.188 212.393 594.92C212.762 595.648 212.947 596.568 212.947 597.682V606H210.935V597.818C210.935 596.79 210.668 595.989 210.134 595.415C209.6 594.835 208.867 594.545 207.935 594.545C207.293 594.545 206.719 594.685 206.214 594.963C205.714 595.241 205.319 595.648 205.029 596.182C204.739 596.716 204.594 597.364 204.594 598.125Z" fill="white"/>
<path d="M196.888 606V592.909H198.899V606H196.888ZM197.91 590.727C197.518 590.727 197.18 590.594 196.896 590.327C196.618 590.06 196.479 589.739 196.479 589.364C196.479 588.989 196.618 588.668 196.896 588.401C197.18 588.134 197.518 588 197.91 588C198.302 588 198.638 588.134 198.916 588.401C199.2 588.668 199.342 588.989 199.342 589.364C199.342 589.739 199.2 590.06 198.916 590.327C198.638 590.594 198.302 590.727 197.91 590.727Z" fill="white"/>
<path d="M175.809 588.545H178.331L184.263 603.034H184.468L190.4 588.545H192.922V606H190.945V592.739H190.775L185.32 606H183.411L177.956 592.739H177.786V606H175.809V588.545Z" fill="white"/>
<path d="M156.722 610.909C156.381 610.909 156.077 610.881 155.81 610.824C155.543 610.773 155.358 610.722 155.256 610.671L155.767 608.898C156.256 609.023 156.688 609.068 157.063 609.034C157.438 609 157.77 608.832 158.06 608.531C158.356 608.236 158.625 607.756 158.87 607.091L159.245 606.068L154.404 592.909H156.586L160.199 603.341H160.336L163.949 592.909H166.131L160.574 607.909C160.324 608.585 160.015 609.145 159.645 609.588C159.276 610.037 158.847 610.369 158.358 610.585C157.875 610.801 157.33 610.909 156.722 610.909Z" fill="white"/>
<path d="M141.262 606V588.545H143.274V594.989H143.444C143.592 594.761 143.796 594.472 144.058 594.119C144.325 593.761 144.705 593.443 145.2 593.165C145.7 592.881 146.376 592.739 147.228 592.739C148.33 592.739 149.302 593.014 150.143 593.565C150.984 594.116 151.64 594.898 152.112 595.909C152.583 596.92 152.819 598.114 152.819 599.489C152.819 600.875 152.583 602.077 152.112 603.094C151.64 604.105 150.987 604.889 150.151 605.446C149.316 605.997 148.353 606.273 147.262 606.273C146.421 606.273 145.748 606.133 145.242 605.855C144.737 605.571 144.347 605.25 144.075 604.892C143.802 604.528 143.592 604.227 143.444 603.989H143.205V606H141.262ZM143.239 599.455C143.239 600.443 143.384 601.315 143.674 602.071C143.964 602.821 144.387 603.409 144.944 603.835C145.501 604.256 146.183 604.466 146.989 604.466C147.83 604.466 148.532 604.244 149.095 603.801C149.663 603.352 150.089 602.75 150.373 601.994C150.663 601.233 150.808 600.386 150.808 599.455C150.808 598.534 150.666 597.705 150.382 596.966C150.103 596.222 149.68 595.633 149.112 595.202C148.549 594.764 147.842 594.545 146.989 594.545C146.171 594.545 145.484 594.753 144.927 595.168C144.37 595.577 143.95 596.151 143.666 596.889C143.382 597.622 143.239 598.477 143.239 599.455Z" fill="white"/>
<path d="M124.276 606.273C123.185 606.273 122.222 605.997 121.387 605.446C120.552 604.889 119.898 604.105 119.427 603.094C118.955 602.077 118.719 600.875 118.719 599.489C118.719 598.114 118.955 596.92 119.427 595.909C119.898 594.898 120.554 594.116 121.395 593.565C122.236 593.014 123.208 592.739 124.31 592.739C125.162 592.739 125.836 592.881 126.33 593.165C126.83 593.443 127.211 593.761 127.472 594.119C127.739 594.472 127.947 594.761 128.094 594.989H128.265V588.545H130.276V606H128.333V603.989H128.094C127.947 604.227 127.736 604.528 127.464 604.892C127.191 605.25 126.802 605.571 126.296 605.855C125.79 606.133 125.117 606.273 124.276 606.273ZM124.549 604.466C125.356 604.466 126.037 604.256 126.594 603.835C127.151 603.409 127.574 602.821 127.864 602.071C128.154 601.315 128.299 600.443 128.299 599.455C128.299 598.477 128.157 597.622 127.873 596.889C127.589 596.151 127.168 595.577 126.611 595.168C126.054 594.753 125.367 594.545 124.549 594.545C123.697 594.545 122.986 594.764 122.418 595.202C121.856 595.633 121.432 596.222 121.148 596.966C120.87 597.705 120.731 598.534 120.731 599.455C120.731 600.386 120.873 601.233 121.157 601.994C121.447 602.75 121.873 603.352 122.435 603.801C123.003 604.244 123.708 604.466 124.549 604.466Z" fill="white"/>
<path d="M110.853 606.273C109.591 606.273 108.503 605.994 107.589 605.438C106.679 604.875 105.978 604.091 105.483 603.085C104.995 602.074 104.75 600.898 104.75 599.557C104.75 598.216 104.995 597.034 105.483 596.011C105.978 594.983 106.665 594.182 107.546 593.608C108.432 593.028 109.466 592.739 110.648 592.739C111.33 592.739 112.003 592.852 112.668 593.08C113.333 593.307 113.938 593.676 114.483 594.188C115.029 594.693 115.464 595.364 115.787 596.199C116.111 597.034 116.273 598.063 116.273 599.284V600.136H106.182V598.398H114.228C114.228 597.659 114.08 597 113.785 596.42C113.495 595.841 113.08 595.384 112.54 595.048C112.006 594.713 111.375 594.545 110.648 594.545C109.847 594.545 109.154 594.744 108.569 595.142C107.989 595.534 107.543 596.045 107.231 596.676C106.918 597.307 106.762 597.983 106.762 598.705V599.864C106.762 600.852 106.932 601.69 107.273 602.378C107.62 603.06 108.1 603.58 108.714 603.938C109.327 604.29 110.04 604.466 110.853 604.466C111.381 604.466 111.858 604.392 112.285 604.244C112.716 604.091 113.089 603.864 113.401 603.563C113.714 603.256 113.955 602.875 114.125 602.42L116.069 602.966C115.864 603.625 115.52 604.205 115.037 604.705C114.554 605.199 113.958 605.585 113.248 605.864C112.537 606.136 111.739 606.273 110.853 606.273Z" fill="white"/>
<path d="M96.833 606V592.909H98.7762V594.886H98.9126C99.1512 594.239 99.583 593.713 100.208 593.31C100.833 592.906 101.538 592.705 102.322 592.705C102.469 592.705 102.654 592.707 102.876 592.713C103.097 592.719 103.265 592.727 103.378 592.739V594.784C103.31 594.767 103.154 594.742 102.91 594.707C102.671 594.668 102.418 594.648 102.151 594.648C101.515 594.648 100.947 594.781 100.447 595.048C99.9523 595.31 99.5603 595.673 99.2705 596.139C98.9864 596.599 98.8444 597.125 98.8444 597.716V606H96.833Z" fill="white"/>
<path d="M88.3528 606.273C87.0914 606.273 86.0033 605.994 85.0886 605.438C84.1795 604.875 83.4778 604.091 82.9834 603.085C82.4948 602.074 82.2505 600.898 82.2505 599.557C82.2505 598.216 82.4948 597.034 82.9834 596.011C83.4778 594.983 84.1653 594.182 85.0459 593.608C85.9323 593.028 86.9664 592.739 88.1482 592.739C88.83 592.739 89.5033 592.852 90.1681 593.08C90.8329 593.307 91.438 593.676 91.9834 594.188C92.5289 594.693 92.9636 595.364 93.2874 596.199C93.6113 597.034 93.7732 598.063 93.7732 599.284V600.136H83.6823V598.398H91.7278C91.7278 597.659 91.58 597 91.2846 596.42C90.9948 595.841 90.58 595.384 90.0403 595.048C89.5062 594.713 88.8755 594.545 88.1482 594.545C87.3471 594.545 86.6539 594.744 86.0687 595.142C85.4891 595.534 85.0431 596.045 84.7306 596.676C84.4181 597.307 84.2619 597.983 84.2619 598.705V599.864C84.2619 600.852 84.4323 601.69 84.7732 602.378C85.1198 603.06 85.5999 603.58 86.2136 603.938C86.8272 604.29 87.5403 604.466 88.3528 604.466C88.8812 604.466 89.3584 604.392 89.7846 604.244C90.2164 604.091 90.5886 603.864 90.9011 603.563C91.2136 603.256 91.455 602.875 91.6255 602.42L93.5687 602.966C93.3641 603.625 93.0204 604.205 92.5374 604.705C92.0545 605.199 91.4579 605.585 90.7476 605.864C90.0374 606.136 89.2391 606.273 88.3528 606.273Z" fill="white"/>
<path d="M66.7755 606L62.7869 592.909H64.9005L67.73 602.932H67.8664L70.6619 592.909H72.8096L75.571 602.898H75.7073L78.5369 592.909H80.6505L76.6619 606H74.6846L71.821 595.943H71.6164L68.7528 606H66.7755Z" fill="white"/>
<path d="M55.2526 606.273C54.0708 606.273 53.0339 605.991 52.1418 605.429C51.2555 604.866 50.5623 604.08 50.0623 603.068C49.568 602.057 49.3208 600.875 49.3208 599.523C49.3208 598.159 49.568 596.969 50.0623 595.952C50.5623 594.935 51.2555 594.145 52.1418 593.582C53.0339 593.02 54.0708 592.739 55.2526 592.739C56.4344 592.739 57.4685 593.02 58.3549 593.582C59.2469 594.145 59.9401 594.935 60.4344 595.952C60.9344 596.969 61.1844 598.159 61.1844 599.523C61.1844 600.875 60.9344 602.057 60.4344 603.068C59.9401 604.08 59.2469 604.866 58.3549 605.429C57.4685 605.991 56.4344 606.273 55.2526 606.273ZM55.2526 604.466C56.1503 604.466 56.889 604.236 57.4685 603.776C58.0481 603.315 58.4771 602.71 58.7555 601.96C59.0339 601.21 59.1731 600.398 59.1731 599.523C59.1731 598.648 59.0339 597.832 58.7555 597.077C58.4771 596.321 58.0481 595.71 57.4685 595.244C56.889 594.778 56.1503 594.545 55.2526 594.545C54.3549 594.545 53.6163 594.778 53.0367 595.244C52.4572 595.71 52.0282 596.321 51.7498 597.077C51.4714 597.832 51.3322 598.648 51.3322 599.523C51.3322 600.398 51.4714 601.21 51.7498 601.96C52.0282 602.71 52.4572 603.315 53.0367 603.776C53.6163 604.236 54.3549 604.466 55.2526 604.466Z" fill="white"/>
<path d="M35.1135 606V588.545H41.0113C42.3806 588.545 43.4999 588.793 44.3692 589.287C45.2442 589.776 45.8919 590.437 46.3124 591.273C46.7328 592.108 46.9431 593.04 46.9431 594.068C46.9431 595.097 46.7328 596.031 46.3124 596.872C45.8976 597.713 45.2556 598.383 44.3863 598.883C43.5169 599.378 42.4033 599.625 41.0453 599.625H36.8181V597.75H40.9772C41.9147 597.75 42.6675 597.588 43.2357 597.264C43.8039 596.94 44.2158 596.503 44.4715 595.952C44.7328 595.395 44.8635 594.767 44.8635 594.068C44.8635 593.369 44.7328 592.744 44.4715 592.193C44.2158 591.642 43.801 591.21 43.2272 590.898C42.6533 590.58 41.8919 590.42 40.9431 590.42H37.2272V606H35.1135Z" fill="white"/>
<path fill-rule="evenodd" clip-rule="evenodd" d="M207.252 227L264.27 312.405L192.694 409.941H250.197L293.142 350.255L329.779 409.941H387.767L319.589 312.405L380.003 227H321.287L290.716 274.312L265.968 227H207.252ZM78.555 326.667V227.19H31V333.218C31 361.687 37.5509 382.472 50.6528 395.574C63.7547 408.675 83.812 415.226 110.825 415.226C137.837 415.226 157.813 408.675 170.754 395.574C183.855 382.472 190.406 361.687 190.406 333.218V227.19H143.094V326.667C143.094 332.005 142.851 337.505 142.366 343.166C142.043 348.665 140.829 353.68 138.727 358.209C136.624 362.738 133.389 366.458 129.022 369.37C124.816 372.12 118.75 373.494 110.825 373.494C102.899 373.494 96.7521 372.12 92.3848 369.37C88.0175 366.458 84.7825 362.738 82.6797 358.209C80.7387 353.68 79.5255 348.665 79.0403 343.166C78.7168 337.505 78.555 332.005 78.555 326.667Z" fill="white"/>
<path fill-rule="evenodd" clip-rule="evenodd" d="M61.8203 31C50.0729 31 39.8203 39.976 39.8203 51.9173V146.083C39.8203 151.493 41.9249 156.294 45.3195 159.928C41.2172 162.816 37.7181 166.829 35.0794 171.579L27.5274 185.172C23.0838 193.171 28.8674 203 38.0173 203L243.623 203C252.773 203 258.557 193.171 254.113 185.172L246.561 171.579C243.922 166.829 240.423 162.816 236.321 159.928C239.716 156.295 241.82 151.493 241.82 146.083V51.9173C241.82 39.976 231.568 31 219.82 31H61.8203ZM219.82 155C225.746 155 229.82 150.619 229.82 146.083V51.9173C229.82 47.3814 225.746 43 219.82 43H61.8203C55.8946 43 51.8203 47.3814 51.8203 51.9173V146.083C51.8203 150.619 55.8946 155 61.8203 155H219.82ZM61.8203 167H60.4133C55.1958 167 49.5081 170.316 45.5693 177.406L38.0173 191L243.623 191L236.071 177.406C232.132 170.316 226.445 167 221.227 167L219.82 167H61.8203ZM110.908 177.735C111.452 176.102 112.981 175 114.702 175H166.936C168.658 175 170.187 176.102 170.731 177.735L172.064 181.735C172.928 184.325 171 187 168.27 187H113.369C110.639 187 108.711 184.325 109.574 181.735L110.908 177.735ZM275 53C275 40.8497 284.85 31 297 31H361C373.15 31 383 40.8497 383 53V181C383 193.15 373.15 203 361 203H297C284.85 203 275 193.15 275 181V53ZM297 43C291.477 43 287 47.4772 287 53V181C287 186.523 291.477 191 297 191H361C366.523 191 371 186.523 371 181V53C371 47.4772 366.523 43 361 43H356V44C356 48.4183 352.418 52 348 52H310C305.582 52 302 48.4183 302 44V43H297Z" fill="white"/>
</svg>
