<svg width="616" height="259" viewBox="0 0 616 259" fill="none" xmlns="http://www.w3.org/2000/svg">
<path fill-rule="evenodd" clip-rule="evenodd" d="M123.702 131.592L154.436 177.559L115.854 230.055H146.85L169.999 197.93L189.748 230.055H221.005L184.255 177.559L216.82 131.592H185.17L168.691 157.057L155.351 131.592H123.702ZM54.3296 185.235V131.694H28.6958V188.761C28.6958 204.083 32.227 215.27 39.2893 222.322C46.3517 229.374 57.1632 232.9 71.7239 232.9C86.2846 232.9 97.0525 229.374 104.028 222.322C111.09 215.27 114.621 204.083 114.621 188.761V131.694H89.1182V185.235C89.1182 188.108 88.9874 191.068 88.7259 194.115C88.5515 197.075 87.8976 199.774 86.7641 202.212C85.6306 204.649 83.8868 206.652 81.5327 208.219C79.2658 209.699 75.9962 210.439 71.7239 210.439C67.4516 210.439 64.1384 209.699 61.7843 208.219C59.4301 206.652 57.6864 204.649 56.5529 202.212C55.5066 199.774 54.8527 197.075 54.5911 194.115C54.4167 191.068 54.3296 188.108 54.3296 185.235Z" fill="white"/>
<path fill-rule="evenodd" clip-rule="evenodd" d="M45.3087 26.1005C38.9764 26.1005 33.4499 30.9315 33.4499 37.3586V88.0405C33.4499 90.9524 34.5844 93.5367 36.4142 95.4926C34.203 97.0468 32.3169 99.2066 30.8946 101.763L26.8238 109.079C24.4286 113.384 27.5461 118.675 32.4782 118.675L143.307 118.675C148.239 118.675 151.356 113.384 148.961 109.079L144.89 101.763C143.468 99.2066 141.582 97.0467 139.37 95.4925C141.2 93.5367 142.335 90.9524 142.335 88.0405V37.3586C142.335 30.9315 136.808 26.1005 130.476 26.1005H45.3087ZM130.476 92.84C133.67 92.84 135.866 90.4818 135.866 88.0405V37.3586C135.866 34.9173 133.67 32.5591 130.476 32.5591H45.3087C42.1145 32.5591 39.9183 34.9173 39.9183 37.3586V88.0405C39.9183 90.4818 42.1145 92.84 45.3087 92.84H130.476ZM45.3087 99.2987H44.5504C41.738 99.2987 38.6722 101.084 36.549 104.9L32.4782 112.216L143.307 112.216L139.236 104.9C137.113 101.084 134.047 99.2987 131.234 99.2987L130.476 99.2987H45.3087ZM71.5233 105.811C71.9633 104.493 73.197 103.604 74.5864 103.604H101.197C102.587 103.604 103.821 104.493 104.261 105.811C104.959 107.903 103.402 110.063 101.197 110.063H74.5864C72.3816 110.063 70.8251 107.903 71.5233 105.811ZM160.22 37.9413C160.22 31.4018 165.529 26.1005 172.079 26.1005H206.577C213.126 26.1005 218.435 31.4018 218.435 37.9413V106.834C218.435 113.373 213.126 118.675 206.577 118.675H172.079C165.529 118.675 160.22 113.373 160.22 106.834V37.9413ZM172.079 32.5591C169.102 32.5591 166.688 34.9688 166.688 37.9413V106.834C166.688 109.806 169.102 112.216 172.079 112.216H206.577C209.554 112.216 211.967 109.806 211.967 106.834V37.9413C211.967 34.9688 209.554 32.5591 206.577 32.5591H203.882V33.0973C203.882 35.4754 201.951 37.4031 199.569 37.4031H179.086C176.704 37.4031 174.774 35.4754 174.774 33.0973V32.5591H172.079Z" fill="white"/>
<path d="M472.509 145.898C472.384 144.523 471.827 143.455 470.838 142.692C469.862 141.917 468.467 141.53 466.653 141.53C465.452 141.53 464.451 141.686 463.65 141.998C462.849 142.311 462.248 142.742 461.848 143.292C461.448 143.83 461.241 144.448 461.229 145.148C461.204 145.723 461.316 146.23 461.566 146.667C461.829 147.105 462.205 147.492 462.693 147.83C463.193 148.155 463.794 148.442 464.494 148.692C465.195 148.942 465.984 149.161 466.859 149.349L470.163 150.099C472.065 150.511 473.741 151.061 475.193 151.749C476.657 152.436 477.883 153.255 478.872 154.205C479.873 155.155 480.63 156.249 481.143 157.486C481.656 158.724 481.919 160.111 481.931 161.649C481.919 164.074 481.305 166.155 480.092 167.893C478.878 169.63 477.132 170.962 474.855 171.887C472.59 172.812 469.856 173.274 466.653 173.274C463.437 173.274 460.634 172.793 458.244 171.831C455.854 170.868 453.996 169.405 452.67 167.443C451.344 165.48 450.662 162.999 450.624 159.999H459.521C459.596 161.236 459.927 162.268 460.515 163.093C461.104 163.918 461.911 164.543 462.937 164.968C463.975 165.393 465.176 165.605 466.54 165.605C467.792 165.605 468.855 165.437 469.731 165.099C470.62 164.762 471.301 164.293 471.777 163.693C472.252 163.093 472.496 162.405 472.509 161.63C472.496 160.905 472.271 160.286 471.833 159.774C471.395 159.249 470.72 158.799 469.806 158.424C468.905 158.036 467.754 157.68 466.353 157.355L462.336 156.418C459.008 155.655 456.386 154.424 454.472 152.724C452.557 151.011 451.606 148.699 451.619 145.786C451.606 143.411 452.244 141.33 453.533 139.542C454.822 137.754 456.605 136.361 458.882 135.361C461.16 134.361 463.756 133.861 466.672 133.861C469.65 133.861 472.234 134.367 474.423 135.379C476.626 136.379 478.334 137.786 479.547 139.598C480.761 141.411 481.381 143.511 481.406 145.898H472.509Z" fill="white"/>
<path d="M427.331 172.787H413.123V134.386H427.313C431.229 134.386 434.601 135.154 437.429 136.692C440.27 138.217 442.459 140.417 443.998 143.292C445.538 146.155 446.307 149.58 446.307 153.567C446.307 157.568 445.538 161.005 443.998 163.88C442.472 166.755 440.288 168.962 437.448 170.499C434.608 172.024 431.235 172.787 427.331 172.787ZM422.414 164.874H426.975C429.127 164.874 430.948 164.512 432.437 163.787C433.938 163.049 435.071 161.855 435.834 160.205C436.61 158.543 436.998 156.33 436.998 153.567C436.998 150.805 436.61 148.605 435.834 146.967C435.058 145.317 433.913 144.13 432.399 143.405C430.898 142.667 429.046 142.298 426.843 142.298H422.414V164.874Z" fill="white"/>
<path d="M378.127 172.787V134.386H394.006C396.884 134.386 399.368 134.904 401.458 135.942C403.56 136.967 405.18 138.442 406.319 140.367C407.457 142.28 408.027 144.548 408.027 147.174C408.027 149.836 407.445 152.099 406.281 153.961C405.118 155.811 403.466 157.224 401.326 158.199C399.187 159.161 396.653 159.643 393.725 159.643H383.683V152.33H391.998C393.399 152.33 394.569 152.149 395.508 151.786C396.459 151.411 397.178 150.849 397.666 150.099C398.154 149.336 398.398 148.361 398.398 147.174C398.398 145.986 398.154 145.005 397.666 144.23C397.178 143.442 396.459 142.855 395.508 142.467C394.557 142.067 393.387 141.867 391.998 141.867H387.418V172.787H378.127ZM399.768 155.236L409.341 172.787H399.205L389.821 155.236H399.768Z" fill="white"/>
<path d="M345.666 172.787H335.681L348.651 134.386H361.02L373.989 172.787H364.004L354.976 144.061H354.676L345.666 172.787ZM344.334 157.674H365.205V164.724H344.334V157.674Z" fill="white"/>
<path d="M294.487 172.787L283.301 134.386H293.568L299.367 159.549H299.686L306.312 134.386H314.683L321.308 159.605H321.628L327.446 134.386H337.694L326.526 172.787H317.573L310.648 149.499H310.347L303.421 172.787H294.487Z" fill="white"/>
<path d="M256.991 172.787H247.006L259.975 134.386H272.344L285.314 172.787H275.329L266.301 144.061H266L256.991 172.787ZM255.658 157.674H276.53V164.724H255.658V157.674Z" fill="white"/>
<path d="M567.327 119.843V81.4418H589.625V84.5919H570.837V99.0486H588.442V102.199H570.837V116.693H590V119.843H567.327Z" fill="white"/>
<path d="M559.082 93.4421H555.554C555.291 92.1296 554.815 90.9171 554.127 89.8045C553.451 88.6795 552.601 87.6982 551.574 86.8607C550.548 86.0232 549.385 85.3731 548.083 84.9106C546.782 84.4481 545.374 84.2168 543.86 84.2168C541.433 84.2168 539.218 84.8481 537.216 86.1107C535.226 87.3732 533.631 89.2295 532.43 91.6796C531.241 94.1172 530.647 97.1048 530.647 100.642C530.647 104.205 531.241 107.205 532.43 109.643C533.631 112.08 535.226 113.93 537.216 115.193C539.218 116.443 541.433 117.068 543.86 117.068C545.374 117.068 546.782 116.837 548.083 116.374C549.385 115.912 550.548 115.268 551.574 114.443C552.601 113.605 553.451 112.624 554.127 111.499C554.815 110.374 555.291 109.155 555.554 107.843H559.082C558.769 109.605 558.181 111.249 557.318 112.774C556.467 114.287 555.378 115.612 554.052 116.749C552.738 117.887 551.224 118.774 549.51 119.412C547.796 120.049 545.912 120.368 543.86 120.368C540.632 120.368 537.767 119.562 535.264 117.949C532.761 116.324 530.797 114.037 529.37 111.086C527.956 108.136 527.25 104.655 527.25 100.642C527.25 96.6297 527.956 93.1484 529.37 90.1983C530.797 87.2482 532.761 84.9669 535.264 83.3543C537.767 81.7293 540.632 80.9167 543.86 80.9167C545.912 80.9167 547.796 81.2355 549.51 81.873C551.224 82.498 552.738 83.3856 554.052 84.5356C555.378 85.6731 556.467 86.9982 557.318 88.5107C558.181 90.0233 558.769 91.6671 559.082 93.4421Z" fill="white"/>
<path d="M518.756 81.4418V119.843H515.34L492.63 87.6857H492.329V119.843H488.819V81.4418H492.217L515.002 113.637H515.303V81.4418H518.756Z" fill="white"/>
<path d="M457.437 119.843V81.4418H479.735V84.5919H460.947V99.0486H478.552V102.199H460.947V116.693H480.11V119.843H457.437Z" fill="white"/>
<path d="M427.707 119.843V81.4418H431.216V116.693H449.535V119.843H427.707Z" fill="white"/>
<path d="M397.976 119.843V81.4418H401.486V116.693H419.805V119.843H397.976Z" fill="white"/>
<path d="M366.594 119.843V81.4418H388.892V84.5919H370.104V99.0486H387.71V102.199H370.104V116.693H389.267V119.843H366.594Z" fill="white"/>
<path d="M358.35 93.4421H354.821C354.558 92.1296 354.083 90.9171 353.395 89.8045C352.719 88.6795 351.868 87.6982 350.842 86.8607C349.816 86.0232 348.652 85.3731 347.351 84.9106C346.05 84.4481 344.642 84.2168 343.128 84.2168C340.7 84.2168 338.486 84.8481 336.484 86.1107C334.494 87.3732 332.899 89.2295 331.697 91.6796C330.509 94.1172 329.914 97.1048 329.914 100.642C329.914 104.205 330.509 107.205 331.697 109.643C332.899 112.08 334.494 113.93 336.484 115.193C338.486 116.443 340.7 117.068 343.128 117.068C344.642 117.068 346.05 116.837 347.351 116.374C348.652 115.912 349.816 115.268 350.842 114.443C351.868 113.605 352.719 112.624 353.395 111.499C354.083 110.374 354.558 109.155 354.821 107.843H358.35C358.037 109.605 357.449 111.249 356.585 112.774C355.735 114.287 354.646 115.612 353.32 116.749C352.006 117.887 350.492 118.774 348.777 119.412C347.063 120.049 345.18 120.368 343.128 120.368C339.9 120.368 337.034 119.562 334.532 117.949C332.029 116.324 330.064 114.037 328.638 111.086C327.224 108.136 326.517 104.655 326.517 100.642C326.517 96.6297 327.224 93.1484 328.638 90.1983C330.064 87.2482 332.029 84.9669 334.532 83.3543C337.034 81.7293 339.9 80.9167 343.128 80.9167C345.18 80.9167 347.063 81.2355 348.777 81.873C350.492 82.498 352.006 83.3856 353.32 84.5356C354.646 85.6731 355.735 86.9982 356.585 88.5107C357.449 90.0233 358.037 91.6671 358.35 93.4421Z" fill="white"/>
<path d="M296.43 81.4418L303.449 93.5734H303.75L310.845 81.4418H321.243L309.643 100.642L321.618 119.843H310.957L303.75 107.58H303.449L296.242 119.843H285.656L297.575 100.642L285.957 81.4418H296.43Z" fill="white"/>
<path d="M271.931 81.4418H281.203V106.211C281.203 109.074 280.521 111.568 279.158 113.693C277.794 115.805 275.892 117.443 273.452 118.605C271.012 119.755 268.178 120.33 264.949 120.33C261.683 120.33 258.83 119.755 256.39 118.605C253.95 117.443 252.055 115.805 250.703 113.693C249.352 111.568 248.676 109.074 248.676 106.211V81.4418H257.967V105.405C257.967 106.73 258.255 107.911 258.83 108.949C259.419 109.986 260.238 110.799 261.289 111.386C262.34 111.974 263.56 112.268 264.949 112.268C266.338 112.268 267.552 111.974 268.59 111.386C269.642 110.799 270.461 109.986 271.049 108.949C271.637 107.911 271.931 106.73 271.931 105.405V81.4418Z" fill="white"/>
<path d="M389.047 66.8991V28.4979H401.453C404.181 28.4979 406.458 28.9916 408.285 29.9792C410.125 30.9542 411.507 32.3105 412.433 34.048C413.372 35.7731 413.841 37.7544 413.841 39.992C413.841 42.2295 413.372 44.2046 412.433 45.9172C411.507 47.6297 410.131 48.9673 408.304 49.9298C406.477 50.8923 404.212 51.3736 401.51 51.3736H390.943V48.1672H401.416C403.418 48.1672 405.082 47.836 406.408 47.1734C407.747 46.5109 408.742 45.5671 409.393 44.3421C410.056 43.1171 410.387 41.667 410.387 39.992C410.387 38.3169 410.056 36.8544 409.393 35.6043C408.73 34.3418 407.729 33.3668 406.39 32.6792C405.063 31.9917 403.387 31.648 401.36 31.648H392.557V66.8991H389.047ZM405.996 49.5735L415.455 66.8991H411.401L402.035 49.5735H405.996Z" fill="white"/>
<path d="M357.665 66.8991V28.4979H379.962V31.648H361.174V46.1047H378.78V49.2548H361.174V63.749H380.338V66.8991H357.665Z" fill="white"/>
<path d="M323.443 66.8991V28.4979H336.413C338.915 28.4979 340.999 28.9354 342.663 29.8104C344.34 30.6854 345.597 31.8792 346.436 33.3918C347.274 34.9043 347.693 36.6231 347.693 38.5482C347.693 40.1482 347.424 41.517 346.886 42.6546C346.348 43.7921 345.616 44.7109 344.69 45.4109C343.764 46.1109 342.732 46.6172 341.593 46.9297V47.2297C342.832 47.3172 344.033 47.7547 345.197 48.5422C346.361 49.3173 347.318 50.4048 348.069 51.8048C348.819 53.2049 349.195 54.8799 349.195 56.83C349.195 58.7676 348.763 60.4989 347.9 62.0239C347.036 63.5365 345.71 64.7302 343.921 65.6053C342.144 66.4678 339.879 66.8991 337.126 66.8991H323.443ZM326.953 63.749H337.126C340.092 63.749 342.281 63.0927 343.695 61.7802C345.122 60.4676 345.835 58.8176 345.835 56.83C345.835 55.3674 345.478 54.0424 344.765 52.8549C344.065 51.6548 343.07 50.7048 341.781 50.0048C340.505 49.3048 339.003 48.9548 337.276 48.9548H326.953V63.749ZM326.953 45.8422H336.732C338.246 45.8422 339.572 45.5296 340.711 44.9046C341.85 44.2796 342.738 43.4171 343.376 42.317C344.014 41.217 344.334 39.9607 344.334 38.5482C344.334 36.5106 343.67 34.8543 342.344 33.5793C341.018 32.2917 339.041 31.648 336.413 31.648H326.953V45.8422Z" fill="white"/>
<path d="M285.619 28.4979H289.673L301.066 46.7234H301.404L312.797 28.4979H316.851L302.981 50.2673V66.8991H299.49V50.2673L285.619 28.4979Z" fill="white"/>
<path d="M280.978 40.4982H277.45C277.187 39.1857 276.711 37.9731 276.023 36.8606C275.347 35.7356 274.496 34.7543 273.47 33.9168C272.444 33.0792 271.281 32.4292 269.979 31.9667C268.678 31.5042 267.27 31.2729 265.756 31.2729C263.329 31.2729 261.114 31.9042 259.112 33.1668C257.122 34.4293 255.527 36.2856 254.326 38.7357C253.137 41.1732 252.543 44.1608 252.543 47.6985C252.543 51.2611 253.137 54.2612 254.326 56.6987C255.527 59.1363 257.122 60.9864 259.112 62.2489C261.114 63.4989 263.329 64.124 265.756 64.124C267.27 64.124 268.678 63.8927 269.979 63.4302C271.281 62.9677 272.444 62.3239 273.47 61.4989C274.496 60.6614 275.347 59.6801 276.023 58.555C276.711 57.43 277.187 56.2112 277.45 54.8987H280.978C280.665 56.6612 280.077 58.305 279.214 59.8301C278.363 61.3426 277.274 62.6677 275.948 63.8052C274.634 64.9427 273.12 65.8303 271.406 66.4678C269.692 67.1053 267.808 67.4241 265.756 67.4241C262.528 67.4241 259.663 66.6178 257.16 65.0052C254.657 63.3802 252.693 61.0926 251.266 58.1425C249.852 55.1924 249.146 51.7111 249.146 47.6985C249.146 43.6858 249.852 40.2045 251.266 37.2544C252.693 34.3043 254.657 32.023 257.16 30.4104C259.663 28.7854 262.528 27.9728 265.756 27.9728C267.808 27.9728 269.692 28.2916 271.406 28.9291C273.12 29.5541 274.634 30.4417 275.948 31.5917C277.274 32.7292 278.363 34.0543 279.214 35.5668C280.077 37.0794 280.665 38.7232 280.978 40.4982Z" fill="white"/>
<path d="M543.937 228.491V206.489H546.475V214.611H546.69C546.877 214.324 547.135 213.959 547.464 213.515C547.801 213.064 548.282 212.663 548.905 212.312C549.536 211.954 550.39 211.774 551.465 211.774C552.856 211.774 554.082 212.122 555.143 212.817C556.204 213.511 557.032 214.496 557.627 215.771C558.222 217.046 558.52 218.55 558.52 220.283C558.52 222.031 558.222 223.546 557.627 224.828C557.032 226.103 556.208 227.091 555.154 227.793C554.1 228.488 552.885 228.835 551.508 228.835C550.447 228.835 549.597 228.66 548.959 228.309C548.321 227.951 547.83 227.546 547.486 227.095C547.142 226.636 546.877 226.257 546.69 225.956H546.389V228.491H543.937ZM546.432 220.24C546.432 221.487 546.615 222.586 546.98 223.539C547.346 224.484 547.88 225.225 548.583 225.762C549.285 226.292 550.146 226.557 551.164 226.557C552.225 226.557 553.11 226.278 553.82 225.719C554.537 225.154 555.075 224.394 555.433 223.442C555.799 222.482 555.982 221.415 555.982 220.24C555.982 219.08 555.802 218.034 555.444 217.103C555.093 216.165 554.559 215.424 553.842 214.879C553.132 214.328 552.239 214.052 551.164 214.052C550.131 214.052 549.264 214.313 548.561 214.836C547.859 215.352 547.328 216.075 546.97 217.007C546.611 217.93 546.432 219.008 546.432 220.24Z" fill="white"/>
<path d="M536.407 221.744V211.989H538.945V228.491H536.407V225.698H536.235C535.847 226.536 535.245 227.249 534.428 227.836C533.611 228.416 532.578 228.706 531.331 228.706C530.298 228.706 529.381 228.481 528.578 228.029C527.775 227.571 527.144 226.883 526.685 225.967C526.226 225.043 525.997 223.879 525.997 222.475V211.989H528.535V222.303C528.535 223.506 528.872 224.466 529.545 225.182C530.227 225.899 531.094 226.257 532.148 226.257C532.779 226.257 533.421 226.096 534.073 225.773C534.733 225.451 535.285 224.957 535.729 224.291C536.181 223.625 536.407 222.776 536.407 221.744Z" fill="white"/>
<path d="M514.729 228.491V211.989H517.181V214.482H517.353C517.654 213.665 518.199 213.003 518.988 212.494C519.776 211.986 520.665 211.731 521.655 211.731C521.841 211.731 522.074 211.735 522.354 211.742C522.633 211.749 522.845 211.76 522.988 211.774V214.353C522.902 214.331 522.705 214.299 522.397 214.256C522.096 214.206 521.777 214.181 521.44 214.181C520.637 214.181 519.92 214.349 519.289 214.686C518.665 215.015 518.17 215.474 517.805 216.061C517.446 216.641 517.267 217.304 517.267 218.049V228.491H514.729Z" fill="white"/>
<path d="M502.942 235.023C501.716 235.023 500.662 234.866 499.781 234.551C498.899 234.243 498.164 233.834 497.576 233.326C496.995 232.824 496.533 232.287 496.189 231.714L498.211 230.296C498.44 230.597 498.73 230.941 499.082 231.328C499.433 231.721 499.913 232.062 500.523 232.348C501.139 232.642 501.946 232.789 502.942 232.789C504.276 232.789 505.376 232.466 506.244 231.822C507.111 231.177 507.545 230.167 507.545 228.792V225.44H507.33C507.144 225.741 506.878 226.113 506.534 226.557C506.197 226.994 505.71 227.385 505.072 227.728C504.441 228.065 503.588 228.233 502.512 228.233C501.179 228.233 499.981 227.918 498.92 227.288C497.866 226.658 497.031 225.741 496.415 224.538C495.805 223.334 495.5 221.873 495.5 220.154C495.5 218.464 495.798 216.992 496.393 215.739C496.988 214.478 497.816 213.504 498.877 212.817C499.938 212.122 501.164 211.774 502.555 211.774C503.631 211.774 504.484 211.953 505.115 212.312C505.753 212.663 506.24 213.064 506.577 213.515C506.921 213.959 507.187 214.324 507.373 214.611H507.631V211.989H510.083V228.964C510.083 230.382 509.761 231.535 509.115 232.423C508.477 233.319 507.617 233.974 506.534 234.389C505.459 234.812 504.262 235.023 502.942 235.023ZM502.856 225.956C503.874 225.956 504.735 225.723 505.437 225.257C506.14 224.792 506.674 224.122 507.04 223.248C507.405 222.375 507.588 221.329 507.588 220.111C507.588 218.922 507.409 217.873 507.05 216.964C506.692 216.054 506.161 215.341 505.459 214.826C504.756 214.31 503.889 214.052 502.856 214.052C501.781 214.052 500.885 214.324 500.168 214.869C499.458 215.413 498.924 216.143 498.565 217.06C498.214 217.977 498.038 218.994 498.038 220.111C498.038 221.257 498.218 222.271 498.576 223.152C498.942 224.026 499.48 224.713 500.189 225.215C500.906 225.709 501.795 225.956 502.856 225.956Z" fill="white"/>
<path d="M483.703 228.835C482.327 228.835 481.111 228.488 480.057 227.793C479.004 227.091 478.179 226.103 477.584 224.828C476.989 223.546 476.691 222.031 476.691 220.283C476.691 218.55 476.989 217.046 477.584 215.771C478.179 214.496 479.007 213.511 480.068 212.817C481.129 212.122 482.355 211.774 483.746 211.774C484.822 211.774 485.671 211.954 486.295 212.312C486.926 212.663 487.406 213.064 487.736 213.515C488.073 213.959 488.335 214.324 488.521 214.611H488.736V206.489H491.274V228.491H488.822V225.956H488.521C488.335 226.257 488.069 226.636 487.725 227.095C487.381 227.546 486.89 227.951 486.252 228.309C485.614 228.66 484.764 228.835 483.703 228.835ZM484.047 226.557C485.065 226.557 485.926 226.292 486.628 225.762C487.331 225.225 487.865 224.484 488.231 223.539C488.596 222.586 488.779 221.487 488.779 220.24C488.779 219.008 488.6 217.93 488.241 217.007C487.883 216.075 487.352 215.352 486.65 214.836C485.947 214.313 485.08 214.052 484.047 214.052C482.972 214.052 482.076 214.328 481.359 214.879C480.649 215.424 480.115 216.165 479.756 217.103C479.405 218.034 479.229 219.08 479.229 220.24C479.229 221.415 479.409 222.482 479.767 223.442C480.133 224.394 480.67 225.154 481.38 225.719C482.097 226.278 482.986 226.557 484.047 226.557Z" fill="white"/>
<path d="M462.289 218.564V228.491H459.751V211.989H462.203V214.568H462.418C462.805 213.73 463.393 213.056 464.182 212.548C464.97 212.032 465.988 211.774 467.236 211.774C468.354 211.774 469.333 212.004 470.172 212.462C471.011 212.913 471.663 213.601 472.129 214.525C472.595 215.442 472.828 216.602 472.828 218.006V228.491H470.29V218.178C470.29 216.881 469.953 215.871 469.279 215.148C468.605 214.417 467.68 214.052 466.505 214.052C465.694 214.052 464.97 214.228 464.332 214.578C463.701 214.929 463.203 215.442 462.837 216.115C462.472 216.788 462.289 217.605 462.289 218.564Z" fill="white"/>
<path d="M452.564 228.491V211.989H455.102V228.491H452.564ZM453.855 209.239C453.36 209.239 452.933 209.071 452.575 208.734C452.223 208.397 452.048 207.993 452.048 207.52C452.048 207.047 452.223 206.643 452.575 206.306C452.933 205.969 453.36 205.801 453.855 205.801C454.349 205.801 454.772 205.969 455.124 206.306C455.482 206.643 455.661 207.047 455.661 207.52C455.661 207.993 455.482 208.397 455.124 208.734C454.772 209.071 454.349 209.239 453.855 209.239Z" fill="white"/>
<path d="M425.967 206.489H429.15L436.635 224.753H436.893L444.378 206.489H447.561V228.491H445.066V211.774H444.851L437.968 228.491H435.56L428.677 211.774H428.462V228.491H425.967V206.489Z" fill="white"/>
<path d="M401.883 234.68C401.452 234.68 401.069 234.644 400.732 234.572C400.395 234.508 400.162 234.443 400.033 234.379L400.678 232.144C401.295 232.302 401.84 232.359 402.313 232.316C402.786 232.273 403.205 232.062 403.571 231.682C403.944 231.31 404.284 230.704 404.593 229.866L405.066 228.577L398.958 211.989H401.711L406.27 225.139H406.442L411.002 211.989H413.755L406.744 230.898C406.428 231.75 406.037 232.456 405.571 233.014C405.105 233.58 404.564 233.999 403.947 234.271C403.338 234.543 402.65 234.68 401.883 234.68Z" fill="white"/>
<path d="M382.375 228.491V206.489H384.912V214.611H385.128C385.314 214.324 385.572 213.959 385.902 213.515C386.239 213.064 386.719 212.663 387.343 212.312C387.974 211.954 388.827 211.774 389.902 211.774C391.293 211.774 392.519 212.122 393.58 212.817C394.641 213.511 395.469 214.496 396.065 215.771C396.66 217.046 396.957 218.55 396.957 220.283C396.957 222.031 396.66 223.546 396.065 224.828C395.469 226.103 394.645 227.091 393.591 227.793C392.537 228.488 391.322 228.835 389.945 228.835C388.884 228.835 388.035 228.66 387.397 228.309C386.759 227.951 386.268 227.546 385.923 227.095C385.579 226.636 385.314 226.257 385.128 225.956H384.826V228.491H382.375ZM384.869 220.24C384.869 221.487 385.052 222.586 385.418 223.539C385.784 224.484 386.318 225.225 387.02 225.762C387.723 226.292 388.583 226.557 389.601 226.557C390.662 226.557 391.548 226.278 392.258 225.719C392.975 225.154 393.512 224.394 393.871 223.442C394.236 222.482 394.419 221.415 394.419 220.24C394.419 219.08 394.24 218.034 393.881 217.103C393.53 216.165 392.996 215.424 392.279 214.879C391.569 214.328 390.677 214.052 389.601 214.052C388.569 214.052 387.701 214.313 386.999 214.836C386.296 215.352 385.766 216.075 385.407 217.007C385.049 217.93 384.869 219.008 384.869 220.24Z" fill="white"/>
<path d="M360.941 228.835C359.565 228.835 358.35 228.488 357.296 227.793C356.242 227.091 355.417 226.103 354.822 224.828C354.227 223.546 353.93 222.031 353.93 220.283C353.93 218.55 354.227 217.046 354.822 215.771C355.417 214.496 356.245 213.511 357.306 212.817C358.368 212.122 359.594 211.774 360.984 211.774C362.06 211.774 362.909 211.954 363.533 212.312C364.164 212.663 364.644 213.064 364.974 213.515C365.311 213.959 365.573 214.324 365.759 214.611H365.974V206.489H368.512V228.491H366.06V225.956H365.759C365.573 226.257 365.308 226.636 364.963 227.095C364.619 227.546 364.128 227.951 363.49 228.309C362.852 228.66 362.002 228.835 360.941 228.835ZM361.286 226.557C362.304 226.557 363.164 226.292 363.867 225.762C364.569 225.225 365.103 224.484 365.469 223.539C365.835 222.586 366.017 221.487 366.017 220.24C366.017 219.008 365.838 217.93 365.48 217.007C365.121 216.075 364.591 215.352 363.888 214.836C363.185 214.313 362.318 214.052 361.286 214.052C360.21 214.052 359.314 214.328 358.597 214.879C357.887 215.424 357.353 216.165 356.995 217.103C356.643 218.034 356.468 219.08 356.468 220.24C356.468 221.415 356.647 222.482 357.005 223.442C357.371 224.394 357.909 225.154 358.619 225.719C359.335 226.278 360.224 226.557 361.286 226.557Z" fill="white"/>
<path d="M344.004 228.835C342.412 228.835 341.039 228.484 339.885 227.782C338.738 227.073 337.852 226.085 337.229 224.817C336.612 223.542 336.304 222.059 336.304 220.369C336.304 218.679 336.612 217.189 337.229 215.9C337.852 214.604 338.72 213.594 339.831 212.87C340.95 212.14 342.254 211.774 343.746 211.774C344.606 211.774 345.456 211.918 346.294 212.204C347.133 212.491 347.897 212.956 348.585 213.601C349.273 214.238 349.822 215.083 350.23 216.136C350.639 217.189 350.843 218.486 350.843 220.025V221.1H338.11V218.908H348.262C348.262 217.977 348.076 217.146 347.703 216.416C347.337 215.685 346.814 215.108 346.133 214.686C345.459 214.263 344.663 214.052 343.746 214.052C342.735 214.052 341.86 214.303 341.122 214.804C340.39 215.298 339.828 215.943 339.433 216.738C339.039 217.533 338.842 218.385 338.842 219.295V220.756C338.842 222.002 339.057 223.059 339.487 223.925C339.924 224.785 340.53 225.44 341.304 225.891C342.079 226.335 342.978 226.557 344.004 226.557C344.67 226.557 345.273 226.464 345.81 226.278C346.355 226.085 346.825 225.798 347.219 225.419C347.614 225.032 347.918 224.552 348.133 223.979L350.585 224.667C350.327 225.497 349.893 226.228 349.284 226.858C348.675 227.481 347.922 227.968 347.026 228.319C346.129 228.663 345.122 228.835 344.004 228.835Z" fill="white"/>
<path d="M326.313 228.491V211.989H328.765V214.482H328.937C329.238 213.665 329.783 213.003 330.572 212.494C331.36 211.986 332.249 211.731 333.239 211.731C333.425 211.731 333.658 211.735 333.938 211.742C334.217 211.749 334.429 211.76 334.572 211.774V214.353C334.486 214.331 334.289 214.299 333.981 214.256C333.68 214.206 333.361 214.181 333.024 214.181C332.221 214.181 331.504 214.349 330.873 214.686C330.249 215.015 329.754 215.474 329.389 216.061C329.03 216.641 328.851 217.304 328.851 218.049V228.491H326.313Z" fill="white"/>
<path d="M315.613 228.835C314.021 228.835 312.648 228.484 311.494 227.782C310.347 227.073 309.461 226.085 308.837 224.817C308.221 223.542 307.913 222.059 307.913 220.369C307.913 218.679 308.221 217.189 308.837 215.9C309.461 214.604 310.329 213.594 311.44 212.87C312.558 212.14 313.863 211.774 315.354 211.774C316.215 211.774 317.064 211.918 317.903 212.204C318.742 212.491 319.506 212.956 320.194 213.601C320.882 214.238 321.431 215.083 321.839 216.136C322.248 217.189 322.452 218.486 322.452 220.025V221.1H309.719V218.908H319.871C319.871 217.977 319.685 217.146 319.312 216.416C318.946 215.685 318.423 215.108 317.742 214.686C317.068 214.263 316.272 214.052 315.354 214.052C314.344 214.052 313.469 214.303 312.73 214.804C311.999 215.298 311.436 215.943 311.042 216.738C310.648 217.533 310.451 218.385 310.451 219.295V220.756C310.451 222.002 310.666 223.059 311.096 223.925C311.533 224.785 312.139 225.44 312.913 225.891C313.688 226.335 314.587 226.557 315.613 226.557C316.279 226.557 316.882 226.464 317.419 226.278C317.964 226.085 318.434 225.798 318.828 225.419C319.222 225.032 319.527 224.552 319.742 223.979L322.194 224.667C321.936 225.497 321.502 226.228 320.893 226.858C320.283 227.481 319.531 227.968 318.635 228.319C317.738 228.663 316.731 228.835 315.613 228.835Z" fill="white"/>
<path d="M288.386 228.491L283.353 211.989H286.02L289.59 224.624H289.763L293.29 211.989H296L299.484 224.581H299.656L303.227 211.989H305.894L300.861 228.491H298.366L294.752 215.814H294.494L290.881 228.491H288.386Z" fill="white"/>
<path d="M273.846 228.835C272.355 228.835 271.047 228.481 269.921 227.771C268.803 227.062 267.928 226.07 267.297 224.796C266.673 223.521 266.361 222.031 266.361 220.326C266.361 218.607 266.673 217.107 267.297 215.825C267.928 214.543 268.803 213.547 269.921 212.838C271.047 212.129 272.355 211.774 273.846 211.774C275.337 211.774 276.642 212.129 277.761 212.838C278.886 213.547 279.761 214.543 280.385 215.825C281.016 217.107 281.331 218.607 281.331 220.326C281.331 222.031 281.016 223.521 280.385 224.796C279.761 226.07 278.886 227.062 277.761 227.771C276.642 228.481 275.337 228.835 273.846 228.835ZM273.846 226.557C274.979 226.557 275.911 226.267 276.642 225.687C277.374 225.107 277.915 224.344 278.266 223.399C278.617 222.453 278.793 221.429 278.793 220.326C278.793 219.223 278.617 218.195 278.266 217.243C277.915 216.29 277.374 215.52 276.642 214.933C275.911 214.346 274.979 214.052 273.846 214.052C272.713 214.052 271.781 214.346 271.05 214.933C270.319 215.52 269.778 216.29 269.426 217.243C269.075 218.195 268.899 219.223 268.899 220.326C268.899 221.429 269.075 222.453 269.426 223.399C269.778 224.344 270.319 225.107 271.05 225.687C271.781 226.267 272.713 226.557 273.846 226.557Z" fill="white"/>
<path d="M248.434 228.491V206.489H255.876C257.604 206.489 259.016 206.8 260.113 207.423C261.217 208.039 262.035 208.874 262.565 209.927C263.096 210.979 263.361 212.154 263.361 213.45C263.361 214.747 263.096 215.925 262.565 216.985C262.042 218.045 261.232 218.89 260.135 219.52C259.038 220.144 257.632 220.455 255.919 220.455H250.585V218.092H255.833C257.016 218.092 257.966 217.887 258.683 217.479C259.4 217.071 259.92 216.519 260.242 215.825C260.572 215.123 260.737 214.331 260.737 213.45C260.737 212.569 260.572 211.782 260.242 211.087C259.92 210.392 259.396 209.848 258.672 209.454C257.948 209.053 256.987 208.852 255.79 208.852H251.101V228.491H248.434Z" fill="white"/>
</svg>
