<svg width="617" height="261" viewBox="0 0 617 261" fill="none" xmlns="http://www.w3.org/2000/svg">
<rect width="615.986" height="259.252" transform="translate(0.98584 0.874146)" fill="#2C215A"/>
<path fill-rule="evenodd" clip-rule="evenodd" d="M124.685 132.594L155.418 178.605L116.838 231.153H147.833L170.981 198.997L190.729 231.153H221.986L185.236 178.605L217.801 132.594H186.152L169.673 158.083L156.334 132.594H124.685ZM55.3143 186.289V132.696H29.6812V189.818C29.6812 205.156 33.2123 216.354 40.2744 223.412C47.3366 230.471 58.1479 234 72.7082 234C87.2686 234 98.0362 230.471 105.011 223.412C112.073 216.354 115.605 205.156 115.605 189.818V132.696H90.1022V186.289C90.1022 189.165 89.9714 192.128 89.7098 195.178C89.5355 198.141 88.8815 200.842 87.7481 203.282C86.6147 205.722 84.8709 207.726 82.5168 209.295C80.25 210.776 76.9804 211.517 72.7082 211.517C68.4361 211.517 65.1229 210.776 62.7689 209.295C60.4148 207.726 58.671 205.722 57.5376 203.282C56.4913 200.842 55.8374 198.141 55.5759 195.178C55.4015 192.128 55.3143 189.165 55.3143 186.289Z" fill="white"/>
<path fill-rule="evenodd" clip-rule="evenodd" d="M46.2937 27C39.9617 27 34.4353 31.8357 34.4353 38.2691V89.0002C34.4353 91.9149 35.5697 94.5017 37.3994 96.4594C35.1882 98.0151 33.3021 100.177 31.8798 102.736L27.8091 110.059C25.414 114.369 28.5314 119.664 33.4634 119.664L144.289 119.664C149.221 119.664 152.339 114.369 149.944 110.06L145.873 102.736C144.451 100.177 142.564 98.0152 140.353 96.4595C142.183 94.5018 143.317 91.9149 143.317 89.0002V38.2691C143.317 31.8357 137.791 27 131.459 27H46.2937ZM131.459 93.8043C134.653 93.8043 136.849 91.4439 136.849 89.0002V38.2691C136.849 35.8254 134.653 33.4649 131.459 33.4649H46.2937C43.0996 33.4649 40.9035 35.8254 40.9035 38.2691V89.0002C40.9035 91.4439 43.0996 93.8043 46.2937 93.8043H131.459ZM46.2937 100.269H45.5353C42.723 100.269 39.6572 102.056 37.5341 105.876L33.4634 113.199L144.289 113.199L140.219 105.876C138.095 102.056 135.03 100.269 132.217 100.269L131.459 100.269H46.2937ZM72.5073 106.789C72.9474 105.469 74.1825 104.579 75.5737 104.579H102.178C103.569 104.579 104.804 105.469 105.244 106.789C105.943 108.882 104.385 111.044 102.178 111.044H75.5737C73.3671 111.044 71.8092 108.882 72.5073 106.789ZM161.202 38.8524C161.202 32.3065 166.511 27 173.061 27H207.558C214.107 27 219.416 32.3065 219.416 38.8524V107.812C219.416 114.358 214.107 119.664 207.558 119.664H173.061C166.511 119.664 161.202 114.358 161.202 107.812V38.8524ZM173.061 33.4649C170.084 33.4649 167.67 35.877 167.67 38.8524V107.812C167.67 110.787 170.084 113.199 173.061 113.199H207.558C210.535 113.199 212.948 110.787 212.948 107.812V38.8524C212.948 35.877 210.535 33.4649 207.558 33.4649H204.863V34.0037C204.863 36.384 202.932 38.3136 200.551 38.3136H180.068C177.686 38.3136 175.756 36.384 175.756 34.0037V33.4649H173.061Z" fill="url(#paint0_linear_230_7869)"/>
<path d="M473.484 146.914C473.358 145.538 472.802 144.468 471.813 143.705C470.837 142.929 469.442 142.541 467.628 142.541C466.426 142.541 465.425 142.698 464.625 143.01C463.824 143.323 463.223 143.755 462.823 144.306C462.422 144.844 462.216 145.463 462.203 146.164C462.178 146.739 462.291 147.246 462.541 147.684C462.804 148.122 463.179 148.51 463.667 148.848C464.168 149.173 464.769 149.461 465.469 149.711C466.17 149.961 466.958 150.18 467.834 150.368L471.137 151.119C473.039 151.531 474.716 152.082 476.167 152.77C477.631 153.458 478.858 154.278 479.846 155.229C480.847 156.18 481.604 157.275 482.117 158.513C482.63 159.752 482.893 161.141 482.905 162.68C482.893 165.108 482.28 167.191 481.066 168.93C479.852 170.669 478.107 172.002 475.83 172.928C473.565 173.854 470.831 174.317 467.628 174.317C464.412 174.317 461.609 173.835 459.219 172.872C456.829 171.908 454.971 170.444 453.645 168.48C452.319 166.515 451.637 164.032 451.599 161.029H460.496C460.571 162.267 460.902 163.3 461.49 164.125C462.078 164.951 462.885 165.577 463.911 166.002C464.95 166.428 466.151 166.64 467.515 166.64C468.766 166.64 469.83 166.471 470.706 166.134C471.594 165.796 472.276 165.327 472.752 164.726C473.227 164.125 473.471 163.437 473.484 162.661C473.471 161.936 473.246 161.316 472.808 160.803C472.37 160.278 471.694 159.827 470.781 159.452C469.88 159.064 468.729 158.707 467.327 158.382L463.311 157.444C459.983 156.68 457.361 155.448 455.447 153.746C453.532 152.032 452.581 149.717 452.594 146.802C452.581 144.424 453.219 142.341 454.508 140.552C455.797 138.762 457.58 137.367 459.857 136.366C462.135 135.365 464.731 134.865 467.646 134.865C470.624 134.865 473.208 135.372 475.398 136.385C477.6 137.386 479.308 138.794 480.522 140.608C481.736 142.422 482.355 144.524 482.38 146.914H473.484Z" fill="white"/>
<path d="M428.307 173.829H414.099V135.39H428.288C432.205 135.39 435.577 136.16 438.405 137.699C441.245 139.225 443.435 141.428 444.974 144.306C446.513 147.171 447.282 150.599 447.282 154.591C447.282 158.595 446.513 162.036 444.974 164.914C443.447 167.792 441.264 170 438.423 171.539C435.583 173.066 432.211 173.829 428.307 173.829ZM423.39 165.908H427.951C430.103 165.908 431.923 165.546 433.412 164.82C434.914 164.082 436.046 162.887 436.809 161.235C437.585 159.571 437.973 157.356 437.973 154.591C437.973 151.826 437.585 149.623 436.809 147.984C436.034 146.333 434.889 145.144 433.375 144.418C431.873 143.68 430.021 143.311 427.819 143.311H423.39V165.908Z" fill="white"/>
<path d="M379.104 173.829V135.39H394.983C397.861 135.39 400.345 135.91 402.434 136.948C404.536 137.974 406.157 139.451 407.295 141.378C408.434 143.292 409.003 145.563 409.003 148.191C409.003 150.856 408.421 153.121 407.258 154.985C406.094 156.837 404.442 158.251 402.303 159.227C400.163 160.19 397.629 160.672 394.701 160.672H384.66V153.352H392.975C394.376 153.352 395.546 153.171 396.484 152.808C397.435 152.432 398.155 151.869 398.643 151.119C399.131 150.355 399.375 149.379 399.375 148.191C399.375 147.002 399.131 146.02 398.643 145.244C398.155 144.456 397.435 143.868 396.484 143.48C395.533 143.079 394.364 142.879 392.975 142.879H388.395V173.829H379.104ZM400.745 156.261L410.317 173.829H400.182L390.797 156.261H400.745Z" fill="white"/>
<path d="M346.644 173.829H336.659L349.628 135.39H361.997L374.966 173.829H364.981L355.953 145.075H355.653L346.644 173.829ZM345.311 158.701H366.182V165.758H345.311V158.701Z" fill="white"/>
<path d="M295.466 173.829L284.28 135.39H294.546L300.346 160.578H300.665L307.29 135.39H315.661L322.287 160.634H322.606L328.424 135.39H338.672L327.504 173.829H318.552L311.626 150.518H311.326L304.4 173.829H295.466Z" fill="white"/>
<path d="M257.971 173.829H247.986L260.955 135.39H273.324L286.293 173.829H276.308L267.28 145.075H266.98L257.971 173.829ZM256.638 158.701H277.509V165.758H256.638V158.701Z" fill="white"/>
<path d="M568.299 120.834V82.395H590.596V85.5482H571.809V100.019H589.414V103.172H571.809V117.68H590.972V120.834H568.299Z" fill="white"/>
<path d="M560.055 94.407H556.526C556.263 93.0932 555.788 91.8795 555.1 90.7659C554.424 89.6398 553.573 88.6575 552.547 87.8192C551.521 86.9808 550.357 86.3302 549.056 85.8672C547.755 85.4043 546.347 85.1728 544.833 85.1728C542.406 85.1728 540.191 85.8047 538.189 87.0684C536.199 88.3322 534.604 90.1903 533.403 92.6428C532.214 95.0827 531.62 98.0732 531.62 101.614C531.62 105.18 532.214 108.183 533.403 110.623C534.604 113.063 536.199 114.915 538.189 116.179C540.191 117.43 542.406 118.056 544.833 118.056C546.347 118.056 547.755 117.824 549.056 117.361C550.357 116.898 551.521 116.254 552.547 115.428C553.573 114.59 554.424 113.608 555.1 112.481C555.788 111.355 556.263 110.135 556.526 108.821H560.055C559.742 110.586 559.154 112.231 558.29 113.758C557.439 115.272 556.351 116.598 555.025 117.737C553.711 118.875 552.197 119.764 550.482 120.402C548.768 121.04 546.885 121.359 544.833 121.359C541.605 121.359 538.739 120.552 536.237 118.938C533.734 117.311 531.77 115.021 530.344 112.068C528.93 109.116 528.223 105.631 528.223 101.614C528.223 97.5977 528.93 94.113 530.344 91.16C531.77 88.2071 533.734 85.9235 536.237 84.3094C538.739 82.6828 541.605 81.8695 544.833 81.8695C546.885 81.8695 548.768 82.1885 550.482 82.8267C552.197 83.4523 553.711 84.3407 555.025 85.4919C556.351 86.6305 557.439 87.9568 558.29 89.4708C559.154 90.9849 559.742 92.6303 560.055 94.407Z" fill="white"/>
<path d="M519.73 82.395V120.834H516.314L493.604 88.645H493.303V120.834H489.793V82.395H493.191L515.976 114.621H516.276V82.395H519.73Z" fill="white"/>
<path d="M458.412 120.834V82.395H480.709V85.5482H461.922V100.019H479.527V103.172H461.922V117.68H481.085V120.834H458.412Z" fill="white"/>
<path d="M428.682 120.834V82.395H432.192V117.68H450.51V120.834H428.682Z" fill="white"/>
<path d="M398.953 120.834V82.395H402.462V117.68H420.781V120.834H398.953Z" fill="white"/>
<path d="M367.571 120.834V82.395H389.869V85.5482H371.081V100.019H388.686V103.172H371.081V117.68H390.244V120.834H367.571Z" fill="white"/>
<path d="M359.327 94.407H355.798C355.536 93.0932 355.06 91.8795 354.372 90.7659C353.696 89.6398 352.846 88.6575 351.819 87.8192C350.793 86.9808 349.63 86.3302 348.328 85.8672C347.027 85.4043 345.62 85.1728 344.106 85.1728C341.678 85.1728 339.463 85.8047 337.461 87.0684C335.472 88.3322 333.877 90.1903 332.675 92.6428C331.487 95.0827 330.892 98.0732 330.892 101.614C330.892 105.18 331.487 108.183 332.675 110.623C333.877 113.063 335.472 114.915 337.461 116.179C339.463 117.43 341.678 118.056 344.106 118.056C345.62 118.056 347.027 117.824 348.328 117.361C349.63 116.898 350.793 116.254 351.819 115.428C352.846 114.59 353.696 113.608 354.372 112.481C355.06 111.355 355.536 110.135 355.798 108.821H359.327C359.014 110.586 358.426 112.231 357.563 113.758C356.712 115.272 355.623 116.598 354.297 117.737C352.983 118.875 351.469 119.764 349.755 120.402C348.041 121.04 346.158 121.359 344.106 121.359C340.877 121.359 338.012 120.552 335.509 118.938C333.007 117.311 331.042 115.021 329.616 112.068C328.202 109.116 327.495 105.631 327.495 101.614C327.495 97.5977 328.202 94.113 329.616 91.16C331.042 88.2071 333.007 85.9235 335.509 84.3094C338.012 82.6828 340.877 81.8695 344.106 81.8695C346.158 81.8695 348.041 82.1885 349.755 82.8267C351.469 83.4523 352.983 84.3407 354.297 85.4919C355.623 86.6305 356.712 87.9568 357.563 89.4708C358.426 90.9849 359.014 92.6303 359.327 94.407Z" fill="white"/>
<path d="M297.409 82.395L304.428 94.5384H304.728L311.823 82.395H322.221L310.622 101.614L322.596 120.834H311.936L304.728 108.559H304.428L297.221 120.834H286.635L298.553 101.614L286.936 82.395H297.409Z" fill="white"/>
<path d="M272.911 82.395H282.183V107.189C282.183 110.054 281.501 112.55 280.137 114.677C278.773 116.792 276.871 118.431 274.431 119.595C271.991 120.746 269.157 121.322 265.929 121.322C262.663 121.322 259.81 120.746 257.37 119.595C254.93 118.431 253.035 116.792 251.683 114.677C250.332 112.55 249.656 110.054 249.656 107.189V82.395H258.947V106.382C258.947 107.708 259.235 108.89 259.81 109.929C260.398 110.967 261.218 111.781 262.269 112.369C263.32 112.957 264.54 113.251 265.929 113.251C267.318 113.251 268.531 112.957 269.57 112.369C270.621 111.781 271.441 110.967 272.029 109.929C272.617 108.89 272.911 107.708 272.911 106.382V82.395Z" fill="white"/>
<path d="M390.023 67.8382V29.3997H402.43C405.157 29.3997 407.435 29.8939 409.261 30.8824C411.101 31.8584 412.483 33.216 413.409 34.9553C414.348 36.682 414.817 38.6652 414.817 40.905C414.817 43.1447 414.348 45.1217 413.409 46.8359C412.483 48.5501 411.107 49.889 409.28 50.8524C407.453 51.8159 405.189 52.2976 402.486 52.2976H391.919V49.0882H402.392C404.394 49.0882 406.058 48.7566 407.385 48.0934C408.723 47.4302 409.718 46.4856 410.369 45.2593C411.032 44.0331 411.364 42.5816 411.364 40.905C411.364 39.2283 411.032 37.7643 410.369 36.5131C409.706 35.2493 408.705 34.2733 407.366 33.5851C406.039 32.8969 404.363 32.5528 402.336 32.5528H393.533V67.8382H390.023ZM406.972 50.4958L416.431 67.8382H412.377L403.011 50.4958H406.972Z" fill="white"/>
<path d="M358.642 67.8382V29.3997H380.939V32.5528H362.152V47.0236H379.757V50.1768H362.152V64.685H381.315V67.8382H358.642Z" fill="white"/>
<path d="M324.422 67.8382V29.3997H337.391C339.894 29.3997 341.977 29.8376 343.641 30.7135C345.318 31.5894 346.575 32.7843 347.414 34.2983C348.252 35.8124 348.671 37.5328 348.671 39.4598C348.671 41.0614 348.402 42.4315 347.864 43.5701C347.326 44.7088 346.594 45.6284 345.668 46.3291C344.742 47.0298 343.71 47.5366 342.571 47.8494V48.1497C343.81 48.2373 345.011 48.6752 346.175 49.4635C347.339 50.2393 348.296 51.3279 349.047 52.7293C349.797 54.1307 350.173 55.8074 350.173 57.7593C350.173 59.6988 349.741 61.4318 348.878 62.9583C348.014 64.4723 346.688 65.6673 344.899 66.5431C343.122 67.4065 340.857 67.8382 338.104 67.8382H324.422ZM327.932 64.685H338.104C341.07 64.685 343.259 64.0281 344.673 62.7143C346.1 61.4005 346.813 59.7488 346.813 57.7593C346.813 56.2954 346.456 54.969 345.743 53.7804C345.043 52.5792 344.048 51.6282 342.759 50.9275C341.483 50.2268 339.981 49.8764 338.254 49.8764H327.932V64.685ZM327.932 46.7608H337.71C339.224 46.7608 340.551 46.448 341.689 45.8224C342.828 45.1968 343.716 44.3334 344.354 43.2323C344.992 42.1312 345.312 40.8737 345.312 39.4598C345.312 37.4202 344.648 35.7623 343.322 34.486C341.996 33.1972 340.019 32.5528 337.391 32.5528H327.932V46.7608Z" fill="white"/>
<path d="M286.598 29.3997H290.652L302.045 47.643H302.383L313.775 29.3997H317.829L303.959 51.1903V67.8382H300.468V51.1903L286.598 29.3997Z" fill="white"/>
<path d="M281.957 41.4117H278.429C278.166 40.0979 277.691 38.8842 277.002 37.7706C276.327 36.6444 275.476 35.6622 274.45 34.8239C273.424 33.9855 272.26 33.3349 270.959 32.8719C269.658 32.4089 268.25 32.1775 266.736 32.1775C264.308 32.1775 262.094 32.8093 260.092 34.0731C258.102 35.3369 256.507 37.195 255.306 39.6474C254.117 42.0874 253.523 45.0779 253.523 48.6189C253.523 52.185 254.117 55.188 255.306 57.6279C256.507 60.0679 258.102 61.9197 260.092 63.1835C262.094 64.4348 264.308 65.0604 266.736 65.0604C268.25 65.0604 269.658 64.8289 270.959 64.3659C272.26 63.903 273.424 63.2586 274.45 62.4328C275.476 61.5944 276.327 60.6122 277.002 59.4861C277.691 58.3599 278.166 57.14 278.429 55.8261H281.957C281.645 57.5904 281.056 59.2358 280.193 60.7623C279.342 62.2764 278.254 63.6027 276.927 64.7413C275.614 65.88 274.1 66.7684 272.385 67.4065C270.671 68.0446 268.788 68.3637 266.736 68.3637C263.508 68.3637 260.642 67.5566 258.14 65.9425C255.637 64.3159 253.673 62.0261 252.246 59.0731C250.832 56.1202 250.125 52.6354 250.125 48.6189C250.125 44.6024 250.832 41.1177 252.246 38.1647C253.673 35.2117 255.637 32.9282 258.14 31.3141C260.642 29.6875 263.508 28.8741 266.736 28.8741C268.788 28.8741 270.671 29.1932 272.385 29.8314C274.1 30.457 275.614 31.3454 276.927 32.4965C278.254 33.6352 279.342 34.9615 280.193 36.4755C281.056 37.9895 281.645 39.6349 281.957 41.4117Z" fill="white"/>
<path d="M544.91 229.587V207.563H547.448V215.693H547.663C547.85 215.407 548.108 215.041 548.437 214.596C548.774 214.145 549.255 213.743 549.878 213.392C550.509 213.034 551.363 212.854 552.438 212.854C553.829 212.854 555.055 213.202 556.116 213.897C557.177 214.593 558.005 215.579 558.6 216.855C559.195 218.131 559.492 219.636 559.492 221.371C559.492 223.121 559.195 224.637 558.6 225.92C558.005 227.196 557.18 228.186 556.126 228.888C555.073 229.584 553.857 229.932 552.481 229.932C551.42 229.932 550.57 229.756 549.932 229.405C549.294 229.046 548.803 228.641 548.459 228.189C548.115 227.731 547.85 227.351 547.663 227.05H547.362V229.587H544.91ZM547.405 221.328C547.405 222.576 547.588 223.676 547.954 224.63C548.319 225.576 548.853 226.318 549.556 226.856C550.258 227.386 551.119 227.652 552.137 227.652C553.198 227.652 554.083 227.372 554.793 226.813C555.51 226.247 556.048 225.487 556.406 224.533C556.772 223.572 556.955 222.504 556.955 221.328C556.955 220.167 556.775 219.12 556.417 218.188C556.066 217.249 555.531 216.507 554.815 215.962C554.105 215.41 553.212 215.134 552.137 215.134C551.104 215.134 550.237 215.396 549.534 215.919C548.832 216.435 548.301 217.159 547.943 218.091C547.584 219.016 547.405 220.095 547.405 221.328Z" fill="white"/>
<path d="M537.38 222.834V213.069H539.918V229.587H537.38V226.791H537.208C536.821 227.63 536.219 228.344 535.401 228.931C534.584 229.512 533.552 229.803 532.304 229.803C531.272 229.803 530.354 229.577 529.551 229.125C528.748 228.666 528.117 227.978 527.658 227.06C527.2 226.135 526.97 224.97 526.97 223.565V213.069H529.508V223.393C529.508 224.598 529.845 225.558 530.519 226.275C531.2 226.992 532.068 227.351 533.121 227.351C533.752 227.351 534.394 227.189 535.046 226.867C535.706 226.544 536.258 226.049 536.703 225.383C537.154 224.716 537.38 223.866 537.38 222.834Z" fill="white"/>
<path d="M515.703 229.587V213.069H518.155V215.564H518.327C518.628 214.747 519.173 214.084 519.961 213.575C520.75 213.066 521.639 212.811 522.628 212.811C522.815 212.811 523.048 212.815 523.327 212.822C523.607 212.829 523.818 212.84 523.962 212.854V215.435C523.876 215.414 523.678 215.381 523.37 215.338C523.069 215.288 522.75 215.263 522.413 215.263C521.61 215.263 520.893 215.432 520.262 215.769C519.639 216.098 519.144 216.557 518.778 217.145C518.42 217.726 518.241 218.389 518.241 219.135V229.587H515.703Z" fill="white"/>
<path d="M503.916 236.126C502.69 236.126 501.636 235.968 500.755 235.653C499.873 235.344 499.138 234.936 498.55 234.427C497.969 233.925 497.507 233.387 497.163 232.814L499.185 231.394C499.414 231.695 499.704 232.039 500.056 232.426C500.407 232.821 500.887 233.161 501.497 233.448C502.113 233.742 502.92 233.889 503.916 233.889C505.25 233.889 506.35 233.566 507.218 232.921C508.085 232.276 508.519 231.265 508.519 229.889V226.533H508.304C508.118 226.834 507.852 227.207 507.508 227.652C507.171 228.089 506.684 228.48 506.046 228.824C505.415 229.161 504.562 229.329 503.486 229.329C502.153 229.329 500.955 229.014 499.894 228.383C498.84 227.752 498.005 226.834 497.389 225.63C496.779 224.426 496.475 222.963 496.475 221.242C496.475 219.55 496.772 218.077 497.367 216.823C497.962 215.561 498.79 214.586 499.851 213.897C500.912 213.202 502.138 212.854 503.529 212.854C504.605 212.854 505.458 213.034 506.089 213.392C506.727 213.743 507.214 214.145 507.551 214.596C507.895 215.041 508.161 215.407 508.347 215.693H508.605V213.069H511.057V230.061C511.057 231.48 510.734 232.634 510.089 233.523C509.451 234.42 508.591 235.075 507.508 235.491C506.433 235.914 505.235 236.126 503.916 236.126ZM503.83 227.049C504.848 227.049 505.709 226.816 506.411 226.35C507.114 225.884 507.648 225.214 508.014 224.339C508.379 223.465 508.562 222.418 508.562 221.199C508.562 220.009 508.383 218.959 508.024 218.048C507.666 217.138 507.135 216.425 506.433 215.908C505.73 215.392 504.863 215.134 503.83 215.134C502.755 215.134 501.859 215.407 501.142 215.951C500.432 216.496 499.898 217.228 499.539 218.145C499.188 219.063 499.013 220.081 499.013 221.199C499.013 222.346 499.192 223.361 499.55 224.243C499.916 225.117 500.454 225.806 501.163 226.307C501.88 226.802 502.769 227.049 503.83 227.049Z" fill="white"/>
<path d="M484.678 229.932C483.301 229.932 482.086 229.584 481.032 228.888C479.978 228.186 479.154 227.196 478.559 225.92C477.964 224.637 477.666 223.121 477.666 221.371C477.666 219.636 477.964 218.131 478.559 216.855C479.154 215.579 479.982 214.593 481.043 213.897C482.104 213.202 483.33 212.854 484.721 212.854C485.796 212.854 486.646 213.034 487.269 213.392C487.9 213.743 488.381 214.145 488.71 214.596C489.047 215.041 489.309 215.407 489.495 215.693H489.71V207.563H492.248V229.587H489.796V227.05H489.495C489.309 227.351 489.044 227.731 488.7 228.189C488.355 228.641 487.864 229.046 487.226 229.405C486.588 229.756 485.739 229.932 484.678 229.932ZM485.022 227.652C486.04 227.652 486.9 227.386 487.603 226.856C488.305 226.318 488.839 225.576 489.205 224.63C489.571 223.676 489.753 222.576 489.753 221.328C489.753 220.095 489.574 219.016 489.216 218.091C488.857 217.159 488.327 216.435 487.624 215.919C486.922 215.396 486.054 215.134 485.022 215.134C483.946 215.134 483.05 215.41 482.333 215.962C481.623 216.507 481.089 217.249 480.731 218.188C480.38 219.12 480.204 220.167 480.204 221.328C480.204 222.504 480.383 223.572 480.742 224.533C481.107 225.487 481.645 226.247 482.355 226.813C483.072 227.372 483.961 227.652 485.022 227.652Z" fill="white"/>
<path d="M463.264 219.651V229.587H460.726V213.069H463.178V215.65H463.393C463.78 214.812 464.368 214.138 465.157 213.629C465.945 213.112 466.963 212.854 468.211 212.854C469.329 212.854 470.308 213.084 471.147 213.543C471.985 213.994 472.638 214.682 473.104 215.607C473.57 216.525 473.803 217.686 473.803 219.092V229.587H471.265V219.264C471.265 217.966 470.928 216.955 470.254 216.231C469.58 215.5 468.655 215.134 467.48 215.134C466.669 215.134 465.945 215.31 465.307 215.661C464.676 216.012 464.178 216.525 463.812 217.199C463.447 217.873 463.264 218.69 463.264 219.651Z" fill="white"/>
<path d="M453.54 229.587V213.069H456.078V229.587H453.54ZM454.83 210.316C454.335 210.316 453.909 210.148 453.55 209.811C453.199 209.474 453.023 209.069 453.023 208.596C453.023 208.123 453.199 207.718 453.55 207.381C453.909 207.044 454.335 206.875 454.83 206.875C455.325 206.875 455.748 207.044 456.099 207.381C456.458 207.718 456.637 208.123 456.637 208.596C456.637 209.069 456.458 209.474 456.099 209.811C455.748 210.148 455.325 210.316 454.83 210.316Z" fill="white"/>
<path d="M426.942 207.563H430.126L437.61 225.845H437.868L445.353 207.563H448.536V229.587H446.041V212.854H445.826L438.944 229.587H436.535L429.652 212.854H429.437V229.587H426.942V207.563Z" fill="white"/>
<path d="M402.859 235.782C402.429 235.782 402.045 235.746 401.708 235.674C401.372 235.61 401.139 235.545 401.009 235.481L401.655 233.244C402.271 233.401 402.816 233.459 403.289 233.416C403.762 233.373 404.182 233.161 404.548 232.781C404.92 232.409 405.261 231.803 405.569 230.964L406.042 229.673L399.934 213.069H402.687L407.247 226.232H407.419L411.978 213.069H414.731L407.72 231.996C407.404 232.849 407.014 233.556 406.548 234.115C406.082 234.681 405.54 235.101 404.924 235.373C404.315 235.645 403.626 235.782 402.859 235.782Z" fill="white"/>
<path d="M383.352 229.587V207.563H385.889V215.693H386.105C386.291 215.407 386.549 215.041 386.879 214.596C387.216 214.145 387.696 213.743 388.32 213.392C388.951 213.034 389.804 212.854 390.879 212.854C392.27 212.854 393.496 213.202 394.557 213.897C395.618 214.593 396.446 215.579 397.041 216.855C397.636 218.131 397.934 219.636 397.934 221.371C397.934 223.121 397.636 224.637 397.041 225.92C396.446 227.196 395.622 228.186 394.568 228.888C393.514 229.584 392.299 229.932 390.922 229.932C389.861 229.932 389.012 229.756 388.374 229.405C387.736 229.046 387.244 228.641 386.9 228.189C386.556 227.731 386.291 227.351 386.105 227.05H385.803V229.587H383.352ZM385.846 221.328C385.846 222.576 386.029 223.676 386.395 224.63C386.761 225.576 387.295 226.318 387.997 226.856C388.7 227.386 389.56 227.652 390.578 227.652C391.639 227.652 392.525 227.372 393.234 226.813C393.951 226.247 394.489 225.487 394.848 224.533C395.213 223.572 395.396 222.504 395.396 221.328C395.396 220.167 395.217 219.12 394.858 218.188C394.507 217.249 393.973 216.507 393.256 215.962C392.546 215.41 391.654 215.134 390.578 215.134C389.546 215.134 388.678 215.396 387.976 215.919C387.273 216.435 386.743 217.159 386.384 218.091C386.026 219.016 385.846 220.095 385.846 221.328Z" fill="white"/>
<path d="M361.919 229.932C360.542 229.932 359.327 229.584 358.273 228.888C357.219 228.186 356.395 227.196 355.8 225.92C355.205 224.637 354.907 223.121 354.907 221.371C354.907 219.636 355.205 218.131 355.8 216.855C356.395 215.579 357.223 214.593 358.284 213.897C359.345 213.202 360.571 212.854 361.962 212.854C363.037 212.854 363.887 213.034 364.51 213.392C365.141 213.743 365.622 214.145 365.952 214.596C366.288 215.041 366.55 215.407 366.737 215.693H366.952V207.563H369.49V229.587H367.038V227.05H366.737C366.55 227.351 366.285 227.731 365.941 228.189C365.597 228.641 365.106 229.046 364.467 229.405C363.829 229.756 362.98 229.932 361.919 229.932ZM362.263 227.652C363.281 227.652 364.141 227.386 364.844 226.856C365.546 226.318 366.081 225.576 366.446 224.63C366.812 223.676 366.995 222.576 366.995 221.328C366.995 220.095 366.815 219.016 366.457 218.091C366.098 217.159 365.568 216.435 364.865 215.919C364.163 215.396 363.295 215.134 362.263 215.134C361.188 215.134 360.291 215.41 359.574 215.962C358.865 216.507 358.331 217.249 357.972 218.188C357.621 219.12 357.445 220.167 357.445 221.328C357.445 222.504 357.624 223.572 357.983 224.533C358.348 225.487 358.886 226.247 359.596 226.813C360.313 227.372 361.202 227.652 362.263 227.652Z" fill="white"/>
<path d="M344.981 229.932C343.389 229.932 342.017 229.58 340.862 228.878C339.715 228.168 338.83 227.179 338.206 225.91C337.59 224.633 337.281 223.149 337.281 221.457C337.281 219.765 337.59 218.274 338.206 216.984C338.83 215.686 339.697 214.675 340.809 213.951C341.927 213.22 343.232 212.854 344.723 212.854C345.583 212.854 346.433 212.998 347.272 213.284C348.11 213.571 348.874 214.037 349.562 214.682C350.25 215.321 350.799 216.167 351.208 217.22C351.616 218.274 351.821 219.572 351.821 221.113V222.189H339.088V219.995H349.24C349.24 219.063 349.053 218.231 348.68 217.5C348.315 216.769 347.791 216.192 347.11 215.769C346.436 215.346 345.641 215.134 344.723 215.134C343.712 215.134 342.837 215.385 342.099 215.887C341.368 216.382 340.805 217.027 340.411 217.823C340.016 218.618 339.819 219.472 339.819 220.382V221.845C339.819 223.092 340.034 224.15 340.464 225.017C340.902 225.877 341.508 226.533 342.282 226.985C343.056 227.429 343.956 227.652 344.981 227.652C345.648 227.652 346.25 227.559 346.788 227.372C347.333 227.179 347.802 226.892 348.196 226.512C348.591 226.125 348.895 225.644 349.111 225.071L351.562 225.759C351.304 226.591 350.871 227.322 350.261 227.953C349.652 228.577 348.899 229.064 348.003 229.415C347.107 229.759 346.099 229.932 344.981 229.932Z" fill="white"/>
<path d="M327.291 229.587V213.069H329.743V215.564H329.915C330.216 214.747 330.761 214.084 331.55 213.575C332.338 213.066 333.227 212.811 334.217 212.811C334.403 212.811 334.636 212.815 334.916 212.822C335.195 212.829 335.407 212.84 335.55 212.854V215.435C335.464 215.414 335.267 215.381 334.959 215.338C334.657 215.288 334.338 215.263 334.001 215.263C333.199 215.263 332.482 215.432 331.851 215.769C331.227 216.098 330.732 216.557 330.367 217.145C330.008 217.726 329.829 218.389 329.829 219.135V229.587H327.291Z" fill="white"/>
<path d="M316.591 229.932C314.999 229.932 313.626 229.58 312.472 228.878C311.325 228.168 310.44 227.179 309.816 225.91C309.199 224.633 308.891 223.149 308.891 221.457C308.891 219.765 309.199 218.274 309.816 216.984C310.44 215.686 311.307 214.675 312.418 213.951C313.537 213.22 314.842 212.854 316.333 212.854C317.193 212.854 318.043 212.998 318.882 213.284C319.72 213.571 320.484 214.037 321.172 214.682C321.86 215.321 322.409 216.167 322.817 217.22C323.226 218.274 323.43 219.572 323.43 221.113V222.189H310.698V219.995H320.849C320.849 219.063 320.663 218.231 320.29 217.5C319.925 216.769 319.401 216.192 318.72 215.769C318.046 215.346 317.25 215.134 316.333 215.134C315.322 215.134 314.447 215.385 313.709 215.887C312.978 216.382 312.415 217.027 312.021 217.823C311.626 218.618 311.429 219.472 311.429 220.382V221.845C311.429 223.092 311.644 224.15 312.074 225.017C312.512 225.877 313.117 226.533 313.892 226.985C314.666 227.429 315.566 227.652 316.591 227.652C317.258 227.652 317.86 227.559 318.398 227.372C318.942 227.179 319.412 226.892 319.806 226.512C320.201 226.125 320.505 225.644 320.72 225.071L323.172 225.759C322.914 226.591 322.48 227.322 321.871 227.953C321.262 228.577 320.509 229.064 319.613 229.415C318.717 229.759 317.709 229.932 316.591 229.932Z" fill="white"/>
<path d="M289.365 229.587L284.332 213.069H286.999L290.569 225.716H290.741L294.269 213.069H296.979L300.463 225.673H300.635L304.205 213.069H306.872L301.839 229.587H299.345L295.731 216.898H295.473L291.86 229.587H289.365Z" fill="white"/>
<path d="M274.826 229.932C273.334 229.932 272.026 229.577 270.9 228.867C269.782 228.157 268.907 227.164 268.276 225.888C267.653 224.612 267.341 223.121 267.341 221.414C267.341 219.694 267.653 218.192 268.276 216.909C268.907 215.625 269.782 214.629 270.9 213.919C272.026 213.209 273.334 212.854 274.826 212.854C276.317 212.854 277.622 213.209 278.74 213.919C279.866 214.629 280.74 215.625 281.364 216.909C281.995 218.192 282.31 219.694 282.31 221.414C282.31 223.121 281.995 224.612 281.364 225.888C280.74 227.164 279.866 228.157 278.74 228.867C277.622 229.577 276.317 229.932 274.826 229.932ZM274.826 227.652C275.958 227.652 276.89 227.361 277.622 226.781C278.353 226.2 278.894 225.436 279.245 224.49C279.597 223.544 279.772 222.518 279.772 221.414C279.772 220.31 279.597 219.282 279.245 218.328C278.894 217.375 278.353 216.604 277.622 216.016C276.89 215.428 275.958 215.134 274.826 215.134C273.693 215.134 272.761 215.428 272.03 216.016C271.298 216.604 270.757 217.375 270.406 218.328C270.054 219.282 269.879 220.31 269.879 221.414C269.879 222.518 270.054 223.544 270.406 224.49C270.757 225.436 271.298 226.2 272.03 226.781C272.761 227.361 273.693 227.652 274.826 227.652Z" fill="white"/>
<path d="M249.414 229.587V207.563H256.856C258.584 207.563 259.996 207.875 261.093 208.499C262.197 209.116 263.014 209.951 263.545 211.005C264.075 212.059 264.341 213.234 264.341 214.532C264.341 215.83 264.075 217.009 263.545 218.07C263.021 219.131 262.211 219.977 261.114 220.608C260.017 221.232 258.612 221.543 256.899 221.543H251.565V219.178H256.813C257.996 219.178 258.946 218.973 259.663 218.565C260.379 218.156 260.899 217.604 261.222 216.909C261.552 216.206 261.717 215.414 261.717 214.532C261.717 213.65 261.552 212.861 261.222 212.166C260.899 211.471 260.376 210.926 259.652 210.531C258.928 210.13 257.967 209.929 256.77 209.929H252.081V229.587H249.414Z" fill="white"/>
<defs>
<linearGradient id="paint0_linear_230_7869" x1="17.2584" y1="18.4965" x2="167.494" y2="192.178" gradientUnits="userSpaceOnUse">
<stop stop-color="#A385FC"/>
<stop offset="0.47" stop-color="white"/>
<stop offset="1" stop-color="#9B7BFB"/>
</linearGradient>
</defs>
</svg>
